<svg width="1065" height="727" viewBox="0 0 1065 727" fill="none" xmlns="http://www.w3.org/2000/svg">
<path d="M239.611 206.134L115.205 205.945C115.205 205.945 121.396 197.7 128.226 196.683C128.226 196.683 141.546 156.276 163.726 155.971C184.373 155.738 192.609 180.878 192.609 180.878C192.609 180.878 202.18 169.624 211.31 174.785C220.441 179.947 225.624 194.836 225.624 194.836C225.624 194.836 235.89 200.463 239.611 206.134Z" fill="#EBEBEB"/>
<path d="M792.474 136.85L949.795 137.098C949.795 137.098 949.795 126.803 928.14 124.753C928.14 124.753 908.417 79.6792 878.199 85.7424C859.384 89.4646 849.728 115.913 849.728 115.913C849.728 115.913 835.528 95.0771 824.168 99.0756C812.808 103.074 805.992 125.248 805.992 125.248C805.992 125.248 794.263 131.034 792.474 136.85Z" fill="#EBEBEB"/>
<path d="M300.259 131.311L407.242 131.471C407.242 131.471 397.16 121.845 392.673 121.831C388.185 121.816 375.136 89.5082 358.408 90.8604C341.68 92.2127 332.749 116.32 332.749 116.32C332.749 116.32 312.4 109.675 300.259 131.311Z" fill="#EBEBEB"/>
<path d="M709.645 209.478L801.121 209.623C801.121 209.623 796.577 203.545 791.565 202.789C791.565 202.789 781.866 173.041 765.536 172.808C750.356 172.59 744.236 191.056 744.236 191.056C744.236 191.056 737.221 182.753 730.505 186.534C723.788 190.314 719.94 201.161 719.94 201.161C719.94 201.161 712.386 205.319 709.645 209.478Z" fill="#EBEBEB"/>
<path d="M109.354 222.651H182.782V313.948H201.668V262.258H295.033V344.089H307.387V152.03H388.526V204.767H430.118V270.342H442.713V229.092H516.468V352.202H538.052V252.109H605.516V176.108H651.382V132.823H704.448V324.809H722.283V244.708H809.684V359.385H821.782V265.777H910.419V181.445H955.646V606.027H109.354V222.651Z" fill="#EBEBEB"/>
<path d="M130.782 234.123H118.357V251.571H130.782V234.123Z" fill="white"/>
<path d="M152.323 234.123H139.898V251.571H152.323V234.123Z" fill="white"/>
<path d="M173.851 234.123H161.426V251.571H173.851V234.123Z" fill="white"/>
<path d="M130.782 260.397H118.357V277.845H130.782V260.397Z" fill="white"/>
<path d="M152.323 260.397H139.898V277.845H152.323V260.397Z" fill="white"/>
<path d="M173.851 260.397H161.426V277.845H173.851V260.397Z" fill="white"/>
<path d="M130.782 286.656H118.357V304.104H130.782V286.656Z" fill="white"/>
<path d="M152.323 286.656H139.898V304.104H152.323V286.656Z" fill="white"/>
<path d="M173.851 286.656H161.426V304.104H173.851V286.656Z" fill="white"/>
<path d="M130.782 312.915H118.357V330.363H130.782V312.915Z" fill="white"/>
<path d="M152.323 312.915H139.898V330.363H152.323V312.915Z" fill="white"/>
<path d="M173.851 312.915H161.426V330.363H173.851V312.915Z" fill="white"/>
<path d="M560.843 264.599H548.418V279.153H560.843V264.599Z" fill="white"/>
<path d="M582.37 264.599H569.945V279.153H582.37V264.599Z" fill="white"/>
<path d="M603.898 264.599H591.473V279.153H603.898V264.599Z" fill="white"/>
<path d="M560.843 286.496H548.418V301.051H560.843V286.496Z" fill="white"/>
<path d="M582.37 286.496H569.945V301.051H582.37V286.496Z" fill="white"/>
<path d="M603.898 286.496H591.473V301.051H603.898V286.496Z" fill="white"/>
<path d="M560.843 308.408H548.418V322.962H560.843V308.408Z" fill="white"/>
<path d="M582.37 308.408H569.945V322.962H582.37V308.408Z" fill="white"/>
<path d="M603.898 308.408H591.473V322.962H603.898V308.408Z" fill="white"/>
<path d="M560.843 330.32H548.418V344.874H560.843V330.32Z" fill="white"/>
<path d="M582.37 330.32H569.945V344.874H582.37V330.32Z" fill="white"/>
<path d="M603.898 330.32H591.473V344.874H603.898V330.32Z" fill="white"/>
<path d="M560.843 352.769H548.418V367.324H560.843V352.769Z" fill="white"/>
<path d="M582.37 352.769H569.945V367.324H582.37V352.769Z" fill="white"/>
<path d="M603.898 352.769H591.473V367.324H603.898V352.769Z" fill="white"/>
<path d="M560.843 375.234H548.418V389.788H560.843V375.234Z" fill="white"/>
<path d="M582.37 375.234H569.945V389.788H582.37V375.234Z" fill="white"/>
<path d="M603.898 375.234H591.473V389.788H603.898V375.234Z" fill="white"/>
<path d="M560.843 397.684H548.418V412.238H560.843V397.684Z" fill="white"/>
<path d="M582.37 397.684H569.945V412.238H582.37V397.684Z" fill="white"/>
<path d="M603.898 397.684H591.473V412.238H603.898V397.684Z" fill="white"/>
<path d="M560.843 420.133H548.418V434.688H560.843V420.133Z" fill="white"/>
<path d="M582.37 420.133H569.945V434.688H582.37V420.133Z" fill="white"/>
<path d="M603.898 420.133H591.473V434.688H603.898V420.133Z" fill="white"/>
<path d="M283.787 273.454H212.276V284.373H283.787V273.454Z" fill="white"/>
<path d="M283.787 294.639H212.276V305.558H283.787V294.639Z" fill="white"/>
<path d="M283.787 315.809H212.276V326.728H283.787V315.809Z" fill="white"/>
<path d="M283.787 336.994H212.276V347.913H283.787V336.994Z" fill="white"/>
<path d="M283.787 358.178H212.276V369.098H283.787V358.178Z" fill="white"/>
<path d="M283.787 379.363H212.276V390.283H283.787V379.363Z" fill="white"/>
<path d="M283.787 400.533H212.276V411.453H283.787V400.533Z" fill="white"/>
<path d="M283.787 421.718H212.276V432.638H283.787V421.718Z" fill="white"/>
<path d="M798.594 254.886H732.848V265.806H798.594V254.886Z" fill="white"/>
<path d="M798.594 276.056H732.848V286.976H798.594V276.056Z" fill="white"/>
<path d="M798.594 297.241H732.848V308.161H798.594V297.241Z" fill="white"/>
<path d="M798.594 318.426H732.848V329.346H798.594V318.426Z" fill="white"/>
<path d="M798.594 339.596H732.848V350.516H798.594V339.596Z" fill="white"/>
<path d="M798.594 360.781H732.848V371.701H798.594V360.781Z" fill="white"/>
<path d="M798.594 381.966H732.848V392.885H798.594V381.966Z" fill="white"/>
<path d="M798.594 403.151H732.848V414.07H798.594V403.151Z" fill="white"/>
<path d="M798.594 423.274H732.848V434.193H798.594V423.274Z" fill="white"/>
<path d="M798.594 443.397H732.848V454.317H798.594V443.397Z" fill="white"/>
<path d="M798.594 463.521H732.848V474.44H798.594V463.521Z" fill="white"/>
<path d="M798.594 483.644H732.848V494.564H798.594V483.644Z" fill="white"/>
<path d="M798.594 503.767H732.848V514.687H798.594V503.767Z" fill="white"/>
<path d="M904.909 280.462H835.457V291.382H904.909V280.462Z" fill="white"/>
<path d="M904.909 301.647H835.457V312.566H904.909V301.647Z" fill="white"/>
<path d="M904.909 322.832H835.457V333.751H904.909V322.832Z" fill="white"/>
<path d="M904.909 344.002H835.457V354.921H904.909V344.002Z" fill="white"/>
<path d="M904.909 365.187H835.457V376.106H904.909V365.187Z" fill="white"/>
<path d="M904.909 386.371H835.457V397.291H904.909V386.371Z" fill="white"/>
<path d="M904.909 407.542H835.457V418.461H904.909V407.542Z" fill="white"/>
<path d="M904.909 428.726H835.457V439.646H904.909V428.726Z" fill="white"/>
<path d="M904.909 447.687H835.457V458.606H904.909V447.687Z" fill="white"/>
<path d="M904.909 466.647H835.457V477.566H904.909V466.647Z" fill="white"/>
<path d="M904.909 485.607H835.457V496.526H904.909V485.607Z" fill="white"/>
<path d="M486.378 238.979H464.297V249.521H486.378V238.979Z" fill="white"/>
<path d="M486.378 259.437H464.297V269.979H486.378V259.437Z" fill="white"/>
<path d="M486.378 279.895H464.297V290.437H486.378V279.895Z" fill="white"/>
<path d="M486.378 300.338H464.297V310.88H486.378V300.338Z" fill="white"/>
<path d="M486.378 320.796H464.297V331.338H486.378V320.796Z" fill="white"/>
<path d="M486.378 341.254H464.297V351.795H486.378V341.254Z" fill="white"/>
<path d="M486.378 361.712H464.297V372.253H486.378V361.712Z" fill="white"/>
<path d="M486.378 382.155H464.297V392.696H486.378V382.155Z" fill="white"/>
<path d="M516.426 238.979H494.345V249.521H516.426V238.979Z" fill="white"/>
<path d="M516.426 259.437H494.345V269.979H516.426V259.437Z" fill="white"/>
<path d="M516.426 279.895H494.345V290.437H516.426V279.895Z" fill="white"/>
<path d="M516.426 300.338H494.345V310.88H516.426V300.338Z" fill="white"/>
<path d="M516.426 320.796H494.345V331.338H516.426V320.796Z" fill="white"/>
<path d="M516.426 341.254H494.345V351.795H516.426V341.254Z" fill="white"/>
<path d="M516.426 361.712H494.345V372.253H516.426V361.712Z" fill="white"/>
<path d="M516.426 382.155H494.345V392.696H516.426V382.155Z" fill="white"/>
<path d="M342.703 163.095H319.699V179.714H342.703V163.095Z" fill="white"/>
<path d="M376.996 163.095H353.992V179.714H376.996V163.095Z" fill="white"/>
<path d="M342.703 187.522H319.699V204.142H342.703V187.522Z" fill="white"/>
<path d="M376.996 187.522H353.992V204.142H376.996V187.522Z" fill="white"/>
<path d="M342.703 211.935H319.699V228.554H342.703V211.935Z" fill="white"/>
<path d="M376.996 211.935H353.992V228.554H376.996V211.935Z" fill="white"/>
<path d="M342.703 236.362H319.699V252.981H342.703V236.362Z" fill="white"/>
<path d="M376.996 236.362H353.992V252.981H376.996V236.362Z" fill="white"/>
<path d="M342.703 260.775H319.699V277.394H342.703V260.775Z" fill="white"/>
<path d="M376.996 260.775H353.992V277.394H376.996V260.775Z" fill="white"/>
<path d="M342.703 285.202H319.699V301.821H342.703V285.202Z" fill="white"/>
<path d="M376.996 285.202H353.992V301.821H376.996V285.202Z" fill="white"/>
<path d="M342.703 309.629H319.699V326.249H342.703V309.629Z" fill="white"/>
<path d="M376.996 309.629H353.992V326.249H376.996V309.629Z" fill="white"/>
<path d="M342.703 334.042H319.699V350.661H342.703V334.042Z" fill="white"/>
<path d="M376.996 334.042H353.992V350.661H376.996V334.042Z" fill="white"/>
<path d="M419.511 211.935H396.507V228.554H419.511V211.935Z" fill="white"/>
<path d="M419.511 236.362H396.507V252.981H419.511V236.362Z" fill="white"/>
<path d="M419.511 260.775H396.507V277.394H419.511V260.775Z" fill="white"/>
<path d="M419.511 285.202H396.507V301.821H419.511V285.202Z" fill="white"/>
<path d="M419.511 309.629H396.507V326.249H419.511V309.629Z" fill="white"/>
<path d="M419.511 334.042H396.507V350.661H419.511V334.042Z" fill="white"/>
<path d="M342.703 358.178H319.699V374.798H342.703V358.178Z" fill="white"/>
<path d="M376.996 358.178H353.992V374.798H376.996V358.178Z" fill="white"/>
<path d="M419.511 358.178H396.507V374.798H419.511V358.178Z" fill="white"/>
<path d="M342.703 382.3H319.699V398.919H342.703V382.3Z" fill="white"/>
<path d="M376.996 382.3H353.992V398.919H376.996V382.3Z" fill="white"/>
<path d="M419.511 382.3H396.507V398.919H419.511V382.3Z" fill="white"/>
<path d="M342.703 406.437H319.699V423.056H342.703V406.437Z" fill="white"/>
<path d="M376.996 406.437H353.992V423.056H376.996V406.437Z" fill="white"/>
<path d="M419.511 406.437H396.507V423.056H419.511V406.437Z" fill="white"/>
<path d="M342.703 430.573H319.699V447.192H342.703V430.573Z" fill="white"/>
<path d="M376.996 430.573H353.992V447.192H376.996V430.573Z" fill="white"/>
<path d="M419.511 430.573H396.507V447.192H419.511V430.573Z" fill="white"/>
<path d="M342.703 454.695H319.699V471.314H342.703V454.695Z" fill="white"/>
<path d="M376.996 454.695H353.992V471.314H376.996V454.695Z" fill="white"/>
<path d="M419.511 454.695H396.507V471.314H419.511V454.695Z" fill="white"/>
<path d="M627.313 186.824H614.888V201.379H627.313V186.824Z" fill="white"/>
<path d="M648.841 186.824H636.416V201.379H648.841V186.824Z" fill="white"/>
<path d="M627.313 208.736H614.888V223.291H627.313V208.736Z" fill="white"/>
<path d="M648.841 208.736H636.416V223.291H648.841V208.736Z" fill="white"/>
<path d="M627.313 230.648H614.888V245.203H627.313V230.648Z" fill="white"/>
<path d="M648.841 230.648H636.416V245.203H648.841V230.648Z" fill="white"/>
<path d="M627.313 252.545H614.888V267.1H627.313V252.545Z" fill="white"/>
<path d="M648.841 252.545H636.416V267.1H648.841V252.545Z" fill="white"/>
<path d="M627.313 275.01H614.888V289.564H627.313V275.01Z" fill="white"/>
<path d="M648.841 275.01H636.416V289.564H648.841V275.01Z" fill="white"/>
<path d="M627.313 297.459H614.888V312.014H627.313V297.459Z" fill="white"/>
<path d="M648.841 297.459H636.416V312.014H648.841V297.459Z" fill="white"/>
<path d="M627.313 319.909H614.888V334.464H627.313V319.909Z" fill="white"/>
<path d="M648.841 319.909H636.416V334.464H648.841V319.909Z" fill="white"/>
<path d="M627.313 342.359H614.888V356.913H627.313V342.359Z" fill="white"/>
<path d="M648.841 342.359H636.416V356.913H648.841V342.359Z" fill="white"/>
<path d="M627.313 365.056H614.888V379.61H627.313V365.056Z" fill="white"/>
<path d="M648.841 365.056H636.416V379.61H648.841V365.056Z" fill="white"/>
<path d="M627.313 387.738H614.888V402.293H627.313V387.738Z" fill="white"/>
<path d="M648.841 387.738H636.416V402.293H648.841V387.738Z" fill="white"/>
<path d="M627.313 410.435H614.888V424.99H627.313V410.435Z" fill="white"/>
<path d="M648.841 410.435H636.416V424.99H648.841V410.435Z" fill="white"/>
<path d="M627.313 433.132H614.888V447.687H627.313V433.132Z" fill="white"/>
<path d="M648.841 433.132H636.416V447.687H648.841V433.132Z" fill="white"/>
<path d="M930.625 189.194H918.2V206.352H930.625V189.194Z" fill="white"/>
<path d="M952.153 189.194H939.728V206.352H952.153V189.194Z" fill="white"/>
<path d="M930.625 215.003H918.2V232.16H930.625V215.003Z" fill="white"/>
<path d="M952.153 215.003H939.728V232.16H952.153V215.003Z" fill="white"/>
<path d="M930.625 240.811H918.2V257.969H930.625V240.811Z" fill="white"/>
<path d="M952.153 240.811H939.728V257.969H952.153V240.811Z" fill="white"/>
<path d="M930.625 266.635H918.2V283.792H930.625V266.635Z" fill="white"/>
<path d="M952.153 266.635H939.728V283.792H952.153V266.635Z" fill="white"/>
<path d="M930.625 293.083H918.2V310.24H930.625V293.083Z" fill="white"/>
<path d="M952.153 293.083H939.728V310.24H952.153V293.083Z" fill="white"/>
<path d="M930.625 319.531H918.2V336.688H930.625V319.531Z" fill="white"/>
<path d="M952.153 319.531H939.728V336.688H952.153V319.531Z" fill="white"/>
<path d="M930.625 345.979H918.2V363.136H930.625V345.979Z" fill="white"/>
<path d="M952.153 345.979H939.728V363.136H952.153V345.979Z" fill="white"/>
<path d="M930.625 372.428H918.2V389.585H930.625V372.428Z" fill="white"/>
<path d="M952.153 372.428H939.728V389.585H952.153V372.428Z" fill="white"/>
<path d="M930.625 399.167H918.2V416.324H930.625V399.167Z" fill="white"/>
<path d="M952.153 399.167H939.728V416.324H952.153V399.167Z" fill="white"/>
<path d="M930.625 425.891H918.2V443.048H930.625V425.891Z" fill="white"/>
<path d="M952.153 425.891H939.728V443.048H952.153V425.891Z" fill="white"/>
<path d="M930.625 452.63H918.2V469.787H930.625V452.63Z" fill="white"/>
<path d="M952.153 452.63H939.728V469.787H952.153V452.63Z" fill="white"/>
<path d="M930.625 479.355H918.2V496.512H930.625V479.355Z" fill="white"/>
<path d="M952.153 479.355H939.728V496.512H952.153V479.355Z" fill="white"/>
<path d="M673.35 186.824H660.925V201.379H673.35V186.824Z" fill="white"/>
<path d="M694.877 186.824H682.452V201.379H694.877V186.824Z" fill="white"/>
<path d="M673.35 164.36H660.925V178.915H673.35V164.36Z" fill="white"/>
<path d="M694.877 164.36H682.452V178.915H694.877V164.36Z" fill="white"/>
<path d="M673.35 141.896H660.925V156.45H673.35V141.896Z" fill="white"/>
<path d="M694.877 141.896H682.452V156.45H694.877V141.896Z" fill="white"/>
<path d="M673.35 208.736H660.925V223.291H673.35V208.736Z" fill="white"/>
<path d="M694.877 208.736H682.452V223.291H694.877V208.736Z" fill="white"/>
<path d="M673.35 230.648H660.925V245.203H673.35V230.648Z" fill="white"/>
<path d="M694.877 230.648H682.452V245.203H694.877V230.648Z" fill="white"/>
<path d="M673.35 252.545H660.925V267.1H673.35V252.545Z" fill="white"/>
<path d="M694.877 252.545H682.452V267.1H694.877V252.545Z" fill="white"/>
<path d="M673.35 275.01H660.925V289.564H673.35V275.01Z" fill="white"/>
<path d="M694.877 275.01H682.452V289.564H694.877V275.01Z" fill="white"/>
<path d="M673.35 297.459H660.925V312.014H673.35V297.459Z" fill="white"/>
<path d="M694.877 297.459H682.452V312.014H694.877V297.459Z" fill="white"/>
<path d="M673.35 319.909H660.925V334.464H673.35V319.909Z" fill="white"/>
<path d="M694.877 319.909H682.452V334.464H694.877V319.909Z" fill="white"/>
<path d="M673.35 342.359H660.925V356.913H673.35V342.359Z" fill="white"/>
<path d="M694.877 342.359H682.452V356.913H694.877V342.359Z" fill="white"/>
<path d="M673.35 365.056H660.925V379.61H673.35V365.056Z" fill="white"/>
<path d="M694.877 365.056H682.452V379.61H694.877V365.056Z" fill="white"/>
<path d="M673.35 387.738H660.925V402.293H673.35V387.738Z" fill="white"/>
<path d="M694.877 387.738H682.452V402.293H694.877V387.738Z" fill="white"/>
<path d="M673.35 410.435H660.925V424.99H673.35V410.435Z" fill="white"/>
<path d="M694.877 410.435H682.452V424.99H694.877V410.435Z" fill="white"/>
<path d="M673.35 433.132H660.925V447.687H673.35V433.132Z" fill="white"/>
<path d="M694.877 433.132H682.452V447.687H694.877V433.132Z" fill="white"/>
<path d="M986.488 606.027H78.4976V621.411H986.488V606.027Z" fill="#C7C7C7"/>
<path d="M125.216 606.027C126.162 611.109 126.162 616.329 125.216 621.411C124.269 616.329 124.269 611.109 125.216 606.027Z" fill="#263238"/>
<path d="M179.531 606.027C180.477 611.109 180.477 616.329 179.531 621.411C178.584 616.329 178.584 611.109 179.531 606.027Z" fill="#263238"/>
<path d="M233.831 606.027C234.778 611.109 234.778 616.329 233.831 621.411C232.885 616.329 232.885 611.109 233.831 606.027Z" fill="#263238"/>
<path d="M288.132 606.027C288.629 608.559 288.867 611.137 288.842 613.719C288.88 616.302 288.642 618.881 288.132 621.411C287.622 618.881 287.384 616.302 287.422 613.719C287.398 611.137 287.636 608.559 288.132 606.027Z" fill="#263238"/>
<path d="M342.433 606.027C343.38 611.109 343.38 616.329 342.433 621.411C341.486 616.329 341.486 611.109 342.433 606.027Z" fill="#263238"/>
<path d="M396.734 606.027C397.681 611.109 397.681 616.329 396.734 621.411C395.787 616.329 395.787 611.109 396.734 606.027Z" fill="#263238"/>
<path d="M451.049 606.027C451.996 611.109 451.996 616.329 451.049 621.411C450.102 616.329 450.102 611.109 451.049 606.027Z" fill="#263238"/>
<path d="M505.35 606.027C505.846 608.559 506.084 611.137 506.06 613.719C506.09 616.301 505.852 618.88 505.35 621.411C504.84 618.881 504.602 616.302 504.64 613.719C504.609 611.136 504.847 608.558 505.35 606.027Z" fill="#263238"/>
<path d="M559.65 606.027C560.153 608.558 560.391 611.136 560.36 613.719C560.398 616.302 560.16 618.881 559.65 621.411C559.148 618.88 558.91 616.301 558.94 613.719C558.916 611.137 559.154 608.559 559.65 606.027Z" fill="#263238"/>
<path d="M613.951 606.027C614.898 611.109 614.898 616.329 613.951 621.411C613.004 616.329 613.004 611.109 613.951 606.027Z" fill="#263238"/>
<path d="M668.266 606.027C669.213 611.109 669.213 616.329 668.266 621.411C667.319 616.329 667.319 611.109 668.266 606.027Z" fill="#263238"/>
<path d="M722.567 606.027C723.514 611.109 723.514 616.329 722.567 621.411C721.62 616.329 721.62 611.109 722.567 606.027Z" fill="#263238"/>
<path d="M776.868 606.027C777.364 608.559 777.602 611.137 777.578 613.719C777.616 616.302 777.378 618.881 776.868 621.411C776.358 618.881 776.12 616.302 776.158 613.719C776.133 611.137 776.371 608.559 776.868 606.027Z" fill="#263238"/>
<path d="M831.169 606.027C832.115 611.109 832.115 616.329 831.169 621.411C830.222 616.329 830.222 611.109 831.169 606.027Z" fill="#263238"/>
<path d="M885.469 606.027C886.416 611.109 886.416 616.329 885.469 621.411C884.523 616.329 884.523 611.109 885.469 606.027Z" fill="#263238"/>
<path d="M939.784 606.027C940.731 611.109 940.731 616.329 939.784 621.411C938.838 616.329 938.838 611.109 939.784 606.027Z" fill="#263238"/>
<path d="M58.1206 621.498L176.719 621.134L295.317 621.003L532.5 620.771L769.683 621.003L888.281 621.134L1006.88 621.498L888.281 621.847L769.683 621.978L532.5 622.21L295.317 621.978L176.719 621.847L58.1206 621.498Z" fill="#263238"/>
<path d="M976.42 310.24H769.754V606.042H976.42V310.24Z" fill="#BB3E03"/>
<path opacity="0.1" d="M943.207 453.953H957.307V447.847H943.207V453.953Z" fill="black"/>
<path opacity="0.1" d="M951.073 446.247H965.174V440.14H951.073V446.247Z" fill="black"/>
<path opacity="0.1" d="M935.34 446.247H949.44V440.14H935.34V446.247Z" fill="black"/>
<path opacity="0.1" d="M920.373 358.934H906.272V365.041H920.373V358.934Z" fill="black"/>
<path opacity="0.1" d="M928.24 366.626H914.139V372.733H928.24V366.626Z" fill="black"/>
<path opacity="0.1" d="M781.256 446.247H795.356V440.14H781.256V446.247Z" fill="black"/>
<path opacity="0.1" d="M781.256 577.791H795.356V571.684H781.256V577.791Z" fill="black"/>
<path opacity="0.1" d="M773.389 570.084H787.489V563.978H773.389V570.084Z" fill="black"/>
<path opacity="0.1" d="M951.073 577.776H965.174V571.669H951.073V577.776Z" fill="black"/>
<path opacity="0.1" d="M890.454 501.848H876.353V507.955H890.454V501.848Z" fill="black"/>
<path opacity="0.1" d="M882.587 509.54H868.486V515.647H882.587V509.54Z" fill="black"/>
<path opacity="0.1" d="M803.237 323.893H789.137V330H803.237V323.893Z" fill="black"/>
<path opacity="0.1" d="M795.37 331.599H781.27V337.706H795.37V331.599Z" fill="black"/>
<path d="M980.212 599.862H765.962V606.027H980.212V599.862Z" fill="#BB3E03"/>
<path opacity="0.1" d="M980.212 599.862H765.962V606.027H980.212V599.862Z" fill="black"/>
<path d="M974.674 222.288H771.5L761.077 310.851H985.097L974.674 222.288Z" fill="#BB3E03"/>
<path opacity="0.6" d="M974.674 222.288H771.5L761.077 310.851H985.097L974.674 222.288Z" fill="black"/>
<g opacity="0.1">
<path d="M762.384 299.8L790.06 299.626L817.75 299.553L873.115 299.437L928.481 299.553L956.171 299.626L983.847 299.8L956.171 299.975L928.481 300.033L873.115 300.164L817.75 300.033L790.06 299.975L762.384 299.8Z" fill="black"/>
<path d="M763.676 288.75L791.039 288.575L818.389 288.503L873.087 288.386L927.785 288.503L955.149 288.575L982.498 288.75L955.149 288.924L927.785 288.982L873.087 289.113L818.389 288.982L791.039 288.924L763.676 288.75Z" fill="black"/>
<path d="M764.982 277.699L792.005 277.525L819.028 277.452L873.087 277.336L927.146 277.452L954.169 277.525L981.192 277.699L954.169 277.874L927.146 277.932L873.087 278.063L819.028 277.932L792.005 277.874L764.982 277.699Z" fill="black"/>
<path d="M766.275 266.649L792.985 266.46L819.681 266.402L873.087 266.286L926.493 266.402L953.189 266.46L979.899 266.649L953.189 266.824L926.493 266.882L873.087 266.998L819.681 266.882L792.985 266.824L766.275 266.649Z" fill="black"/>
<path d="M767.581 255.584L793.965 255.41L820.334 255.351L873.087 255.221L925.84 255.351L952.224 255.41L978.593 255.584L952.224 255.773L925.84 255.831L873.087 255.948L820.334 255.831L793.965 255.773L767.581 255.584Z" fill="black"/>
<path d="M768.887 244.534L794.93 244.359L820.987 244.301L873.087 244.17L925.187 244.301L951.244 244.359L977.301 244.534L951.244 244.723L925.187 244.781L873.087 244.897L820.987 244.781L794.93 244.723L768.887 244.534Z" fill="black"/>
<path d="M770.18 233.483L795.91 233.309L821.64 233.251L873.087 233.12L924.548 233.251L950.264 233.309L975.994 233.483L950.264 233.672L924.548 233.731L873.087 233.847L821.64 233.731L795.91 233.658L770.18 233.483Z" fill="black"/>
</g>
<path d="M894.898 491.656H851.276V593.377H894.898V491.656Z" fill="#263238"/>
<path d="M893.35 544.276H889.389V555.37H893.35V544.276Z" fill="#BB3E03"/>
<path opacity="0.32" d="M892.967 546.21C892.988 546.437 892.962 546.667 892.892 546.884C892.821 547.101 892.707 547.301 892.556 547.47C892.406 547.639 892.223 547.774 892.018 547.867C891.814 547.959 891.593 548.007 891.369 548.007C891.146 548.007 890.925 547.959 890.721 547.867C890.516 547.774 890.333 547.639 890.183 547.47C890.032 547.301 889.918 547.101 889.847 546.884C889.777 546.667 889.751 546.437 889.772 546.21C889.751 545.982 889.777 545.752 889.847 545.535C889.918 545.318 890.032 545.119 890.183 544.949C890.333 544.78 890.516 544.645 890.721 544.553C890.925 544.46 891.146 544.412 891.369 544.412C891.593 544.412 891.814 544.46 892.018 544.553C892.223 544.645 892.406 544.78 892.556 544.949C892.707 545.119 892.821 545.318 892.892 545.535C892.962 545.752 892.988 545.982 892.967 546.21Z" fill="black"/>
<path d="M870.176 497.355H856.927V510.761H870.176V497.355Z" fill="#C7C7C7"/>
<path d="M870.176 514.44H856.927V542.444H870.176V514.44Z" fill="#C7C7C7"/>
<path d="M870.176 546.108H856.927V580.539H870.176V546.108Z" fill="#C7C7C7"/>
<path d="M887.784 497.355H874.55V510.761H887.784V497.355Z" fill="#C7C7C7"/>
<path d="M887.784 514.44H874.55V542.444H887.784V514.44Z" fill="#C7C7C7"/>
<path d="M887.784 546.108H874.55V580.539H887.784V546.108Z" fill="#C7C7C7"/>
<path d="M917.916 599.164H828.258V605.94H917.916V599.164Z" fill="#DBDBDB"/>
<path d="M919.052 597.783H827.122V599.179H919.052V597.783Z" fill="#C7C7C7"/>
<path d="M911.938 591.007H834.25V597.783H911.938V591.007Z" fill="#DBDBDB"/>
<path d="M913.074 589.612H833.114V591.007H913.074V589.612Z" fill="#C7C7C7"/>
<path d="M828.726 386.226H790.514V345.878C790.514 340.69 792.526 335.714 796.107 332.044C799.688 328.374 804.546 326.311 809.613 326.307C814.682 326.307 819.544 328.369 823.128 332.039C826.713 335.709 828.726 340.687 828.726 345.878V386.226Z" fill="#263238"/>
<path d="M825.616 345.878V383.042H793.624V345.878C793.624 341.534 795.308 337.368 798.306 334.296C801.304 331.223 805.371 329.495 809.613 329.491C813.856 329.495 817.925 331.222 820.925 334.295C823.925 337.367 825.613 341.533 825.616 345.878Z" fill="#C7C7C7"/>
<g opacity="0.3">
<path d="M823.6 337.982L793.595 368.705V353.191L815.577 330.683C817.572 331.505 819.383 332.731 820.902 334.289C821.971 335.38 822.88 336.624 823.6 337.982Z" fill="white"/>
<path d="M825.616 363.355V378.854L821.527 383.042H806.375L825.616 363.355Z" fill="white"/>
<path d="M825.616 356.55V359.807L802.939 383.042H799.744L825.616 356.55Z" fill="white"/>
<path d="M813.149 329.898L793.624 349.891V345.878C793.623 344.996 793.694 344.115 793.837 343.246L807.071 329.694C807.912 329.561 808.762 329.493 809.613 329.491C810.803 329.492 811.989 329.629 813.149 329.898Z" fill="white"/>
</g>
<path d="M825.616 354.674H793.624V357.858H825.616V354.674Z" fill="#263238"/>
<path d="M811.175 383.027V329.491H808.065V383.027H811.175Z" fill="#263238"/>
<path opacity="0.1" d="M832.816 386.226H786.424V394.456H832.816V386.226Z" fill="black"/>
<path d="M892.2 386.226H853.988V345.878C853.988 340.69 856 335.714 859.581 332.044C863.162 328.374 868.02 326.311 873.087 326.307C878.156 326.307 883.018 328.369 886.602 332.039C890.187 335.709 892.2 340.687 892.2 345.878V386.226Z" fill="#263238"/>
<path d="M889.076 345.878V383.042H857.098V345.878C857.098 341.534 858.782 337.368 861.78 334.296C864.778 331.223 868.845 329.495 873.087 329.491C877.329 329.495 881.396 331.223 884.394 334.296C887.392 337.368 889.076 341.534 889.076 345.878Z" fill="#C7C7C7"/>
<g opacity="0.3">
<path d="M887.102 337.982L857.098 368.705V353.191L879.079 330.683C881.074 331.505 882.885 332.731 884.404 334.289C885.473 335.38 886.382 336.624 887.102 337.982Z" fill="white"/>
<path d="M889.09 363.355V378.854L885.001 383.042H869.849L889.09 363.355Z" fill="white"/>
<path d="M889.09 356.55V359.807L866.399 383.042H863.204L889.09 356.55Z" fill="white"/>
<path d="M876.623 329.898L857.098 349.891V345.878C857.097 344.996 857.168 344.115 857.311 343.246L870.545 329.695C871.386 329.561 872.236 329.493 873.087 329.491C874.277 329.492 875.463 329.629 876.623 329.898Z" fill="white"/>
</g>
<path d="M889.09 354.674H857.098V357.858H889.09V354.674Z" fill="#263238"/>
<path d="M874.649 383.027V329.491H871.539V383.027H874.649Z" fill="#263238"/>
<path opacity="0.1" d="M896.276 386.226H849.884V394.456H896.276V386.226Z" fill="black"/>
<path d="M853.605 263.261C853.608 257.973 855.663 252.903 859.316 249.165C862.969 245.427 867.922 243.327 873.087 243.327C875.645 243.325 878.178 243.839 880.542 244.84C882.905 245.841 885.053 247.309 886.862 249.16C888.672 251.012 890.107 253.21 891.086 255.629C892.065 258.049 892.569 260.642 892.569 263.261H853.605Z" fill="#BB3E03"/>
<path d="M887.699 290.538H858.475V263.029C858.475 259.061 860.015 255.255 862.755 252.449C865.495 249.643 869.212 248.067 873.087 248.067C876.962 248.067 880.679 249.643 883.419 252.449C886.159 255.255 887.699 259.061 887.699 263.029V290.538Z" fill="#263238"/>
<path d="M885.313 263.029V288.11H860.861V263.029C860.859 261.383 861.174 259.754 861.787 258.233C862.401 256.713 863.301 255.331 864.437 254.167C865.572 253.003 866.921 252.08 868.405 251.449C869.889 250.819 871.48 250.495 873.087 250.495C874.694 250.495 876.285 250.819 877.769 251.449C879.253 252.08 880.602 253.003 881.737 254.167C882.873 255.331 883.773 256.713 884.387 258.233C885 259.754 885.315 261.383 885.313 263.029Z" fill="#C7C7C7"/>
<g opacity="0.3">
<path d="M883.808 256.98L860.861 280.477V268.612L877.659 251.411C879.188 252.031 880.575 252.967 881.735 254.159C882.553 254.994 883.251 255.944 883.808 256.98Z" fill="white"/>
<path d="M885.313 276.391V288.11H873.868L885.313 276.391Z" fill="white"/>
<path d="M885.313 271.186V273.686L871.227 288.11H868.784L885.313 271.186Z" fill="white"/>
<path d="M875.785 250.8L860.861 266.082V263.029C860.862 262.352 860.914 261.676 861.017 261.008L871.142 250.655C871.785 250.55 872.435 250.497 873.087 250.495C873.994 250.499 874.899 250.602 875.785 250.8Z" fill="white"/>
</g>
<path d="M885.327 269.746H860.861V272.189H885.327V269.746Z" fill="#263238"/>
<path d="M874.266 288.11V250.495H871.88V288.11H874.266Z" fill="#263238"/>
<path d="M890.837 290.538H855.351V296.834H890.837V290.538Z" fill="#BB3E03"/>
<path opacity="0.1" d="M890.837 290.538H855.351V296.834H890.837V290.538Z" fill="black"/>
<path d="M916.212 263.261C916.212 260.642 916.716 258.049 917.696 255.629C918.675 253.21 920.11 251.012 921.919 249.16C923.729 247.309 925.877 245.841 928.24 244.84C930.604 243.839 933.137 243.325 935.695 243.327C938.251 243.327 940.783 243.843 943.145 244.844C945.507 245.846 947.653 247.314 949.461 249.166C951.269 251.017 952.703 253.214 953.681 255.633C954.659 258.051 955.163 260.643 955.163 263.261H916.212Z" fill="#BB3E03"/>
<path d="M950.307 290.538H921.083V263.029C921.081 261.063 921.458 259.117 922.191 257.301C922.925 255.485 924.001 253.835 925.359 252.445C926.716 251.055 928.327 249.953 930.101 249.202C931.874 248.451 933.775 248.065 935.695 248.067C939.57 248.067 943.287 249.643 946.027 252.449C948.767 255.255 950.307 259.061 950.307 263.029V290.538Z" fill="#263238"/>
<path d="M947.921 263.029V288.11H923.454V263.029C923.454 259.705 924.744 256.517 927.04 254.166C929.335 251.816 932.448 250.495 935.695 250.495C938.939 250.499 942.048 251.821 944.341 254.171C946.633 256.521 947.921 259.707 947.921 263.029Z" fill="#C7C7C7"/>
<g opacity="0.3">
<path d="M946.402 256.98L923.454 280.477V268.612L940.267 251.411C941.78 252.037 943.152 252.972 944.3 254.159C945.124 254.996 945.832 255.945 946.402 256.98Z" fill="white"/>
<path d="M947.921 276.391V288.11H936.476L947.921 276.391Z" fill="white"/>
<path d="M947.921 271.186V273.686L933.835 288.11H931.392L947.921 271.186Z" fill="white"/>
<path d="M938.393 250.8L923.454 266.082V263.029C923.454 262.351 923.511 261.675 923.625 261.008L933.749 250.655C934.388 250.551 935.034 250.497 935.681 250.495C936.593 250.499 937.502 250.602 938.393 250.8Z" fill="white"/>
</g>
<path d="M947.921 269.746H923.454V272.189H947.921V269.746Z" fill="#263238"/>
<path d="M936.873 288.11V250.495H934.488V288.11H936.873Z" fill="#263238"/>
<path d="M953.431 290.538H917.945V296.834H953.431V290.538Z" fill="#BB3E03"/>
<path opacity="0.1" d="M953.431 290.538H917.945V296.834H953.431V290.538Z" fill="black"/>
<path d="M790.145 263.261C790.145 260.643 790.648 258.051 791.627 255.633C792.605 253.214 794.039 251.017 795.847 249.166C797.655 247.314 799.801 245.846 802.163 244.844C804.525 243.843 807.056 243.327 809.613 243.327C812.171 243.325 814.704 243.839 817.067 244.84C819.431 245.841 821.579 247.309 823.388 249.16C825.198 251.012 826.633 253.21 827.612 255.629C828.591 258.049 829.095 260.642 829.095 263.261H790.145Z" fill="#BB3E03"/>
<path d="M824.225 290.538H795.001V263.029C795.001 259.061 796.541 255.255 799.281 252.449C802.021 249.643 805.738 248.067 809.613 248.067C811.532 248.065 813.433 248.451 815.207 249.202C816.98 249.953 818.592 251.055 819.949 252.445C821.306 253.835 822.383 255.485 823.116 257.301C823.85 259.117 824.227 261.063 824.225 263.029V290.538Z" fill="#263238"/>
<path d="M821.853 263.029V288.11H797.387V263.029C797.387 259.707 798.674 256.521 800.967 254.171C803.259 251.821 806.369 250.499 809.613 250.495C812.859 250.495 815.973 251.816 818.268 254.166C820.564 256.517 821.853 259.705 821.853 263.029Z" fill="#C7C7C7"/>
<g opacity="0.3">
<path d="M820.334 256.98L797.387 280.477V268.612L814.2 251.411C815.726 252.035 817.112 252.97 818.275 254.159C819.084 254.998 819.777 255.948 820.334 256.98Z" fill="white"/>
<path d="M821.839 276.391V288.11H810.394L821.839 276.391Z" fill="white"/>
<path d="M821.839 271.186V273.686L807.767 288.11H805.325L821.839 271.186Z" fill="white"/>
<path d="M812.325 250.8L797.387 266.082V263.029C797.388 262.352 797.441 261.676 797.543 261.008L807.668 250.655C808.311 250.55 808.962 250.497 809.613 250.495C810.525 250.5 811.434 250.602 812.325 250.8Z" fill="white"/>
</g>
<path d="M821.853 269.746H797.387V272.189H821.853V269.746Z" fill="#263238"/>
<path d="M810.806 288.11V250.495H808.42V288.11H810.806Z" fill="#263238"/>
<path d="M827.363 290.538H791.877V296.834H827.363V290.538Z" fill="#BB3E03"/>
<path opacity="0.1" d="M827.363 290.538H791.877V296.834H827.363V290.538Z" fill="black"/>
<path d="M955.66 386.226H917.448V345.878C917.448 340.687 919.462 335.709 923.046 332.039C926.63 328.369 931.492 326.307 936.561 326.307C941.628 326.311 946.486 328.374 950.067 332.044C953.648 335.714 955.66 340.69 955.66 345.878V386.226Z" fill="#263238"/>
<path d="M952.55 345.878V383.042H920.558V345.878C920.561 341.533 922.249 337.367 925.249 334.295C928.249 331.222 932.318 329.495 936.561 329.491C940.803 329.495 944.87 331.223 947.868 334.296C950.866 337.368 952.55 341.534 952.55 345.878Z" fill="#C7C7C7"/>
<g opacity="0.3">
<path d="M950.562 337.982L920.558 368.705V353.191L942.539 330.683C944.534 331.505 946.345 332.731 947.864 334.289C948.933 335.38 949.842 336.624 950.562 337.982Z" fill="white"/>
<path d="M952.55 363.355V378.854L948.461 383.042H933.323L952.55 363.355Z" fill="white"/>
<path d="M952.55 356.55V359.807L929.873 383.042H926.678L952.55 356.55Z" fill="white"/>
<path d="M940.04 329.898L920.515 349.891V345.878C920.514 344.996 920.585 344.115 920.728 343.246L933.962 329.695C934.803 329.561 935.653 329.493 936.504 329.491C937.694 329.492 938.88 329.629 940.04 329.898Z" fill="white"/>
</g>
<path d="M952.55 354.674H920.558V357.858H952.55V354.674Z" fill="#263238"/>
<path d="M938.109 383.042V329.506H934.999V383.042H938.109Z" fill="#263238"/>
<path opacity="0.1" d="M959.75 386.226H913.358V394.456H959.75V386.226Z" fill="black"/>
<path d="M828.726 468.9H790.514V428.537C790.514 423.351 792.526 418.377 796.108 414.709C799.69 411.042 804.548 408.981 809.613 408.981C814.68 408.981 819.539 411.041 823.123 414.708C826.707 418.375 828.722 423.349 828.726 428.537V468.9Z" fill="#263238"/>
<path d="M825.616 428.537V465.702H793.624V428.537C793.624 424.195 795.308 420.031 798.307 416.961C801.306 413.89 805.372 412.165 809.613 412.165C813.855 412.165 817.923 413.89 820.924 416.96C823.925 420.03 825.613 424.194 825.616 428.537Z" fill="#C7C7C7"/>
<g opacity="0.3">
<path d="M823.6 420.657L793.595 451.38V435.866L815.577 413.358C817.572 414.179 819.383 415.406 820.902 416.964C821.971 418.055 822.88 419.299 823.6 420.657Z" fill="white"/>
<path d="M825.616 446.014V461.529L821.527 465.702H806.375L825.616 446.014Z" fill="white"/>
<path d="M825.616 439.21V442.481L802.939 465.702H799.744L825.616 439.21Z" fill="white"/>
<path d="M813.149 412.573L793.624 432.565V428.552C793.623 427.67 793.694 426.79 793.837 425.92L807.071 412.369C807.912 412.235 808.762 412.167 809.613 412.165C810.803 412.167 811.989 412.303 813.149 412.573Z" fill="white"/>
</g>
<path d="M825.616 437.349H793.624V440.533H825.616V437.349Z" fill="#263238"/>
<path d="M811.175 465.702V412.165H808.065V465.702H811.175Z" fill="#263238"/>
<path opacity="0.1" d="M832.816 468.9H786.424V477.13H832.816V468.9Z" fill="black"/>
<path d="M892.2 468.9H853.988V428.537C853.988 423.351 856 418.377 859.582 414.709C863.164 411.042 868.022 408.981 873.087 408.981C878.154 408.981 883.013 411.041 886.597 414.708C890.181 418.375 892.196 423.349 892.2 428.537V468.9Z" fill="#263238"/>
<path d="M889.076 428.537V465.702H857.098V428.537C857.098 424.195 858.782 420.031 861.781 416.961C864.78 413.89 868.846 412.165 873.087 412.165C877.328 412.165 881.395 413.89 884.393 416.961C887.392 420.031 889.076 424.195 889.076 428.537Z" fill="#C7C7C7"/>
<g opacity="0.3">
<path d="M887.102 420.657L857.098 451.38V435.866L879.079 413.358C881.074 414.179 882.885 415.406 884.404 416.964C885.473 418.055 886.382 419.299 887.102 420.657Z" fill="white"/>
<path d="M889.09 446.014V461.529L885.001 465.702H869.849L889.09 446.014Z" fill="white"/>
<path d="M889.09 439.21V442.481L866.399 465.702H863.204L889.09 439.21Z" fill="white"/>
<path d="M876.623 412.573L857.098 432.565V428.552C857.097 427.67 857.168 426.79 857.311 425.92L870.545 412.369C871.386 412.235 872.236 412.167 873.087 412.165C874.277 412.167 875.463 412.303 876.623 412.573Z" fill="white"/>
</g>
<path d="M889.09 437.349H857.098V440.533H889.09V437.349Z" fill="#263238"/>
<path d="M874.635 465.702V412.165H871.525V465.702H874.635Z" fill="#263238"/>
<path opacity="0.1" d="M896.276 468.9H849.884V477.13H896.276V468.9Z" fill="black"/>
<path d="M955.66 468.9H917.448V428.537C917.452 423.349 919.467 418.375 923.051 414.708C926.635 411.041 931.494 408.981 936.561 408.981C941.626 408.981 946.484 411.042 950.066 414.709C953.648 418.377 955.66 423.351 955.66 428.537V468.9Z" fill="#263238"/>
<path d="M952.55 428.537V465.702H920.558V428.537C920.561 424.194 922.249 420.03 925.25 416.96C928.251 413.89 932.319 412.165 936.561 412.165C940.802 412.165 944.868 413.89 947.867 416.961C950.866 420.031 952.55 424.195 952.55 428.537Z" fill="#C7C7C7"/>
<g opacity="0.3">
<path d="M950.562 420.657L920.558 451.38V435.866L942.539 413.358C944.534 414.179 946.345 415.406 947.864 416.964C948.933 418.055 949.842 419.299 950.562 420.657Z" fill="white"/>
<path d="M952.55 446.014V461.529L948.461 465.702H933.323L952.55 446.014Z" fill="white"/>
<path d="M952.55 439.21V442.481L929.873 465.702H926.678L952.55 439.21Z" fill="white"/>
<path d="M940.04 412.573L920.558 432.565V428.552C920.557 427.67 920.628 426.79 920.771 425.92L934.005 412.369C934.846 412.235 935.696 412.167 936.547 412.165C937.722 412.17 938.894 412.306 940.04 412.573Z" fill="white"/>
</g>
<path d="M952.55 437.349H920.558V440.533H952.55V437.349Z" fill="#263238"/>
<path d="M938.109 465.702V412.165H934.999V465.702H938.109Z" fill="#263238"/>
<path opacity="0.1" d="M959.75 468.9H913.358V477.13H959.75V468.9Z" fill="black"/>
<path d="M828.726 551.56H790.514V511.212C790.514 506.025 792.526 501.051 796.108 497.383C799.69 493.716 804.548 491.656 809.613 491.656C814.68 491.656 819.539 493.715 823.123 497.383C826.707 501.05 828.722 506.024 828.726 511.212V551.56Z" fill="#263238"/>
<path d="M825.616 511.212V548.376H793.624V511.212C793.624 506.87 795.308 502.705 798.307 499.635C801.306 496.565 805.372 494.84 809.613 494.84C813.855 494.84 817.923 496.564 820.924 499.634C823.925 502.704 825.613 506.868 825.616 511.212Z" fill="#C7C7C7"/>
<g opacity="0.3">
<path d="M823.6 503.317L793.595 534.04V518.525L815.577 496.018C817.572 496.839 819.383 498.066 820.902 499.623C821.971 500.715 822.88 501.959 823.6 503.317Z" fill="white"/>
<path d="M825.616 528.689V544.189L821.527 548.376H806.375L825.616 528.689Z" fill="white"/>
<path d="M825.616 521.884V525.156L802.939 548.376H799.744L825.616 521.884Z" fill="white"/>
<path d="M813.149 495.232L793.624 515.225V511.212C793.623 510.33 793.694 509.45 793.837 508.58L807.071 495.029C807.912 494.895 808.762 494.827 809.613 494.825C810.803 494.826 811.989 494.963 813.149 495.232Z" fill="white"/>
</g>
<path d="M825.616 520.009H793.624V523.193H825.616V520.009Z" fill="#263238"/>
<path d="M811.175 548.376V494.84H808.065V548.376H811.175Z" fill="#263238"/>
<path opacity="0.1" d="M832.816 551.56H786.424V559.79H832.816V551.56Z" fill="black"/>
<path d="M955.66 551.56H917.448V511.212C917.452 506.024 919.467 501.05 923.051 497.383C926.635 493.715 931.494 491.656 936.561 491.656C941.626 491.656 946.484 493.716 950.066 497.383C953.648 501.051 955.66 506.025 955.66 511.212V551.56Z" fill="#263238"/>
<path d="M952.55 511.212V548.376H920.558V511.212C920.561 506.868 922.249 502.704 925.25 499.634C928.251 496.564 932.319 494.84 936.561 494.84C940.802 494.84 944.868 496.565 947.867 499.635C950.866 502.705 952.55 506.87 952.55 511.212Z" fill="#C7C7C7"/>
<g opacity="0.3">
<path d="M950.562 503.317L920.558 534.04V518.525L942.539 496.018C944.534 496.839 946.345 498.066 947.864 499.623C948.933 500.715 949.842 501.959 950.562 503.317Z" fill="white"/>
<path d="M952.55 528.689V544.189L948.461 548.376H933.323L952.55 528.689Z" fill="white"/>
<path d="M952.55 521.884V525.156L929.873 548.376H926.678L952.55 521.884Z" fill="white"/>
<path d="M940.04 495.232L920.515 515.225V511.212C920.514 510.33 920.585 509.45 920.728 508.58L933.962 495.029C934.803 494.895 935.653 494.827 936.504 494.825C937.694 494.826 938.88 494.963 940.04 495.232Z" fill="white"/>
</g>
<path d="M952.55 520.009H920.558V523.193H952.55V520.009Z" fill="#263238"/>
<path d="M938.123 548.376V494.84H935.013V548.376H938.123Z" fill="#263238"/>
<path opacity="0.1" d="M959.75 551.56H913.358V559.79H959.75V551.56Z" fill="black"/>
<path d="M755.866 166.032H579.658V172.197H755.866V166.032Z" fill="#C7C7C7"/>
<path d="M751.407 172.066H584.103V220.848H751.407V172.066Z" fill="#A6A6A6"/>
<path d="M605.971 193.847H591.87V199.954H605.971V193.847Z" fill="#C7C7C7"/>
<path d="M613.838 186.156H599.737V192.262H613.838V186.156Z" fill="#C7C7C7"/>
<path d="M605.971 193.847H591.87V199.954H605.971V193.847Z" fill="#C7C7C7"/>
<path d="M613.838 209.231H599.737V215.337H613.838V209.231Z" fill="#C7C7C7"/>
<path d="M698.044 209.231H683.943V215.337H698.044V209.231Z" fill="#C7C7C7"/>
<path d="M735.787 186.534H721.687V192.64H735.787V186.534Z" fill="#C7C7C7"/>
<path d="M727.92 178.958H713.82V185.065H727.92V178.958Z" fill="#C7C7C7"/>
<path d="M767.68 226.926H567.844V606.027H767.68V226.926Z" fill="#A6A6A6"/>
<path d="M770.762 599.848H564.635V606.013H770.762V599.848Z" fill="#A6A6A6"/>
<path d="M770.819 220.848H564.691V227.013H770.819V220.848Z" fill="#C7C7C7"/>
<path d="M598.09 579.608H583.989V585.715H598.09V579.608Z" fill="#C7C7C7"/>
<path d="M590.223 587.3H576.122V593.406H590.223V587.3Z" fill="#C7C7C7"/>
<path d="M605.971 587.3H591.87V593.406H605.971V587.3Z" fill="#C7C7C7"/>
<path d="M635.038 329.375H620.938V335.481H635.038V329.375Z" fill="#C7C7C7"/>
<path d="M627.171 337.066H613.071V343.173H627.171V337.066Z" fill="#C7C7C7"/>
<path d="M642.905 337.066H628.804V343.173H642.905V337.066Z" fill="#C7C7C7"/>
<path d="M751.521 587.3H737.42V593.406H751.521V587.3Z" fill="#C7C7C7"/>
<path d="M712.144 377.953H698.044V384.06H712.144V377.953Z" fill="#C7C7C7"/>
<path d="M751.521 239.547H737.42V245.653H751.521V239.547Z" fill="#C7C7C7"/>
<path d="M759.388 247.238H745.287V253.345H759.388V247.238Z" fill="#C7C7C7"/>
<path d="M590.223 239.561H576.122V245.668H590.223V239.561Z" fill="#C7C7C7"/>
<path d="M620.938 486.319H635.038V480.213H620.938V486.319Z" fill="#C7C7C7"/>
<path d="M628.804 478.642H642.905V472.535H628.804V478.642Z" fill="#C7C7C7"/>
<path d="M623.721 491.714H585.636V551.43H623.721V491.714Z" fill="white"/>
<path d="M620.611 494.898H588.732V548.26H620.611V494.898Z" fill="#C7C7C7"/>
<g opacity="0.3">
<path d="M619.716 494.898L588.732 526.624V502.735L596.4 494.898H619.716Z" fill="white"/>
<path d="M620.625 536.075V548.26H608.711L620.625 536.075Z" fill="white"/>
<path d="M620.625 525.606V530.637L603.429 548.26H598.516L620.625 525.606Z" fill="white"/>
<path d="M591.458 494.898L588.732 497.69V494.898H591.458Z" fill="white"/>
</g>
<path d="M620.611 511.59H588.732V514.76H620.611V511.59Z" fill="white"/>
<path d="M606.226 548.26V494.898H603.131V548.26H606.226Z" fill="white"/>
<path d="M749.902 491.714H711.818V551.43H749.902V491.714Z" fill="white"/>
<path d="M746.792 494.898H714.913V548.26H746.792V494.898Z" fill="#C7C7C7"/>
<g opacity="0.3">
<path d="M745.883 494.898L714.913 526.624V502.735L722.567 494.898H745.883Z" fill="white"/>
<path d="M746.806 536.075V548.26H734.878L746.806 536.075Z" fill="white"/>
<path d="M746.806 525.606V530.637L729.596 548.26H724.697L746.806 525.606Z" fill="white"/>
<path d="M717.64 494.898L714.913 497.69V494.898H717.64Z" fill="white"/>
</g>
<path d="M746.792 511.59H714.913V514.76H746.792V511.59Z" fill="white"/>
<path d="M732.408 548.26V494.898H729.312V548.26H732.408Z" fill="white"/>
<path d="M623.721 410.551H585.636V470.267H623.721V410.551Z" fill="white"/>
<path d="M620.611 413.721H588.732V467.083H620.611V413.721Z" fill="#C7C7C7"/>
<g opacity="0.3">
<path d="M619.716 413.721L588.732 445.447V421.573L596.4 413.721H619.716Z" fill="white"/>
<path d="M620.625 454.898V467.083H608.711L620.625 454.898Z" fill="white"/>
<path d="M620.625 444.444V449.475L603.429 467.083H598.516L620.625 444.444Z" fill="white"/>
<path d="M591.458 413.721L588.732 416.513V413.721H591.458Z" fill="white"/>
</g>
<path d="M620.611 430.428H588.732V433.597H620.611V430.428Z" fill="white"/>
<path d="M606.226 467.083V413.721H603.131V467.083H606.226Z" fill="white"/>
<path d="M749.902 410.551H711.818V470.267H749.902V410.551Z" fill="white"/>
<path d="M746.792 413.721H714.913V467.083H746.792V413.721Z" fill="#C7C7C7"/>
<g opacity="0.3">
<path d="M745.883 413.721L714.913 445.447V421.573L722.567 413.721H745.883Z" fill="white"/>
<path d="M746.806 454.898V467.083H734.878L746.806 454.898Z" fill="white"/>
<path d="M746.806 444.444V449.475L729.596 467.083H724.697L746.806 444.444Z" fill="white"/>
<path d="M717.64 413.721L714.913 416.513V413.721H717.64Z" fill="white"/>
</g>
<path d="M746.792 430.428H714.913V433.597H746.792V430.428Z" fill="white"/>
<path d="M732.408 467.097V413.736H729.312V467.097H732.408Z" fill="white"/>
<path d="M623.721 329.375H585.636V389.09H623.721V329.375Z" fill="white"/>
<path d="M620.611 332.559H588.732V385.921H620.611V332.559Z" fill="#C7C7C7"/>
<g opacity="0.3">
<path d="M619.716 332.559L588.732 364.285V340.41L596.4 332.559H619.716Z" fill="white"/>
<path d="M620.625 373.736V385.921H608.711L620.625 373.736Z" fill="white"/>
<path d="M620.625 363.267V368.298L603.429 385.921H598.516L620.625 363.267Z" fill="white"/>
<path d="M591.458 332.559L588.732 335.351V332.559H591.458Z" fill="white"/>
</g>
<path d="M620.611 349.251H588.732V352.421H620.611V349.251Z" fill="white"/>
<path d="M606.226 385.921V332.559H603.131V385.921H606.226Z" fill="white"/>
<path d="M749.902 329.375H711.818V389.09H749.902V329.375Z" fill="white"/>
<path d="M746.792 332.559H714.913V385.921H746.792V332.559Z" fill="#C7C7C7"/>
<g opacity="0.3">
<path d="M745.883 332.559L714.913 364.285V340.41L722.567 332.559H745.883Z" fill="white"/>
<path d="M746.806 373.736V385.921H734.878L746.806 373.736Z" fill="white"/>
<path d="M746.806 363.267V368.298L729.596 385.921H724.697L746.806 363.267Z" fill="white"/>
<path d="M717.64 332.559L714.913 335.351V332.559H717.64Z" fill="white"/>
</g>
<path d="M746.792 349.251H714.913V352.421H746.792V349.251Z" fill="white"/>
<path d="M732.408 385.921V332.559H729.312V385.921H732.408Z" fill="white"/>
<path d="M623.721 248.212H585.636V307.928H623.721V248.212Z" fill="white"/>
<path d="M620.611 251.382H588.732V304.744H620.611V251.382Z" fill="#C7C7C7"/>
<g opacity="0.3">
<path d="M619.716 251.382L588.732 283.108V259.234L596.4 251.382H619.716Z" fill="white"/>
<path d="M620.625 292.574V304.744H608.711L620.625 292.574Z" fill="white"/>
<path d="M620.625 282.105V287.136L603.429 304.744H598.516L620.625 282.105Z" fill="white"/>
<path d="M591.458 251.382L588.732 254.188V251.382H591.458Z" fill="white"/>
</g>
<path d="M620.611 268.089H588.732V271.258H620.611V268.089Z" fill="white"/>
<path d="M606.226 304.744V251.382H603.131V304.744H606.226Z" fill="white"/>
<path d="M686.811 248.212H648.727V307.928H686.811V248.212Z" fill="white"/>
<path d="M683.702 251.382H651.823V304.744H683.702V251.382Z" fill="#C7C7C7"/>
<g opacity="0.3">
<path d="M682.807 251.382L651.823 283.108V259.234L659.491 251.382H682.807Z" fill="white"/>
<path d="M683.716 292.574V304.744H671.802L683.716 292.574Z" fill="white"/>
<path d="M683.716 282.105V287.136L666.52 304.744H661.606L683.716 282.105Z" fill="white"/>
<path d="M654.549 251.382L651.823 254.188V251.382H654.549Z" fill="white"/>
</g>
<path d="M683.702 268.089H651.823V271.258H683.702V268.089Z" fill="white"/>
<path d="M669.317 304.758V251.397H666.221V304.758H669.317Z" fill="white"/>
<path d="M749.902 248.212H711.818V307.928H749.902V248.212Z" fill="white"/>
<path d="M746.792 251.382H714.913V304.744H746.792V251.382Z" fill="#C7C7C7"/>
<g opacity="0.3">
<path d="M745.883 251.382L714.913 283.108V259.234L722.567 251.382H745.883Z" fill="white"/>
<path d="M746.806 292.574V304.744H734.878L746.806 292.574Z" fill="white"/>
<path d="M746.806 282.105V287.136L729.596 304.744H724.697L746.806 282.105Z" fill="white"/>
<path d="M717.64 251.382L714.913 254.188V251.382H717.64Z" fill="white"/>
</g>
<path d="M746.792 268.089H714.913V271.258H746.792V268.089Z" fill="white"/>
<path d="M732.408 304.758V251.397H729.312V304.758H732.408Z" fill="white"/>
<path d="M686.811 329.375H648.727V389.09H686.811V329.375Z" fill="white"/>
<path d="M683.702 332.559H651.823V385.921H683.702V332.559Z" fill="#C7C7C7"/>
<g opacity="0.3">
<path d="M682.807 332.559L651.823 364.285V340.41L659.491 332.559H682.807Z" fill="white"/>
<path d="M683.716 373.736V385.921H671.802L683.716 373.736Z" fill="white"/>
<path d="M683.716 363.267V368.298L666.52 385.921H661.606L683.716 363.267Z" fill="white"/>
<path d="M654.549 332.559L651.823 335.351V332.559H654.549Z" fill="white"/>
</g>
<path d="M683.702 349.251H651.823V352.421H683.702V349.251Z" fill="white"/>
<path d="M669.317 385.921V332.559H666.221V385.921H669.317Z" fill="white"/>
<path d="M686.811 410.551H648.727V470.267H686.811V410.551Z" fill="white"/>
<path d="M683.702 413.721H651.823V467.083H683.702V413.721Z" fill="#C7C7C7"/>
<g opacity="0.3">
<path d="M682.807 413.721L651.823 445.447V421.573L659.491 413.721H682.807Z" fill="white"/>
<path d="M683.716 454.898V467.083H671.802L683.716 454.898Z" fill="white"/>
<path d="M683.716 444.444V449.475L666.52 467.083H661.606L683.716 444.444Z" fill="white"/>
<path d="M654.549 413.721L651.823 416.513V413.721H654.549Z" fill="white"/>
</g>
<path d="M683.702 430.428H651.823V433.597H683.702V430.428Z" fill="white"/>
<path d="M669.317 467.083V413.721H666.221V467.083H669.317Z" fill="white"/>
<path d="M667.769 491.714H633.874V605.998H667.769V491.714Z" fill="#263238"/>
<path d="M662.728 499.173H638.915V576.235H662.728V499.173Z" fill="#455A64"/>
<g opacity="0.1">
<path d="M662.714 499.173V505.948L638.915 540.277V524.007L656.125 499.173H662.714Z" fill="white"/>
<path d="M662.714 534.665V550.921L645.205 576.235H638.915V569.052L662.714 534.665Z" fill="white"/>
<path d="M662.714 527.526V530.957L638.915 565.359V561.913L662.714 527.526Z" fill="white"/>
<path d="M653.74 499.173L638.915 520.561V513.829L649.068 499.173H653.74Z" fill="white"/>
</g>
<path d="M665.881 551.022H664.233V563.876H665.881V551.022Z" fill="#A6A6A6"/>
<path d="M662.728 554.716H638.915V560.183H662.728V554.716Z" fill="#263238"/>
<path d="M667.755 606.013H701.65V491.728H667.755V606.013Z" fill="#263238"/>
<path d="M696.609 499.173H672.796V576.235H696.609V499.173Z" fill="#455A64"/>
<g opacity="0.1">
<path d="M696.609 499.173V505.948L672.796 540.277V524.007L690.021 499.173H696.609Z" fill="white"/>
<path d="M696.609 534.665V550.921L679.101 576.235H672.796V569.052L696.609 534.665Z" fill="white"/>
<path d="M696.609 527.526V530.957L672.796 565.359V561.913L696.609 527.526Z" fill="white"/>
<path d="M687.621 499.173L672.796 520.561V513.829L682.949 499.173H687.621Z" fill="white"/>
</g>
<path d="M669.644 563.861H671.291V551.008H669.644V563.861Z" fill="#A6A6A6"/>
<path d="M672.796 560.168H696.609V554.701H672.796V560.168Z" fill="#263238"/>
<path d="M564.734 242.484H278.902V605.94H564.734V242.484Z" fill="#455A64"/>
<path d="M312.4 572.033H298.299V578.139H312.4V572.033Z" fill="#37474F"/>
<path d="M304.533 579.724H290.433V585.831H304.533V579.724Z" fill="#37474F"/>
<path d="M320.267 579.724H306.166V585.831H320.267V579.724Z" fill="#37474F"/>
<path d="M545.337 579.724H531.236V585.831H545.337V579.724Z" fill="#37474F"/>
<path d="M545.337 482.408H531.236V488.515H545.337V482.408Z" fill="#37474F"/>
<path d="M553.204 490.114H539.103V496.221H553.204V490.114Z" fill="#37474F"/>
<path d="M304.533 482.423H290.433V488.529H304.533V482.423Z" fill="#37474F"/>
<path d="M477.106 328.284H463.005V334.391H477.106V328.284Z" fill="#37474F"/>
<path d="M438.794 527.933H452.895V521.826H438.794V527.933Z" fill="#37474F"/>
<path d="M446.661 520.241H460.762V514.134H446.661V520.241Z" fill="#37474F"/>
<path d="M375.618 309.818H389.719V303.712H375.618V309.818Z" fill="#37474F"/>
<path d="M383.485 302.127H397.586V296.02H383.485V302.127Z" fill="#37474F"/>
<path d="M382.051 431.445H396.152V425.339H382.051V431.445Z" fill="#37474F"/>
<path d="M389.932 439.137H404.033V433.03H389.932V439.137Z" fill="#37474F"/>
<path d="M374.184 439.137H388.285V433.03H374.184V439.137Z" fill="#37474F"/>
<path d="M298.299 369.956H312.4V363.849H298.299V369.956Z" fill="#37474F"/>
<path d="M290.433 377.647H304.533V371.541H290.433V377.647Z" fill="#37474F"/>
<path d="M539.117 369.956H553.218V363.849H539.117V369.956Z" fill="#37474F"/>
<path d="M569.25 599.862H274.401V605.94H569.25V599.862Z" fill="#37474F"/>
<path d="M443.935 491.656H400.312V593.377H443.935V491.656Z" fill="#263238"/>
<path d="M418.9 508.217L412.524 508.406L406.021 508.522H405.737V508.217V502.968V497.355H406.077H412.51C414.654 497.355 416.77 497.355 418.957 497.428H419.212V497.69V500.35V502.997L418.9 508.217ZM418.9 508.217L418.744 502.91V500.307V497.719L418.999 497.98L412.553 498.053H406.12L406.475 497.69V502.939V508.188L406.177 507.897L412.538 508.013L418.9 508.217Z" fill="#37474F"/>
<path d="M436.678 508.217L430.317 508.406L423.813 508.522H423.515V508.217V502.968V497.355H423.87H430.303C432.447 497.355 434.563 497.355 436.735 497.428H436.991V497.69V500.35V502.997L436.678 508.217ZM436.678 508.217L436.536 502.91L436.465 500.307V497.719L436.721 497.98L430.288 498.053H423.856L424.197 497.69V502.939V508.188L423.913 507.897L430.274 508.013L436.678 508.217Z" fill="#37474F"/>
<path d="M418.9 544.276L412.496 544.378C410.352 544.378 408.236 544.465 406.021 544.479H405.836V544.276L405.765 536.73C405.765 534.219 405.765 531.704 405.765 529.183V514.105V513.742H406.106H418.985H419.298V514.062C419.298 516.592 419.298 519.122 419.298 521.652L419.212 529.227L419.127 536.759L418.9 544.276ZM418.9 544.276L418.701 529.111L418.616 521.593C418.616 519.093 418.616 516.592 418.616 514.105L418.928 514.425H406.049L406.404 514.076V529.154C406.404 531.674 406.404 534.19 406.404 536.7L406.333 544.247L406.134 544.058L412.524 544.145L418.9 544.276Z" fill="#37474F"/>
<path d="M436.678 544.276L430.288 544.378C428.13 544.378 426.028 544.465 423.813 544.479H423.614V544.276L423.543 536.73C423.543 534.219 423.543 531.704 423.543 529.183V514.105V513.742H423.898H436.764H437.076V514.062C437.076 516.592 437.076 519.122 437.076 521.652L436.991 529.227L436.906 536.759L436.678 544.276ZM436.678 544.276L436.48 529.111L436.394 521.593C436.394 519.093 436.394 516.592 436.394 514.105L436.707 514.425H423.842L424.182 514.076V529.154C424.182 531.674 424.182 534.19 424.182 536.7L424.111 544.247L423.927 544.058L430.317 544.145L436.678 544.276Z" fill="#37474F"/>
<path d="M418.9 580.335L412.496 580.437C410.352 580.437 408.236 580.524 406.021 580.539H405.836V580.335L405.765 572.789C405.765 570.268 405.765 567.753 405.765 565.242V550.165V549.801H406.106H418.985H419.298V550.121C419.298 552.651 419.298 555.181 419.298 557.711L419.212 565.286L418.9 572.876V580.335ZM418.9 580.335L418.701 565.17L418.616 557.653C418.616 555.152 418.616 552.651 418.616 550.165L418.928 550.484H406.049L406.404 550.135V565.213C406.404 567.734 406.404 570.249 406.404 572.76L406.333 580.306L406.134 580.102C408.264 580.102 410.394 580.175 412.524 580.204L418.9 580.335Z" fill="#37474F"/>
<path d="M436.678 580.335L430.288 580.437C428.13 580.437 426.028 580.524 423.813 580.539H423.614V580.335L423.543 572.789C423.543 570.268 423.543 567.753 423.543 565.242V550.165V549.801H423.898H436.764H437.076V550.121C437.076 552.651 437.076 555.181 437.076 557.711L436.991 565.286L436.906 572.818L436.678 580.335ZM436.678 580.335L436.48 565.17L436.394 557.653C436.394 555.152 436.394 552.651 436.394 550.165L436.707 550.484H423.842L424.182 550.135V565.213C424.182 567.734 424.182 570.249 424.182 572.76L424.111 580.306L423.927 580.102C426.043 580.102 428.187 580.175 430.317 580.204L436.678 580.335Z" fill="#37474F"/>
<path d="M442.373 544.276H438.411V555.37H442.373V544.276Z" fill="#BB3E03"/>
<path opacity="0.32" d="M441.989 546.21C441.984 546.534 441.884 546.849 441.704 547.116C441.524 547.383 441.27 547.589 440.976 547.708C440.681 547.827 440.359 547.855 440.049 547.787C439.74 547.719 439.456 547.559 439.235 547.327C439.014 547.094 438.865 546.8 438.807 546.482C438.749 546.163 438.785 545.833 438.909 545.535C439.034 545.237 439.241 544.983 439.507 544.805C439.772 544.628 440.082 544.535 440.399 544.538C440.826 544.545 441.232 544.725 441.53 545.038C441.828 545.352 441.993 545.773 441.989 546.21Z" fill="black"/>
<path d="M466.953 599.164H377.294V605.94H466.953V599.164Z" fill="#DBDBDB"/>
<path d="M468.089 597.783H376.158V599.179H468.089V597.783Z" fill="#C7C7C7"/>
<path d="M460.96 591.007H383.272V597.783H460.96V591.007Z" fill="#DBDBDB"/>
<path d="M462.096 589.612H382.136V591.007H462.096V589.612Z" fill="#C7C7C7"/>
<path d="M560.261 168.126H283.389L269.189 274.355H574.461L560.261 168.126Z" fill="#37474F"/>
<path d="M270.964 261.095L308.68 260.92L346.409 260.862L421.854 260.731L497.312 260.862L535.028 260.92L572.757 261.095L535.028 261.269L497.312 261.342L421.854 261.458L346.409 261.342L308.68 261.269L270.964 261.095Z" fill="#263238"/>
<path d="M272.725 247.834L310 247.66L347.275 247.602L421.825 247.485L496.361 247.602L533.636 247.66L570.911 247.834L533.636 248.023L496.361 248.081L421.825 248.198L347.275 248.081L310 248.023L272.725 247.834Z" fill="#263238"/>
<path d="M274.5 234.588L311.335 234.414L348.17 234.341L421.825 234.225L495.481 234.341L532.315 234.414L569.136 234.588L532.315 234.763L495.481 234.821L421.825 234.952L348.17 234.821L311.335 234.763L274.5 234.588Z" fill="#263238"/>
<path d="M276.275 221.328L312.67 221.153L349.05 221.081L421.825 220.964L494.6 221.081L530.981 221.153L567.361 221.328L530.981 221.502L494.6 221.575L421.825 221.691L349.05 221.561L312.67 221.502L276.275 221.328Z" fill="#263238"/>
<path d="M278.05 208.067L313.99 207.893L349.931 207.835L421.825 207.704L493.706 207.835L529.646 207.893L565.6 208.067L529.646 208.242L493.706 208.315L421.825 208.431L349.931 208.315L313.99 208.242L278.05 208.067Z" fill="#263238"/>
<path d="M279.825 194.807L315.325 194.632L350.825 194.574L421.825 194.458L492.825 194.574L528.325 194.632L563.825 194.807L528.325 194.996L492.825 195.054L421.825 195.17L350.825 195.054L315.325 194.996L279.825 194.807Z" fill="#263238"/>
<path d="M281.6 181.561L316.646 181.386L351.706 181.314L421.825 181.197L491.931 181.314L526.99 181.386L562.05 181.561L526.99 181.735L491.931 181.794L421.825 181.924L351.706 181.794L316.646 181.735L281.6 181.561Z" fill="#263238"/>
<path d="M352.998 515.821V557.071H305.811V515.821C305.734 512.599 306.287 509.393 307.438 506.393C308.589 503.393 310.315 500.659 312.513 498.352C314.712 496.045 317.339 494.211 320.239 492.959C323.14 491.708 326.257 491.063 329.405 491.063C332.552 491.063 335.669 491.708 338.57 492.959C341.47 494.211 344.097 496.045 346.296 498.352C348.494 500.659 350.22 503.393 351.371 506.393C352.522 509.393 353.075 512.599 352.998 515.821Z" fill="#263238"/>
<path d="M350.286 515.821V554.294H308.523V515.821C308.451 512.966 308.937 510.126 309.954 507.466C310.97 504.807 312.497 502.383 314.443 500.338C316.389 498.293 318.716 496.667 321.285 495.557C323.855 494.447 326.616 493.875 329.405 493.875C332.193 493.875 334.954 494.447 337.524 495.557C340.093 496.667 342.42 498.293 344.366 500.338C346.312 502.383 347.839 504.807 348.855 507.466C349.872 510.126 350.358 512.966 350.286 515.821Z" fill="#C7C7C7"/>
<g opacity="0.3">
<path d="M347.275 504.785L308.538 544.45V530.245L340.388 497.631C343.212 499.415 345.574 501.869 347.275 504.785Z" fill="white"/>
<path d="M349.76 511.081L308.58 553.247V550.237L349.15 508.696C349.414 509.474 349.618 510.271 349.76 511.081Z" fill="white"/>
<path d="M331.371 494.534L308.538 517.929V515.821C308.533 514.415 308.666 513.012 308.935 511.634L325.336 494.84C326.674 494.571 328.034 494.434 329.397 494.433C330.079 494.433 330.732 494.476 331.371 494.534Z" fill="white"/>
</g>
<path d="M350.271 515.428H308.523V518.206H350.271V515.428Z" fill="#263238"/>
<path d="M323.164 515.443V493.575H320.451V515.443H323.164Z" fill="#263238"/>
<path d="M338.372 515.443V493.575H335.66V515.443H338.372Z" fill="#263238"/>
<path d="M357.343 557.071H301.452V567.016H357.343V557.071Z" fill="#EBEBEB"/>
<path d="M537.839 515.821V557.071H490.653V515.821C490.575 512.599 491.129 509.393 492.28 506.393C493.43 503.393 495.156 500.659 497.354 498.352C499.553 496.045 502.18 494.211 505.081 492.959C507.982 491.708 511.098 491.063 514.246 491.063C517.394 491.063 520.51 491.708 523.411 492.959C526.312 494.211 528.939 496.045 531.137 498.352C533.336 500.659 535.061 503.393 536.212 506.393C537.363 509.393 537.916 512.599 537.839 515.821Z" fill="#263238"/>
<path d="M535.113 515.821V554.294H493.365V515.821C493.365 513.014 493.905 510.235 494.954 507.642C496.003 505.048 497.54 502.692 499.479 500.707C501.417 498.723 503.718 497.148 506.251 496.074C508.783 495 511.498 494.447 514.239 494.447C516.98 494.447 519.694 495 522.227 496.074C524.759 497.148 527.061 498.723 528.999 500.707C530.937 502.692 532.475 505.048 533.524 507.642C534.573 510.235 535.113 513.014 535.113 515.821Z" fill="#C7C7C7"/>
<g opacity="0.3">
<path d="M532.117 504.785L493.365 544.45V530.245L525.215 497.631C528.043 499.414 530.41 501.868 532.117 504.785Z" fill="white"/>
<path d="M534.602 511.081L493.422 553.247V550.237L533.92 508.755C534.199 509.513 534.426 510.291 534.602 511.081Z" fill="white"/>
<path d="M516.213 494.534L493.365 517.929V515.821C493.367 514.415 493.5 513.013 493.762 511.634L510.163 494.84C511.506 494.571 512.871 494.435 514.239 494.433C514.906 494.433 515.559 494.476 516.213 494.534Z" fill="white"/>
</g>
<path d="M535.113 515.428H493.365V518.206H535.113V515.428Z" fill="#263238"/>
<path d="M508.005 515.428V493.56H505.293V515.428H508.005Z" fill="#263238"/>
<path d="M523.199 515.428V493.56H520.487V515.428H523.199Z" fill="#263238"/>
<path d="M542.184 557.071H486.293V567.016H542.184V557.071Z" fill="#EBEBEB"/>
<path d="M352.998 417.036V458.301H305.811V417.036C305.962 410.732 308.514 404.737 312.922 400.333C317.331 395.929 323.246 393.463 329.405 393.463C335.563 393.463 341.478 395.929 345.887 400.333C350.295 404.737 352.847 410.732 352.998 417.036Z" fill="#263238"/>
<path d="M350.286 417.036V455.524H308.523V417.036C308.665 411.462 310.928 406.165 314.828 402.274C318.729 398.383 323.959 396.206 329.405 396.206C334.85 396.206 340.08 398.383 343.981 402.274C347.881 406.165 350.144 411.462 350.286 417.036Z" fill="#C7C7C7"/>
<g opacity="0.3">
<path d="M347.275 406.015L308.538 445.68V431.474L340.388 398.861C343.212 400.645 345.574 403.098 347.275 406.015Z" fill="white"/>
<path d="M349.76 412.311L308.58 454.477V451.467L349.107 410.028C349.38 410.771 349.599 411.534 349.76 412.311Z" fill="white"/>
<path d="M331.371 395.764L308.538 419.145V417.036C308.533 415.635 308.666 414.237 308.935 412.863L325.336 396.07C326.673 395.793 328.034 395.657 329.397 395.662C330.057 395.659 330.716 395.693 331.371 395.764Z" fill="white"/>
</g>
<path d="M350.271 416.658H308.523V419.435H350.271V416.658Z" fill="#263238"/>
<path d="M323.164 416.673V394.805H320.451V416.673H323.164Z" fill="#263238"/>
<path d="M338.372 416.658V394.79H335.66V416.658H338.372Z" fill="#263238"/>
<path d="M357.343 458.301H301.452V468.246H357.343V458.301Z" fill="#EBEBEB"/>
<path d="M445.426 417.036V458.301H398.239V417.036C398.39 410.732 400.942 404.737 405.35 400.333C409.758 395.929 415.673 393.463 421.832 393.463C427.991 393.463 433.906 395.929 438.314 400.333C442.722 404.737 445.275 410.732 445.426 417.036Z" fill="#263238"/>
<path d="M442.699 417.036V455.524H400.951V417.036C400.951 411.368 403.15 405.931 407.065 401.923C410.98 397.914 416.289 395.662 421.825 395.662C427.361 395.662 432.671 397.914 436.585 401.923C440.5 405.931 442.699 411.368 442.699 417.036Z" fill="#C7C7C7"/>
<g opacity="0.3">
<path d="M439.703 406.015L400.951 445.68V431.474L432.802 398.861C435.63 400.644 437.997 403.098 439.703 406.015Z" fill="white"/>
<path d="M442.188 412.311L401.008 454.477V451.467L441.535 410.028C441.802 410.773 442.02 411.536 442.188 412.311Z" fill="white"/>
<path d="M423.799 395.764L400.951 419.145V417.036C400.953 415.635 401.087 414.238 401.349 412.863L417.75 396.07C419.091 395.794 420.457 395.658 421.825 395.662C422.484 395.66 423.143 395.694 423.799 395.764Z" fill="white"/>
</g>
<path d="M442.699 416.658H400.951V419.435H442.699V416.658Z" fill="#263238"/>
<path d="M415.591 416.658V394.79H412.879V416.658H415.591Z" fill="#263238"/>
<path d="M430.785 416.658V394.79H428.073V416.658H430.785Z" fill="#263238"/>
<path d="M449.771 458.301H393.88V468.246H449.771V458.301Z" fill="#EBEBEB"/>
<path d="M537.839 417.036V458.301H490.653V417.036C490.804 410.732 493.356 404.737 497.764 400.333C502.172 395.929 508.087 393.463 514.246 393.463C520.405 393.463 526.32 395.929 530.728 400.333C535.136 404.737 537.688 410.732 537.839 417.036Z" fill="#263238"/>
<path d="M535.113 417.036V455.524H493.365V417.036C493.365 411.368 495.564 405.931 499.479 401.923C503.393 397.914 508.703 395.662 514.239 395.662C519.775 395.662 525.084 397.914 528.999 401.923C532.914 405.931 535.113 411.368 535.113 417.036Z" fill="#C7C7C7"/>
<g opacity="0.3">
<path d="M532.117 406.015L493.365 445.68V431.474L525.215 398.861C528.043 400.644 530.41 403.098 532.117 406.015Z" fill="white"/>
<path d="M534.602 412.311L493.422 454.477V451.467L533.92 410.028C534.197 410.772 534.425 411.535 534.602 412.311Z" fill="white"/>
<path d="M516.213 395.764L493.365 419.145V417.036C493.367 415.635 493.5 414.238 493.762 412.863L510.163 396.07C511.505 395.794 512.87 395.658 514.239 395.662C514.898 395.66 515.557 395.694 516.213 395.764Z" fill="white"/>
</g>
<path d="M535.113 416.658H493.365V419.435H535.113V416.658Z" fill="#263238"/>
<path d="M508.005 416.658V394.79H505.293V416.658H508.005Z" fill="#263238"/>
<path d="M523.199 416.658V394.79H520.487V416.658H523.199Z" fill="#263238"/>
<path d="M542.184 458.301H486.293V468.246H542.184V458.301Z" fill="#EBEBEB"/>
<path d="M352.998 318.266V359.531H305.811V318.266C305.734 315.044 306.287 311.838 307.438 308.838C308.589 305.838 310.315 303.104 312.513 300.797C314.712 298.49 317.339 296.656 320.239 295.404C323.14 294.153 326.257 293.508 329.405 293.508C332.552 293.508 335.669 294.153 338.57 295.404C341.47 296.656 344.097 298.49 346.296 300.797C348.494 303.104 350.22 305.838 351.371 308.838C352.522 311.838 353.075 315.044 352.998 318.266Z" fill="#263238"/>
<path d="M350.286 318.266V356.753H308.523V318.266C308.665 312.692 310.928 307.395 314.828 303.504C318.729 299.613 323.959 297.435 329.405 297.435C334.85 297.435 340.08 299.613 343.981 303.504C347.881 307.395 350.144 312.692 350.286 318.266Z" fill="#C7C7C7"/>
<g opacity="0.3">
<path d="M347.275 307.245L308.538 346.91V332.704L340.388 300.091C343.212 301.874 345.574 304.328 347.275 307.245Z" fill="white"/>
<path d="M349.76 313.541L308.58 355.707V352.697L349.107 311.156C349.383 311.933 349.601 312.73 349.76 313.541Z" fill="white"/>
<path d="M331.371 296.994L308.538 320.374V318.266C308.533 316.865 308.666 315.467 308.935 314.093L325.336 297.299C326.673 297.023 328.034 296.887 329.397 296.892C330.057 296.889 330.716 296.923 331.371 296.994Z" fill="white"/>
</g>
<path d="M350.271 317.888H308.523V320.665H350.271V317.888Z" fill="#263238"/>
<path d="M323.164 317.903V296.034H320.451V317.903H323.164Z" fill="#263238"/>
<path d="M338.358 317.888V296.02H335.645V317.888H338.358Z" fill="#263238"/>
<path d="M357.343 359.531H301.452V369.476H357.343V359.531Z" fill="#EBEBEB"/>
<path d="M405.41 224.992H345.841C345.841 210.001 359.161 197.831 375.661 197.831C392.161 197.831 405.41 210.001 405.41 224.992Z" fill="#455A64"/>
<path d="M399.205 228.278V255.032H352.018V228.278C351.941 225.056 352.494 221.85 353.645 218.85C354.796 215.85 356.521 213.116 358.72 210.809C360.918 208.502 363.545 206.668 366.446 205.416C369.347 204.165 372.463 203.52 375.611 203.52C378.759 203.52 381.875 204.165 384.776 205.416C387.677 206.668 390.304 208.502 392.503 210.809C394.701 213.116 396.427 215.85 397.578 218.85C398.729 221.85 399.282 225.056 399.205 228.278Z" fill="#263238"/>
<path d="M396.492 228.278V252.225H354.744V228.278C354.747 226.872 354.88 225.47 355.142 224.09C355.951 219.946 357.94 216.139 360.859 213.151C363.778 210.162 367.495 208.125 371.543 207.297C372.886 207.028 374.25 206.892 375.618 206.89C376.286 206.89 376.939 206.89 377.592 206.991C380.788 207.292 383.87 208.353 386.595 210.088C389.417 211.879 391.782 214.331 393.496 217.242C394.238 218.495 394.848 219.826 395.314 221.212C395.588 221.976 395.81 222.758 395.981 223.552C396.325 225.103 396.496 226.688 396.492 228.278Z" fill="#C7C7C7"/>
<g opacity="0.3">
<path d="M393.496 217.271L359.26 252.254H354.688V242.731L386.538 210.118C389.384 211.897 391.77 214.351 393.496 217.271Z" fill="white"/>
<path d="M395.981 223.582L367.965 252.254H365.025L395.328 221.241C395.603 222.003 395.822 222.785 395.981 223.582Z" fill="white"/>
<path d="M377.592 207.021L354.744 230.415V228.278C354.747 226.872 354.88 225.47 355.142 224.09L371.543 207.297C372.886 207.028 374.25 206.892 375.618 206.89C376.3 206.919 376.939 206.962 377.592 207.021Z" fill="white"/>
</g>
<path d="M396.492 227.914H354.744V230.692H396.492V227.914Z" fill="#263238"/>
<path d="M369.37 227.929V206.061H366.658V227.929H369.37Z" fill="#263238"/>
<path d="M384.564 227.929V206.061H381.852V227.929H384.564Z" fill="#263238"/>
<path d="M403.564 255.032H347.673V264.977H403.564V255.032Z" fill="#EBEBEB"/>
<path d="M497.866 224.992H438.297C438.297 210.001 451.631 197.831 468.117 197.831C484.603 197.831 497.866 210.001 497.866 224.992Z" fill="#455A64"/>
<path d="M491.675 228.278V255.032H444.46V228.278C444.383 225.056 444.936 221.85 446.087 218.85C447.238 215.85 448.963 213.116 451.162 210.809C453.36 208.502 455.987 206.668 458.888 205.416C461.789 204.165 464.905 203.52 468.053 203.52C471.201 203.52 474.317 204.165 477.218 205.416C480.119 206.668 482.746 208.502 484.945 210.809C487.143 213.116 488.869 215.85 490.02 218.85C491.171 221.85 491.724 225.056 491.647 228.278H491.675Z" fill="#263238"/>
<path d="M488.963 228.278V252.225H447.215V228.278C447.21 226.872 447.343 225.469 447.612 224.09C448.421 219.946 450.41 216.139 453.329 213.151C456.248 210.162 459.966 208.125 464.013 207.297C465.351 207.028 466.711 206.891 468.075 206.89C468.742 206.89 469.409 206.89 470.048 206.991C473.299 207.301 476.433 208.391 479.196 210.172C481.959 211.953 484.274 214.375 485.952 217.242C486.705 218.492 487.319 219.823 487.784 221.212C488.06 221.974 488.278 222.756 488.437 223.552C488.792 225.101 488.969 226.687 488.963 228.278Z" fill="#C7C7C7"/>
<g opacity="0.3">
<path d="M485.952 217.271L451.773 252.254H447.201V242.731L479.051 210.118C481.876 211.904 484.242 214.357 485.952 217.271Z" fill="white"/>
<path d="M488.48 223.582L460.463 252.254H457.524L487.827 221.241C488.102 222.003 488.321 222.785 488.48 223.582Z" fill="white"/>
<path d="M470.02 207.021L447.186 230.415V228.278C447.182 226.872 447.315 225.469 447.584 224.09L463.985 207.297C465.323 207.028 466.683 206.891 468.046 206.89C468.742 206.919 469.409 206.962 470.02 207.021Z" fill="white"/>
</g>
<path d="M488.949 227.914H447.201V230.692H488.949V227.914Z" fill="#263238"/>
<path d="M461.841 227.929V206.061H459.129V227.929H461.841Z" fill="#263238"/>
<path d="M477.035 227.929V206.061H474.323V227.929H477.035Z" fill="#263238"/>
<path d="M496.02 255.032H440.129V264.977H496.02V255.032Z" fill="#EBEBEB"/>
<path d="M537.839 318.266V359.531H490.653V318.266C490.575 315.044 491.129 311.838 492.28 308.838C493.43 305.838 495.156 303.104 497.354 300.797C499.553 298.49 502.18 296.656 505.081 295.404C507.982 294.153 511.098 293.508 514.246 293.508C517.394 293.508 520.51 294.153 523.411 295.404C526.312 296.656 528.939 298.49 531.137 300.797C533.336 303.104 535.061 305.838 536.212 308.838C537.363 311.838 537.916 315.044 537.839 318.266Z" fill="#263238"/>
<path d="M535.113 318.266V356.753H493.365V318.266C493.365 312.597 495.564 307.161 499.479 303.152C503.393 299.144 508.703 296.892 514.239 296.892C519.775 296.892 525.084 299.144 528.999 303.152C532.914 307.161 535.113 312.597 535.113 318.266Z" fill="#C7C7C7"/>
<g opacity="0.3">
<path d="M532.117 307.245L493.365 346.91V332.704L525.215 300.091C528.043 301.874 530.41 304.328 532.117 307.245Z" fill="white"/>
<path d="M534.602 313.541L493.422 355.707V352.697L533.92 311.156C534.199 311.934 534.426 312.731 534.602 313.541Z" fill="white"/>
<path d="M516.213 296.994L493.365 320.374V318.266C493.367 316.865 493.5 315.468 493.762 314.093L510.163 297.299C511.505 297.024 512.87 296.887 514.239 296.892C514.898 296.89 515.557 296.923 516.213 296.994Z" fill="white"/>
</g>
<path d="M535.113 317.888H493.365V320.665H535.113V317.888Z" fill="#263238"/>
<path d="M508.005 317.888V296.02H505.293V317.888H508.005Z" fill="#263238"/>
<path d="M523.199 317.888V296.02H520.487V317.888H523.199Z" fill="#263238"/>
<path d="M542.184 359.531H486.293V369.476H542.184V359.531Z" fill="#EBEBEB"/>
<path d="M445.411 318.266V359.531H398.225V318.266C398.148 315.044 398.701 311.838 399.852 308.838C401.003 305.838 402.728 303.104 404.927 300.797C407.125 298.49 409.752 296.656 412.653 295.404C415.554 294.153 418.67 293.508 421.818 293.508C424.966 293.508 428.082 294.153 430.983 295.404C433.884 296.656 436.511 298.49 438.71 300.797C440.908 303.104 442.634 305.838 443.785 308.838C444.935 311.838 445.489 315.044 445.411 318.266Z" fill="#263238"/>
<path d="M442.699 318.266V356.753H400.951V318.266C400.951 315.459 401.491 312.68 402.54 310.087C403.589 307.493 405.127 305.137 407.065 303.152C409.003 301.168 411.304 299.593 413.837 298.519C416.37 297.445 419.084 296.892 421.825 296.892C424.566 296.892 427.281 297.445 429.813 298.519C432.346 299.593 434.647 301.168 436.585 303.152C438.524 305.137 440.061 307.493 441.11 310.087C442.159 312.68 442.699 315.459 442.699 318.266Z" fill="#C7C7C7"/>
<g opacity="0.3">
<path d="M439.703 307.245L400.951 346.91V332.704L432.802 300.091C435.626 301.878 437.993 304.331 439.703 307.245Z" fill="white"/>
<path d="M442.188 313.541L401.008 355.707V352.697L441.521 311.156C441.794 311.935 442.017 312.731 442.188 313.541Z" fill="white"/>
<path d="M423.799 296.994L400.951 320.374V318.266C400.953 316.865 401.087 315.468 401.349 314.093L417.75 297.299C419.091 297.024 420.457 296.887 421.825 296.892C422.484 296.89 423.143 296.923 423.799 296.994Z" fill="white"/>
</g>
<path d="M442.699 317.888H400.951V320.665H442.699V317.888Z" fill="#263238"/>
<path d="M415.577 317.888V296.02H412.865V317.888H415.577Z" fill="#263238"/>
<path d="M430.785 317.888V296.02H428.073V317.888H430.785Z" fill="#263238"/>
<path d="M449.771 359.531H393.88V369.476H449.771V359.531Z" fill="#EBEBEB"/>
<path d="M84.419 606.027H275.551V332.981L179.985 274.821L84.419 332.981V606.027Z" fill="#BB3E03"/>
<path opacity="0.1" d="M143.008 324.3H128.908V330.407H143.008V324.3Z" fill="black"/>
<path opacity="0.1" d="M135.141 316.594H121.041V322.701H135.141V316.594Z" fill="black"/>
<path opacity="0.1" d="M150.875 316.594H136.774V322.701H150.875V316.594Z" fill="black"/>
<path opacity="0.1" d="M267.372 347.099H253.271V353.206H267.372V347.099Z" fill="black"/>
<path opacity="0.1" d="M253.811 563.992H239.71V570.099H253.811V563.992Z" fill="black"/>
<path opacity="0.1" d="M261.678 556.3H247.577V562.407H261.678V556.3Z" fill="black"/>
<path opacity="0.1" d="M112.393 563.978H98.2924V570.084H112.393V563.978Z" fill="black"/>
<path opacity="0.1" d="M210.046 504.553H195.946V510.659H210.046V504.553Z" fill="black"/>
<path opacity="0.1" d="M103.163 378.709H89.0624V384.816H103.163V378.709Z" fill="black"/>
<path opacity="0.1" d="M128.908 456.149H143.008V450.042H128.908V456.149Z" fill="black"/>
<path opacity="0.1" d="M136.774 463.855H150.875V457.748H136.774V463.855Z" fill="black"/>
<path d="M79.4916 606.027H280.478V599.862H79.4916V606.027Z" fill="#BB3E03"/>
<path opacity="0.1" d="M79.4916 606.027H280.478V599.862H79.4916V606.027Z" fill="black"/>
<path d="M84.3906 494.825H275.565V488.66H84.3906V494.825Z" fill="#BB3E03"/>
<path opacity="0.1" d="M84.3906 480.896H275.565V474.731H84.3906V480.896Z" fill="black"/>
<path opacity="0.1" d="M84.3906 403.092H275.565V396.927H84.3906V403.092Z" fill="black"/>
<path opacity="0.1" d="M84.3906 364.329H275.565V358.164H84.3906V364.329Z" fill="black"/>
<path d="M279.57 341.559L179.985 280.956L80.4004 341.559L73.1442 329.069L179.985 264.046L286.826 329.069L279.57 341.559Z" fill="#37474F"/>
<path d="M146.274 491.743H98.5338V606.027H146.274V491.743Z" fill="#455A64"/>
<path d="M139.174 499.202H105.634V555.326H139.174V499.202Z" fill="#263238"/>
<path d="M139.174 499.202H105.634V500.467H139.174V499.202Z" fill="white"/>
<path d="M139.174 500.99H105.634V502.255H139.174V500.99Z" fill="white"/>
<path d="M139.174 502.779H105.634V504.044H139.174V502.779Z" fill="white"/>
<path d="M139.174 504.553H105.634V505.818H139.174V504.553Z" fill="white"/>
<path d="M139.174 506.341H105.634V507.606H139.174V506.341Z" fill="white"/>
<path d="M139.174 508.129H105.634V509.394H139.174V508.129Z" fill="white"/>
<path d="M139.174 509.918H105.634V511.183H139.174V509.918Z" fill="white"/>
<path d="M139.174 511.706H105.634V512.971H139.174V511.706Z" fill="white"/>
<path d="M139.174 513.495H105.634V514.76H139.174V513.495Z" fill="white"/>
<path d="M139.174 515.283H105.634V516.548H139.174V515.283Z" fill="white"/>
<path d="M139.174 517.071H105.634V518.336H139.174V517.071Z" fill="white"/>
<path d="M139.174 518.86H105.634V520.125H139.174V518.86Z" fill="white"/>
<path d="M139.174 520.648H105.634V521.913H139.174V520.648Z" fill="white"/>
<path d="M139.174 522.437H105.634V523.702H139.174V522.437Z" fill="white"/>
<path d="M139.174 524.225H105.634V525.49H139.174V524.225Z" fill="white"/>
<path d="M139.174 526.014H105.634V527.279H139.174V526.014Z" fill="white"/>
<path d="M139.174 527.802H105.634V529.067H139.174V527.802Z" fill="white"/>
<path d="M139.174 529.59H105.634V530.855H139.174V529.59Z" fill="white"/>
<path d="M139.174 531.379H105.634V532.644H139.174V531.379Z" fill="white"/>
<path d="M139.174 533.167H105.634V534.432H139.174V533.167Z" fill="white"/>
<path d="M139.174 534.941H105.634V536.206H139.174V534.941Z" fill="white"/>
<path d="M139.174 536.73H105.634V537.995H139.174V536.73Z" fill="white"/>
<path d="M139.174 538.518H105.634V539.783H139.174V538.518Z" fill="white"/>
<g opacity="0.1">
<path d="M139.16 499.202V505.963L105.634 540.306V524.036L129.887 499.202H139.16Z" fill="white"/>
<path d="M139.16 534.679V550.935L134.886 555.326H119.01L139.16 534.679Z" fill="white"/>
<path d="M139.16 527.555V530.986L115.389 555.326H112.038L139.16 527.555Z" fill="white"/>
<path d="M126.508 499.202L105.634 520.576V513.844L119.933 499.202H126.508Z" fill="white"/>
</g>
<path d="M133.75 561.666H108.616V567.685H133.75V561.666Z" fill="#263238"/>
<path d="M143.051 558.016H140.111V567.7H143.051V558.016Z" fill="#A6A6A6"/>
<path d="M105.634 596.489C105.52 594.846 105.478 593.203 105.407 591.56C105.336 589.917 105.293 588.259 105.236 586.616C105.151 583.33 105.108 580.03 105.066 576.744V576.177H105.634C108.147 576.177 110.675 576.177 113.202 576.177C115.73 576.177 118.243 576.177 120.771 576.177C123.299 576.177 125.812 576.278 128.34 576.366C129.603 576.366 130.867 576.453 132.117 576.511C133.366 576.569 134.644 576.613 135.908 576.7L132.117 576.889C130.867 576.889 129.603 577.005 128.34 577.034C125.812 577.122 123.284 577.18 120.771 577.209C118.258 577.238 115.716 577.282 113.202 577.282C110.689 577.282 108.147 577.282 105.634 577.282L106.188 576.715C106.188 580.001 106.102 583.301 106.017 586.587C106.017 588.23 105.932 589.888 105.847 591.531C105.762 593.174 105.733 594.846 105.634 596.489Z" fill="#37474F"/>
<path d="M139.16 576.744C139.259 578.387 139.316 580.03 139.387 581.687C139.458 583.345 139.487 584.973 139.543 586.616C139.629 589.917 139.671 593.203 139.714 596.489V597.071H139.16C136.604 597.071 134.062 597.071 131.506 597.071C128.95 597.071 126.408 597.071 123.867 597.071C121.325 597.071 118.769 596.969 116.213 596.896L112.393 596.736C111.115 596.736 109.837 596.634 108.559 596.547L112.393 596.358C113.657 596.358 114.935 596.242 116.213 596.213C118.769 596.125 121.311 596.082 123.867 596.038C126.423 595.995 128.964 595.966 131.506 595.966C134.048 595.966 136.604 595.966 139.16 595.966L138.592 596.533C138.592 593.247 138.677 589.961 138.762 586.66C138.762 585.017 138.862 583.374 138.933 581.731C139.004 580.088 139.075 578.387 139.16 576.744Z" fill="#37474F"/>
<path d="M109.979 592.767C109.809 590.717 109.695 588.666 109.61 586.616C109.61 585.599 109.61 584.566 109.51 583.548C109.411 582.531 109.51 581.498 109.439 580.466V579.928H109.993C111.853 579.928 113.728 579.928 115.673 579.928C117.619 579.928 119.408 579.928 121.282 580.001C123.157 580.073 125.017 580.088 126.877 580.175C128.737 580.262 130.626 580.364 132.486 580.524C130.626 580.684 128.751 580.8 126.877 580.873C125.003 580.946 123.142 581.018 121.282 581.062C119.422 581.106 117.533 581.062 115.673 581.062C113.813 581.062 111.924 581.062 109.993 581.062L110.519 580.51C110.519 581.542 110.519 582.56 110.519 583.592C110.519 584.624 110.519 585.642 110.419 586.66C110.249 588.666 110.135 590.717 109.979 592.767Z" fill="#37474F"/>
<path d="M134.9 580.466C135.056 582.516 135.17 584.566 135.255 586.616C135.34 588.666 135.397 590.717 135.425 592.767V593.305H134.9C133.011 593.305 131.123 593.305 129.22 593.305C127.317 593.305 125.443 593.305 123.54 593.305C121.637 593.305 119.763 593.203 117.86 593.13C115.957 593.058 114.083 592.927 112.18 592.767C114.073 592.602 115.967 592.486 117.86 592.418C119.753 592.35 121.647 592.292 123.54 592.243C125.429 592.243 127.317 592.243 129.22 592.171C131.123 592.098 132.997 592.171 134.9 592.171L134.36 592.709C134.36 590.654 134.417 588.603 134.531 586.558C134.545 584.508 134.659 582.516 134.9 580.466Z" fill="#37474F"/>
<g opacity="0.1">
<path d="M266.846 591.473C266.946 589.815 267.003 588.172 267.074 586.529C267.145 584.886 267.187 583.228 267.244 581.585C267.329 578.299 267.372 574.999 267.414 571.713V571.146H266.846C264.333 571.146 261.805 571.146 259.278 571.146C256.75 571.146 254.237 571.146 251.709 571.146C249.182 571.146 246.668 571.248 244.141 571.335C242.877 571.335 241.613 571.437 240.349 571.48L236.572 571.669C237.836 571.756 239.1 571.8 240.349 571.858C241.599 571.916 242.877 571.975 244.141 572.004C246.668 572.091 249.182 572.149 251.709 572.193C254.237 572.236 256.75 572.193 259.278 572.193C261.805 572.193 264.333 572.193 266.846 572.193L266.293 571.626C266.293 574.912 266.378 578.212 266.463 581.498C266.463 583.141 266.548 584.799 266.619 586.442C266.69 588.085 266.747 589.815 266.846 591.473Z" fill="black"/>
<path d="M233.306 571.713C233.207 573.356 233.15 574.999 233.079 576.656C233.008 578.314 232.965 579.942 232.923 581.585C232.837 584.886 232.781 588.172 232.752 591.473V592.04H233.32C235.876 592.04 238.418 592.04 240.974 592.04C243.53 592.04 246.072 592.04 248.614 591.967C251.155 591.894 253.711 591.88 256.267 591.793L260.087 591.633C261.365 591.633 262.643 591.531 263.907 591.458C262.643 591.371 261.365 591.313 260.087 591.269L256.267 591.109C253.711 591.022 251.17 590.978 248.614 590.935C246.058 590.891 243.516 590.862 240.974 590.862C238.432 590.862 235.876 590.862 233.32 590.862L233.874 591.444C233.874 588.143 233.789 584.857 233.704 581.556C233.704 579.913 233.618 578.27 233.547 576.627C233.476 574.984 233.405 573.356 233.306 571.713Z" fill="black"/>
</g>
<g opacity="0.1">
<path d="M262.501 587.736C262.586 585.686 262.643 583.636 262.686 581.585V578.518C262.686 577.485 262.686 576.467 262.686 575.435V575.173H262.416H256.736H251.127C249.267 575.173 247.392 575.173 245.447 575.261L239.838 575.435C241.712 575.508 243.587 575.58 245.447 575.61C247.307 575.639 249.196 575.697 251.127 575.697H256.736H262.416L262.16 575.435C262.16 576.467 262.16 577.485 262.16 578.518V581.585C262.359 583.636 262.43 585.686 262.501 587.736Z" fill="black"/>
<path d="M237.651 575.435C237.58 577.485 237.509 579.535 237.481 581.585C237.452 583.636 237.396 585.686 237.396 587.736V587.998H237.651H243.331H249.011C250.9 587.998 252.788 587.998 254.691 587.91C256.594 587.823 258.468 587.823 260.371 587.736C258.483 587.663 256.594 587.605 254.691 587.576C252.788 587.547 250.914 587.474 249.011 587.474H243.331H237.651L237.907 587.736C237.907 585.686 237.907 583.636 237.822 581.585C237.736 579.535 237.736 577.485 237.651 575.435Z" fill="black"/>
</g>
<g opacity="0.1">
<path d="M220.569 587.736C220.569 585.686 220.711 583.636 220.739 581.585V578.518C220.739 577.485 220.739 576.467 220.739 575.435V575.173H220.483H214.803H209.194C207.32 575.173 205.46 575.173 203.514 575.261C201.569 575.348 199.78 575.362 197.905 575.435C199.78 575.508 201.64 575.58 203.514 575.61C205.389 575.639 207.249 575.697 209.194 575.697H214.803H220.483L220.228 575.435C220.228 576.467 220.228 577.485 220.228 578.518V581.585C220.37 583.631 220.483 585.681 220.569 587.736Z" fill="black"/>
<path d="M195.719 575.435C195.648 577.485 195.577 579.535 195.548 581.585C195.52 583.636 195.463 585.686 195.463 587.736V587.998H195.719H201.399H207.079C208.967 587.998 210.856 587.998 212.759 587.91C214.661 587.823 216.536 587.823 218.439 587.736C216.55 587.663 214.661 587.605 212.759 587.576C210.856 587.547 208.981 587.474 207.079 587.474H201.399H195.719L195.974 587.736C195.974 585.686 195.974 583.636 195.889 581.585C195.804 579.535 195.79 577.485 195.719 575.435Z" fill="black"/>
</g>
<g opacity="0.1">
<path d="M224.914 591.473C225.013 589.815 225.07 588.172 225.141 586.529C225.212 584.886 225.255 583.228 225.297 581.585C225.382 578.299 225.439 574.999 225.468 571.713V571.146H224.914C222.386 571.146 219.859 571.146 217.345 571.146C214.832 571.146 212.29 571.146 209.777 571.146C207.263 571.146 204.721 571.248 202.194 571.335C200.944 571.335 199.68 571.437 198.417 571.48L194.625 571.669C195.889 571.756 197.153 571.8 198.417 571.858C199.68 571.916 200.944 571.975 202.194 572.004C204.721 572.091 207.249 572.149 209.777 572.193C212.304 572.236 214.818 572.193 217.345 572.193C219.873 572.193 222.386 572.193 224.914 572.193L224.346 571.626C224.346 574.912 224.431 578.212 224.516 581.498C224.516 583.141 224.601 584.799 224.687 586.442C224.772 588.085 224.814 589.815 224.914 591.473Z" fill="black"/>
<path d="M191.373 571.713C191.274 573.356 191.217 574.999 191.146 576.656C191.075 578.314 191.033 579.942 190.976 581.585C190.891 584.886 190.848 588.172 190.805 591.473V592.04H191.373C193.915 592.04 196.471 592.04 199.013 592.04C201.555 592.04 204.111 592.04 206.667 591.967C209.223 591.894 211.765 591.88 214.306 591.793L218.14 591.633L221.96 591.458C220.682 591.371 219.404 591.313 218.14 591.269L214.306 591.109C211.765 591.022 209.209 590.978 206.667 590.935C204.125 590.891 201.569 590.862 199.013 590.862C196.457 590.862 193.915 590.862 191.373 590.862L191.927 591.444C191.927 588.143 191.842 584.857 191.757 581.556C191.757 579.913 191.672 578.27 191.586 576.627C191.501 574.984 191.473 573.356 191.373 571.713Z" fill="black"/>
</g>
<g opacity="0.1">
<path d="M178.636 587.736C178.636 585.686 178.778 583.636 178.806 581.585V578.518C178.806 577.485 178.806 576.467 178.806 575.435V575.173H178.551H172.871H167.262C165.387 575.173 163.513 575.173 161.582 575.261C159.651 575.348 157.833 575.362 155.902 575.435C157.762 575.508 159.636 575.58 161.582 575.61C163.527 575.639 165.316 575.697 167.262 575.697H172.871H178.551L178.281 575.435C178.281 576.467 178.281 577.485 178.281 578.518V581.585C178.48 583.636 178.551 585.686 178.636 587.736Z" fill="black"/>
<path d="M153.786 575.435C153.701 577.485 153.63 579.535 153.601 581.585C153.573 583.636 153.516 585.686 153.516 587.736V587.998H153.786H159.466H165.146C167.035 587.998 168.923 587.998 170.826 587.91C172.729 587.823 174.603 587.823 176.506 587.736C174.617 587.663 172.729 587.605 170.826 587.576C168.923 587.547 167.049 587.474 165.146 587.474H159.466H153.786L154.042 587.736C154.042 585.686 154.042 583.636 153.956 581.585C153.871 579.535 153.857 577.485 153.786 575.435Z" fill="black"/>
</g>
<g opacity="0.1">
<path d="M182.967 591.473C183.066 589.815 183.123 588.172 183.194 586.529C183.265 584.886 183.308 583.228 183.365 581.585C183.45 578.299 183.492 574.999 183.521 571.713V571.146H182.953C180.425 571.146 177.912 571.146 175.384 571.146C172.857 571.146 170.343 571.146 167.816 571.146C165.288 571.146 162.775 571.248 160.247 571.335C158.983 571.335 157.719 571.437 156.456 571.48L152.678 571.669C153.942 571.756 155.206 571.8 156.456 571.858C157.705 571.916 158.983 571.975 160.247 572.004C162.775 572.091 165.288 572.149 167.816 572.193C170.343 572.236 172.857 572.193 175.384 572.193C177.912 572.193 180.425 572.193 182.953 572.193L182.399 571.626C182.399 574.912 182.484 578.212 182.569 581.498C182.569 583.141 182.655 584.799 182.726 586.442C182.797 588.085 182.868 589.815 182.967 591.473Z" fill="black"/>
<path d="M149.427 571.713C149.327 573.356 149.27 574.999 149.199 576.656C149.128 578.314 149.1 579.942 149.1 581.6C149.015 584.901 148.958 588.187 148.93 591.487V592.054H149.498C152.054 592.054 154.595 592.054 157.151 592.054C159.707 592.054 162.249 592.054 164.791 591.982C167.333 591.909 169.889 591.894 172.445 591.807L176.265 591.647C177.543 591.647 178.821 591.545 180.084 591.473C178.821 591.385 177.543 591.327 176.265 591.284L172.445 591.124C169.889 591.036 167.347 590.993 164.791 590.949C162.235 590.906 159.693 590.877 157.151 590.877C154.61 590.877 152.054 590.877 149.498 590.877L150.051 591.458C150.051 588.158 149.966 584.872 149.881 581.571C149.881 579.928 149.796 578.285 149.725 576.642C149.654 574.999 149.526 573.356 149.427 571.713Z" fill="black"/>
</g>
<path d="M216.678 552.607H255.501V491.743H216.678V552.607Z" fill="white"/>
<path d="M252.334 494.971H219.844V549.365H252.334V494.971Z" fill="#C7C7C7"/>
<g opacity="0.1">
<path d="M219.844 494.985V501.543L252.334 534.81V519.049L228.833 494.985H219.844Z" fill="white"/>
<path d="M219.844 529.358V545.119L223.991 549.365H239.384L219.844 529.358Z" fill="white"/>
<path d="M219.844 522.451V525.781L242.877 549.365H246.129L219.844 522.451Z" fill="white"/>
<path d="M232.099 494.985L252.334 515.69V509.176L238.475 494.985H232.099Z" fill="white"/>
</g>
<path d="M219.844 513.814H252.334V510.572H219.844V513.814Z" fill="white"/>
<path d="M160.574 552.607H199.396V491.743H160.574V552.607Z" fill="white"/>
<path d="M196.23 494.971H163.74V549.365H196.23V494.971Z" fill="#C7C7C7"/>
<g opacity="0.1">
<path d="M163.74 494.985V501.543L196.23 534.81V519.049L172.729 494.985H163.74Z" fill="white"/>
<path d="M163.74 529.358V545.119L167.887 549.365H183.279L163.74 529.358Z" fill="white"/>
<path d="M163.74 522.451V525.781L186.773 549.365H190.024L163.74 522.451Z" fill="white"/>
<path d="M175.995 494.985L196.23 515.69V509.176L182.371 494.985H175.995Z" fill="white"/>
</g>
<path d="M163.74 513.814H196.23V510.572H163.74V513.814Z" fill="white"/>
<path d="M216.678 474.746H255.501V413.881H216.678V474.746Z" fill="white"/>
<path d="M252.334 417.124H219.844V471.518H252.334V417.124Z" fill="#C7C7C7"/>
<g opacity="0.1">
<path d="M219.844 417.124V423.681L252.334 456.949V441.187L228.833 417.124H219.844Z" fill="white"/>
<path d="M219.844 451.511V467.257L223.991 471.503H239.384L219.844 451.511Z" fill="white"/>
<path d="M219.844 444.59V447.919L242.877 471.503H246.129L219.844 444.59Z" fill="white"/>
<path d="M232.099 417.124L252.334 437.843V431.315L238.475 417.124H232.099Z" fill="white"/>
</g>
<path d="M219.844 435.938H252.334V432.696H219.844V435.938Z" fill="white"/>
<path d="M104.469 474.746H143.292V413.881H104.469V474.746Z" fill="white"/>
<path d="M140.126 417.124H107.636V471.518H140.126V417.124Z" fill="#C7C7C7"/>
<g opacity="0.1">
<path d="M107.636 417.124V423.681L140.14 456.949V441.187L116.625 417.124H107.636Z" fill="white"/>
<path d="M107.636 451.511V467.257L111.782 471.503H127.175L107.636 451.511Z" fill="white"/>
<path d="M107.636 444.59V447.919L130.683 471.503H133.92L107.636 444.59Z" fill="white"/>
<path d="M119.905 417.124L140.14 437.843V431.315L126.266 417.124H119.905Z" fill="white"/>
</g>
<path d="M107.636 435.938H140.126V432.696H107.636V435.938Z" fill="white"/>
<path d="M160.574 474.746H199.396V413.881H160.574V474.746Z" fill="white"/>
<path d="M196.23 417.124H163.74V471.518H196.23V417.124Z" fill="#C7C7C7"/>
<g opacity="0.1">
<path d="M163.74 417.124V423.681L196.23 456.949V441.187L172.729 417.124H163.74Z" fill="white"/>
<path d="M163.74 451.511V467.257L167.887 471.503H183.279L163.74 451.511Z" fill="white"/>
<path d="M163.74 444.59V447.919L186.773 471.503H190.024L163.74 444.59Z" fill="white"/>
<path d="M175.995 417.124L196.23 437.843V431.315L182.371 417.124H175.995Z" fill="white"/>
</g>
<path d="M163.74 435.938H196.23V432.696H163.74V435.938Z" fill="white"/>
<path d="M216.678 396.884H255.501V374.827H216.678V396.884Z" fill="white"/>
<path d="M252.334 378.055H219.844V393.641H252.334V378.055Z" fill="#C7C7C7"/>
<g opacity="0.1">
<path d="M219.844 378.069V384.627L228.663 393.656H244.055L228.833 378.069H219.844Z" fill="white"/>
<path d="M232.099 378.069L247.321 393.656H252.334V392.26L238.475 378.069H232.099Z" fill="white"/>
</g>
<path d="M160.559 396.884H199.382V374.827H160.559V396.884Z" fill="white"/>
<path d="M196.216 378.055H163.726V393.641H196.216V378.055Z" fill="#C7C7C7"/>
<g opacity="0.1">
<path d="M163.726 378.069V384.627L172.544 393.656H187.937L172.715 378.069H163.726Z" fill="white"/>
<path d="M175.981 378.069L191.203 393.656H196.216V392.26L182.356 378.069H175.981Z" fill="white"/>
</g>
<path d="M104.441 396.884H143.264V374.827H104.441V396.884Z" fill="white"/>
<path d="M140.097 378.055H107.608V393.641H140.097V378.055Z" fill="#C7C7C7"/>
<g opacity="0.1">
<path d="M107.608 378.069V384.627L116.426 393.656H131.819L116.596 378.069H107.608Z" fill="white"/>
<path d="M119.862 378.069L135.085 393.656H140.097V392.26L126.238 378.069H119.862Z" fill="white"/>
</g>
<path d="M179.971 350.225C190.684 350.225 199.368 341.333 199.368 330.363C199.368 319.394 190.684 310.502 179.971 310.502C169.258 310.502 160.574 319.394 160.574 330.363C160.574 341.333 169.258 350.225 179.971 350.225Z" fill="white"/>
<path d="M179.971 346.648C188.754 346.648 195.875 339.357 195.875 330.363C195.875 321.37 188.754 314.079 179.971 314.079C171.187 314.079 164.067 321.37 164.067 330.363C164.067 339.357 171.187 346.648 179.971 346.648Z" fill="#C7C7C7"/>
<path d="M163.726 331.992H196.216V328.749H163.726V331.992Z" fill="white"/>
<path d="M181.547 347.026V313.744H178.38V347.026H181.547Z" fill="white"/>
<g opacity="0.1">
<path d="M168.653 318.935L191.132 341.966C194.009 339.07 195.7 335.16 195.861 331.032L179.318 314.064C175.286 314.234 171.471 315.977 168.653 318.935Z" fill="white"/>
<path d="M165.146 336.267C165.945 338.376 167.165 340.291 168.727 341.891C170.289 343.49 172.16 344.739 174.22 345.558L165.146 336.267Z" fill="white"/>
<path d="M182.839 314.355L195.619 327.441C195.038 324.189 193.504 321.196 191.221 318.858C188.938 316.521 186.015 314.95 182.839 314.355Z" fill="white"/>
</g>
<path d="M187.44 605.998H239.98C239.98 605.998 239.866 597.987 234.698 595.82C233.292 595.205 231.729 595.07 230.243 595.437C228.756 595.804 227.425 596.652 226.447 597.856C226.447 597.856 224.346 583.112 214.704 583.112C205.062 583.112 200.504 595.82 200.504 595.82C199.685 594.607 198.538 593.665 197.204 593.109C195.869 592.554 194.406 592.41 192.992 592.694C187.667 593.45 187.44 605.998 187.44 605.998Z" fill="#37474F"/>
<path d="M980.751 605.998C980.751 605.998 978.976 597.55 975.455 596.242C971.933 594.933 969.775 598.743 969.775 598.743C969.775 598.743 968.937 590.673 963.924 588.245C958.912 585.817 955.163 590.775 955.163 590.775C955.163 590.775 951.329 580.597 944.456 580.597C937.583 580.597 934.133 595.587 934.133 595.587C934.133 595.587 930.086 591.124 925.925 593.639C921.765 596.155 921.779 606.056 921.779 606.056L980.751 605.998Z" fill="#37474F"/>
<path d="M230.622 605.998H279.115C279.115 605.998 277.511 599.004 274.301 598.495C273.334 598.406 272.363 598.623 271.52 599.117C270.677 599.611 270.002 600.359 269.587 601.258C269.587 601.258 269.729 591.487 263.722 589.83C257.716 588.172 252.689 596.794 252.689 596.794C252.689 596.794 248.912 591.865 243.786 592.185C238.659 592.505 237.353 600.633 237.353 600.633C237.353 600.633 232.681 597.812 230.622 605.998Z" fill="#455A64"/>
<path d="M566.949 605.998H615.456C615.456 605.998 613.852 599.004 610.643 598.495C609.675 598.406 608.704 598.623 607.861 599.117C607.018 599.611 606.343 600.359 605.928 601.258C605.928 601.258 606.07 591.487 600.064 589.83C594.057 588.172 589.03 596.794 589.03 596.794C589.03 596.794 585.253 591.865 580.127 592.185C575.001 592.505 573.694 600.633 573.694 600.633C573.694 600.633 569.022 597.812 566.949 605.998Z" fill="#455A64"/>
<path d="M831.751 605.998H792.147C792.147 605.998 792.232 599.964 796.123 598.365C797.181 597.893 798.36 597.786 799.482 598.062C800.605 598.337 801.609 598.979 802.343 599.891C802.343 599.891 803.919 588.783 811.175 588.783C818.431 588.783 821.91 598.365 821.91 598.365C822.527 597.445 823.394 596.731 824.404 596.312C825.414 595.893 826.522 595.788 827.59 596.009C831.595 596.547 831.751 605.998 831.751 605.998Z" fill="#455A64"/>
</svg>
