<svg width="982" height="982" viewBox="0 0 982 982" fill="none" xmlns="http://www.w3.org/2000/svg">
<path d="M531.38 806.34V797.129L770.713 658.961L922.294 746.457V755.669L682.961 893.836L531.38 806.34Z" fill="#BB3E03"/>
<path d="M531.38 797.129L682.961 884.625L922.294 746.457L770.713 658.961L531.38 797.129Z" fill="#BB3E03"/>
<path opacity="0.15" d="M531.38 797.129L682.961 884.625V893.836L531.38 806.34V797.129Z" fill="black"/>
<path opacity="0.1" d="M682.961 884.625L922.294 746.457V755.669L682.961 893.836V884.625Z" fill="black"/>
<path d="M726.818 762.582L754.746 778.706V669.508L659.001 614.241L659.02 723.439L726.818 762.582Z" fill="#EBEBEB"/>
<path d="M746.772 668.467L850.491 693.606V688.991L746.772 663.871V668.467Z" fill="#37474F"/>
<path d="M651.046 608.565L746.772 663.871L850.491 688.991L754.765 633.704L651.046 608.565Z" fill="#455A64"/>
<path opacity="0.5" d="M651.046 608.565L746.772 663.871L850.491 688.991L754.765 633.704L651.046 608.565Z" fill="#37474F"/>
<path d="M651.046 608.565L746.772 663.871V668.467L651.046 613.18V608.565Z" fill="#263238"/>
<path d="M754.746 778.706L842.517 728.035V691.662L754.746 670.411V778.706Z" fill="#EBEBEB"/>
<path d="M754.746 675.793L842.517 697.063V691.662L754.746 670.411V675.793Z" fill="#E0E0E0"/>
<path d="M770.693 769.495V728.035L826.569 695.806V737.246L770.693 769.495Z" fill="#455A64"/>
<path opacity="0.5" d="M770.693 769.495V728.035L826.569 695.806V737.246L770.693 769.495Z" fill="#37474F"/>
<path d="M826.569 695.806L825.803 696.238V736.814L826.569 737.227V695.806Z" fill="#263238"/>
<path d="M825.784 736.834L770.693 768.631V769.495L826.569 737.246L825.784 736.834Z" fill="#37474F"/>
<path d="M682.962 857.011V691.191L579.243 631.308V797.129L682.962 857.011Z" fill="#EBEBEB"/>
<path d="M579.243 631.308V654.346L682.962 714.228V691.191L579.243 631.308Z" fill="#E0E0E0"/>
<path d="M603.184 677.207L587.217 668.015V787.76L603.184 796.972V677.207Z" fill="#455A64"/>
<path d="M588.493 787.034V668.742L603.184 677.207V795.499L588.493 787.034Z" fill="#FAFAFA"/>
<path d="M588.493 668.742L603.184 677.207V681.587L588.493 673.161V668.742Z" fill="#E0E0E0"/>
<path d="M587.217 787.76L588.493 787.034L603.184 795.499V796.972L587.217 787.76Z" fill="#37474F"/>
<path d="M659.02 714.228L627.105 695.786V732.651L659.02 751.073V714.228Z" fill="#455A64"/>
<path d="M628.382 731.924V696.533L659.02 714.228V749.6L628.382 731.924Z" fill="#FAFAFA"/>
<path d="M628.382 696.533V702.169L659.02 719.865V714.228L628.382 696.533Z" fill="#E0E0E0"/>
<path d="M627.105 732.651L628.382 731.924L659.02 749.6V751.073L627.105 732.651Z" fill="#37474F"/>
<path d="M641.776 704.271L643.053 704.997V741.862L641.776 741.135V704.271Z" fill="#455A64"/>
<path d="M643.053 704.997V741.862L644.349 741.115V705.744L643.053 704.997Z" fill="#37474F"/>
<path d="M659.02 778.706L627.105 760.284V797.129L659.02 815.551V778.706Z" fill="#455A64"/>
<path d="M628.382 796.402V761.011L659.02 778.706V814.078L628.382 796.402Z" fill="#FAFAFA"/>
<path d="M628.382 761.011V766.647L659.02 784.343V778.706L628.382 761.011Z" fill="#E0E0E0"/>
<path d="M627.105 797.129L628.382 796.402L659.02 814.078V815.551L627.105 797.129Z" fill="#37474F"/>
<path d="M641.776 768.749L643.053 769.495V806.34L641.776 805.613V768.749Z" fill="#455A64"/>
<path d="M643.053 769.495V806.34L644.349 805.613V770.222L643.053 769.495Z" fill="#37474F"/>
<path d="M682.961 691.191L762.739 608.29V810.955L682.961 857.011V691.191Z" fill="#FAFAFA"/>
<path d="M762.739 746.458L682.961 792.513V769.495L762.739 723.066V746.458Z" fill="#E0E0E0"/>
<path d="M682.961 703.053L762.739 620.447V608.29L682.961 691.191V703.053Z" fill="#F0F0F0"/>
<path d="M706.883 700.186L738.798 681.763V732.651L706.883 751.073V700.186Z" fill="#455A64"/>
<path d="M737.521 731.924V682.51L706.883 700.186V749.6L737.521 731.924Z" fill="#E6E6E6"/>
<path d="M737.521 682.51V688.146L706.883 705.822V700.186L737.521 682.51Z" fill="#E0E0E0"/>
<path d="M738.798 732.651L737.521 731.924L706.883 749.6V751.073L738.798 732.651Z" fill="#37474F"/>
<path d="M724.127 690.248L722.85 690.975V741.862L724.127 741.135V690.248Z" fill="#455A64"/>
<path d="M722.85 690.975V741.862L721.554 741.115V691.721L722.85 690.975Z" fill="#37474F"/>
<path d="M710.87 840.906V790.098L734.811 776.291V827.08L710.87 840.906Z" fill="#37474F"/>
<path d="M734.045 826.51V776.723L710.87 790.098V839.885L734.045 826.51Z" fill="#455A64"/>
<path d="M734.811 776.291L734.045 776.723V826.51L734.811 827.08V776.291Z" fill="#263238"/>
<path d="M682.961 764.88L762.739 718.824L778.687 728.035L698.909 774.091L682.961 764.88Z" fill="#E0E0E0"/>
<path d="M682.961 764.88V769.495L698.909 778.706V774.091L682.961 764.88Z" fill="#EBEBEB"/>
<path d="M698.909 774.091L778.687 728.035V732.651L698.909 778.706V774.091Z" fill="#F5F5F5"/>
<path d="M699.479 744.16V771.538C699.479 771.588 699.464 771.637 699.436 771.679C699.408 771.721 699.368 771.754 699.322 771.773C699.194 771.841 699.053 771.876 698.909 771.876C698.765 771.876 698.624 771.841 698.497 771.773C698.45 771.754 698.41 771.721 698.382 771.679C698.354 771.637 698.34 771.588 698.34 771.538V744.16H699.479Z" fill="#37474F"/>
<path d="M706.372 740.173V767.551C706.375 767.602 706.362 767.652 706.333 767.695C706.305 767.737 706.263 767.77 706.215 767.787C706.088 767.854 705.947 767.889 705.803 767.889C705.659 767.889 705.518 767.854 705.39 767.787C705.342 767.77 705.301 767.737 705.273 767.695C705.244 767.652 705.23 767.602 705.233 767.551V740.173H706.372Z" fill="#37474F"/>
<path d="M713.286 736.205V763.584C713.286 763.584 713.286 763.741 713.109 763.819C712.979 763.878 712.839 763.908 712.697 763.908C712.554 763.908 712.414 763.878 712.284 763.819C712.242 763.794 712.206 763.76 712.179 763.719C712.152 763.678 712.134 763.632 712.127 763.584V736.205H713.286Z" fill="#37474F"/>
<path d="M720.179 732.218V759.597C720.173 759.648 720.153 759.697 720.122 759.738C720.091 759.78 720.05 759.812 720.003 759.832C719.875 759.899 719.734 759.934 719.59 759.934C719.446 759.934 719.305 759.899 719.178 759.832C719.134 759.809 719.096 759.776 719.069 759.735C719.041 759.693 719.025 759.646 719.021 759.597V732.218H720.179Z" fill="#37474F"/>
<path d="M727.073 728.232V755.61C727.067 755.661 727.047 755.71 727.016 755.751C726.985 755.793 726.944 755.825 726.896 755.845C726.772 755.912 726.634 755.948 726.493 755.948C726.353 755.948 726.214 755.912 726.091 755.845C726.043 755.825 726.002 755.793 725.971 755.751C725.94 755.71 725.92 755.661 725.914 755.61V728.232H727.073Z" fill="#37474F"/>
<path d="M733.967 724.245V751.623C733.963 751.675 733.944 751.725 733.912 751.766C733.881 751.808 733.839 751.84 733.79 751.858C733.666 751.926 733.528 751.961 733.387 751.961C733.247 751.961 733.108 751.926 732.985 751.858C732.936 751.84 732.893 751.808 732.862 751.766C732.831 751.725 732.812 751.675 732.808 751.623V724.245H733.967Z" fill="#37474F"/>
<path d="M740.86 720.277V747.656C740.86 747.656 740.86 747.813 740.683 747.891C740.557 747.949 740.42 747.979 740.281 747.979C740.142 747.979 740.004 747.949 739.878 747.891C739.76 747.813 739.701 747.734 739.701 747.656V720.277H740.86Z" fill="#37474F"/>
<path d="M747.754 716.29V743.669C747.75 743.718 747.733 743.765 747.706 743.807C747.678 743.848 747.641 743.881 747.597 743.904C747.47 743.971 747.328 744.006 747.184 744.006C747.041 744.006 746.899 743.971 746.772 743.904C746.724 743.884 746.683 743.851 746.652 743.81C746.621 743.769 746.601 743.72 746.595 743.669V716.29H747.754Z" fill="#37474F"/>
<path d="M754.648 712.304V739.682C754.645 739.732 754.629 739.78 754.602 739.821C754.574 739.863 754.536 739.896 754.49 739.917C754.363 739.984 754.222 740.019 754.078 740.019C753.934 740.019 753.793 739.984 753.666 739.917C753.617 739.899 753.574 739.867 753.543 739.825C753.512 739.783 753.493 739.734 753.489 739.682V712.304H754.648Z" fill="#37474F"/>
<path d="M761.541 708.336V735.714C761.539 735.764 761.523 735.812 761.495 735.854C761.468 735.896 761.429 735.929 761.384 735.95C761.254 736.009 761.114 736.039 760.972 736.039C760.829 736.039 760.689 736.009 760.559 735.95C760.441 735.872 760.382 735.793 760.382 735.714V708.336H761.541Z" fill="#37474F"/>
<path d="M768.435 704.349V731.727C768.435 731.778 768.42 731.827 768.392 731.869C768.364 731.911 768.324 731.944 768.278 731.963C768.151 732.03 768.009 732.065 767.865 732.065C767.721 732.065 767.58 732.03 767.453 731.963C767.406 731.944 767.367 731.911 767.339 731.869C767.311 731.827 767.296 731.778 767.296 731.727V704.349H768.435Z" fill="#37474F"/>
<path d="M775.348 700.362V727.741C775.344 727.793 775.325 727.842 775.294 727.884C775.263 727.926 775.22 727.958 775.171 727.976C775.044 728.043 774.903 728.078 774.759 728.078C774.615 728.078 774.473 728.043 774.346 727.976C774.301 727.955 774.263 727.922 774.235 727.88C774.207 727.839 774.192 727.79 774.189 727.741V700.362H775.348Z" fill="#37474F"/>
<path d="M698.909 745.142C698.735 745.145 698.565 745.097 698.418 745.004L685.593 737.737C685.381 737.602 685.229 737.391 685.169 737.148C685.108 736.904 685.142 736.646 685.266 736.428C685.389 736.209 685.591 736.045 685.831 735.971C686.071 735.897 686.33 735.918 686.555 736.029L698.909 743.021L776.703 698.104L758.536 687.773C758.424 687.709 758.326 687.623 758.247 687.52C758.168 687.418 758.11 687.301 758.076 687.176C758.042 687.051 758.033 686.92 758.05 686.792C758.067 686.664 758.108 686.54 758.173 686.428C758.237 686.316 758.323 686.217 758.426 686.138C758.528 686.059 758.645 686.001 758.77 685.968C758.895 685.934 759.025 685.925 759.154 685.942C759.282 685.958 759.406 686 759.518 686.065L779.158 697.24C779.307 697.33 779.43 697.457 779.516 697.608C779.602 697.759 779.648 697.93 779.649 698.104C779.648 698.275 779.602 698.443 779.516 698.591C779.43 698.74 779.306 698.863 779.158 698.948L699.38 745.004C699.239 745.094 699.076 745.141 698.909 745.142Z" fill="#455A64"/>
<path d="M676.421 697.652L765.587 605.324V600.709L676.421 693.037V697.652Z" fill="#37474F"/>
<path d="M676.421 697.652L569.855 636.12V631.505L676.421 693.037V697.652Z" fill="#263238"/>
<path d="M659.02 539.197L765.587 600.709L676.421 693.037L569.855 631.505L659.02 539.197Z" fill="#455A64"/>
<path d="M826.569 737.246L882.406 769.495L826.569 801.744L770.693 769.495L826.569 737.246Z" fill="#F0F0F0"/>
<path d="M734.811 827.08L710.87 840.906L734.791 854.713L758.733 840.887L734.811 827.08Z" fill="#F0F0F0"/>
<path d="M760.795 815.708L764.193 813.744C765.127 808.221 765.259 802.592 764.585 797.03C762.877 786.17 755.492 782.438 752.801 783.518C750.111 784.598 749.482 787.8 754.333 794.084C758.734 800.421 760.998 807.996 760.795 815.708Z" fill="#BB3E03"/>
<g opacity="0.2">
<path d="M760.795 815.708L764.193 813.744C765.127 808.221 765.259 802.592 764.585 797.03C762.877 786.17 755.492 782.438 752.801 783.518C750.111 784.598 749.482 787.8 754.333 794.084C758.734 800.421 760.998 807.996 760.795 815.708Z" fill="black"/>
</g>
<path d="M762.032 811.387C761.999 811.385 761.967 811.376 761.938 811.36C761.909 811.345 761.883 811.324 761.863 811.298C761.843 811.272 761.828 811.242 761.82 811.21C761.812 811.178 761.811 811.145 761.816 811.112C763.23 800.958 759.125 789.823 754.549 785.325C754.527 785.303 754.51 785.277 754.498 785.248C754.486 785.22 754.48 785.189 754.48 785.158C754.48 785.127 754.486 785.096 754.498 785.068C754.51 785.039 754.527 785.013 754.549 784.991C754.599 784.95 754.661 784.927 754.726 784.927C754.791 784.927 754.853 784.95 754.903 784.991C759.577 789.567 763.741 800.88 762.307 811.211C762.303 811.241 762.292 811.271 762.275 811.297C762.258 811.323 762.236 811.345 762.21 811.362C762.184 811.379 762.155 811.39 762.124 811.394C762.093 811.398 762.062 811.396 762.032 811.387Z" fill="white"/>
<path d="M751.348 821.148C750.818 821.463 749.718 820.775 749.286 820.5C748.558 820.002 747.97 819.326 747.577 818.536C747.138 817.649 746.994 816.644 747.165 815.669C747.243 815.143 747.361 814.625 747.518 814.117C747.656 813.626 747.813 813.135 747.95 812.644C748.121 812.159 748.194 811.645 748.166 811.132C747.882 810.141 747.219 809.301 746.32 808.795C745.813 808.504 745.38 808.098 745.056 807.611C744.732 807.123 744.526 806.567 744.454 805.986C744.536 805.037 744.914 804.137 745.535 803.413C746.124 802.667 746.831 802.019 747.361 801.233C747.784 800.668 747.999 799.975 747.97 799.269C747.913 798.853 747.773 798.452 747.557 798.091C747.061 797.329 746.627 796.528 746.261 795.695C746.078 795.278 746.019 794.817 746.092 794.367C746.165 793.917 746.367 793.499 746.674 793.161C746.971 792.938 747.31 792.776 747.671 792.685C748.032 792.594 748.407 792.576 748.775 792.631C749.472 792.714 750.142 792.949 750.739 793.318C752.703 794.399 753.803 796.716 755.865 797.541C756.683 797.795 757.516 797.998 758.359 798.15C758.782 798.231 759.183 798.398 759.538 798.642C759.893 798.885 760.194 799.199 760.422 799.564C761.188 801.076 759.774 802.942 760.304 804.553C760.834 806.163 762.15 806.517 762.936 807.793C763.247 808.362 763.371 809.015 763.289 809.659C763.231 810.747 762.964 811.814 762.504 812.801C762.005 813.792 761.434 814.744 760.795 815.649L751.348 821.148Z" fill="#BB3E03"/>
<g opacity="0.1">
<path d="M751.348 821.148C750.818 821.463 749.718 820.775 749.286 820.5C748.558 820.002 747.97 819.326 747.577 818.536C747.138 817.649 746.994 816.644 747.165 815.669C747.243 815.143 747.361 814.625 747.518 814.117C747.656 813.626 747.813 813.135 747.95 812.644C748.121 812.159 748.194 811.645 748.166 811.132C747.882 810.141 747.219 809.301 746.32 808.795C745.813 808.504 745.38 808.098 745.056 807.611C744.732 807.123 744.526 806.567 744.454 805.986C744.536 805.037 744.914 804.137 745.535 803.413C746.124 802.667 746.831 802.019 747.361 801.233C747.784 800.668 747.999 799.975 747.97 799.269C747.913 798.853 747.773 798.452 747.557 798.091C747.061 797.329 746.627 796.528 746.261 795.695C746.078 795.278 746.019 794.817 746.092 794.367C746.165 793.917 746.367 793.499 746.674 793.161C746.971 792.938 747.31 792.776 747.671 792.685C748.032 792.594 748.407 792.576 748.775 792.631C749.472 792.714 750.142 792.949 750.739 793.318C752.703 794.399 753.803 796.716 755.865 797.541C756.683 797.795 757.516 797.998 758.359 798.15C758.782 798.231 759.183 798.398 759.538 798.642C759.893 798.885 760.194 799.199 760.422 799.564C761.188 801.076 759.774 802.942 760.304 804.553C760.834 806.163 762.15 806.517 762.936 807.793C763.247 808.362 763.371 809.015 763.289 809.659C763.231 810.747 762.964 811.814 762.504 812.801C762.005 813.792 761.434 814.744 760.795 815.649L751.348 821.148Z" fill="black"/>
</g>
<path d="M756.867 818.202C756.804 818.202 756.744 818.178 756.7 818.133C756.656 818.089 756.631 818.029 756.631 817.967C757.024 808.343 752.507 797.718 749.207 794.634C749.184 794.612 749.165 794.586 749.152 794.557C749.139 794.528 749.132 794.496 749.131 794.465C749.13 794.433 749.136 794.401 749.147 794.371C749.158 794.341 749.176 794.314 749.197 794.291C749.219 794.267 749.246 794.249 749.275 794.236C749.304 794.223 749.335 794.215 749.367 794.215C749.399 794.214 749.431 794.219 749.461 794.23C749.491 794.242 749.518 794.259 749.541 794.281C752.9 797.423 757.515 808.225 757.122 817.986C757.113 818.047 757.082 818.102 757.035 818.142C756.988 818.182 756.928 818.203 756.867 818.202Z" fill="white"/>
<path d="M755.433 806.85C753.156 806.229 750.818 805.854 748.461 805.731C748.428 805.731 748.396 805.724 748.366 805.711C748.336 805.698 748.309 805.679 748.287 805.655C748.265 805.631 748.248 805.603 748.237 805.572C748.227 805.541 748.222 805.508 748.225 805.476C748.225 805.443 748.232 805.411 748.245 805.381C748.258 805.351 748.277 805.324 748.301 805.302C748.325 805.279 748.353 805.263 748.384 805.252C748.415 805.241 748.448 805.237 748.481 805.24C750.886 805.365 753.27 805.754 755.59 806.399C755.62 806.408 755.647 806.422 755.671 806.442C755.695 806.462 755.715 806.486 755.73 806.513C755.744 806.541 755.754 806.571 755.757 806.602C755.76 806.632 755.756 806.664 755.747 806.693C755.721 806.752 755.676 806.8 755.619 806.829C755.561 806.857 755.496 806.865 755.433 806.85Z" fill="white"/>
<path d="M911.108 719.145L905.054 731.072L906.035 731.57L912.088 719.643L911.108 719.145Z" fill="#455A64"/>
<path d="M899.91 718.214L898.975 718.793L904.877 728.328L905.813 727.749L899.91 718.214Z" fill="#455A64"/>
<path d="M906.484 717.155V745.908C906.471 745.987 906.439 746.062 906.392 746.127C906.344 746.192 906.281 746.245 906.209 746.281C906.007 746.378 905.786 746.429 905.561 746.429C905.337 746.429 905.115 746.378 904.913 746.281C904.844 746.244 904.784 746.19 904.74 746.125C904.695 746.06 904.667 745.986 904.658 745.908V717.155H906.484Z" fill="#455A64"/>
<path d="M928.206 708.199C928.206 710.841 927.422 713.424 925.954 715.621C924.486 717.817 922.399 719.529 919.957 720.539C917.516 721.549 914.829 721.813 912.238 721.296C909.647 720.779 907.267 719.505 905.4 717.635C903.533 715.766 902.263 713.384 901.75 710.792C901.237 708.2 901.504 705.514 902.518 703.074C903.532 700.634 905.247 698.55 907.445 697.085C909.644 695.62 912.228 694.84 914.87 694.844C916.623 694.844 918.359 695.189 919.978 695.861C921.598 696.532 923.068 697.516 924.307 698.756C925.546 699.997 926.528 701.469 927.197 703.089C927.866 704.71 928.209 706.446 928.206 708.199Z" fill="#BB3E03"/>
<path opacity="0.2" d="M919.152 704.781C920.861 699.361 922.707 697.24 921.548 696.572C919.336 695.32 916.813 694.724 914.275 694.856C911.737 694.988 909.289 695.841 907.219 697.315C905.149 698.79 903.542 700.825 902.588 703.18C901.634 705.536 901.372 708.115 901.833 710.615C902.294 713.114 903.459 715.43 905.19 717.291C906.922 719.152 909.148 720.48 911.608 721.119C914.068 721.758 916.659 721.682 919.077 720.9C921.496 720.118 923.64 718.662 925.26 716.703C921.214 717.862 916.815 711.813 919.152 704.781Z" fill="black"/>
<path d="M903.204 711.989C903.204 713.847 902.653 715.663 901.621 717.207C900.588 718.751 899.121 719.955 897.404 720.664C895.688 721.374 893.799 721.559 891.978 721.195C890.156 720.832 888.483 719.935 887.171 718.621C885.859 717.306 884.966 715.631 884.606 713.809C884.246 711.986 884.435 710.098 885.149 708.383C885.862 706.668 887.069 705.203 888.615 704.174C890.161 703.145 891.978 702.597 893.836 702.601C895.068 702.601 896.288 702.844 897.426 703.316C898.564 703.788 899.597 704.48 900.467 705.352C901.338 706.224 902.027 707.259 902.497 708.398C902.966 709.537 903.207 710.757 903.204 711.989Z" fill="#BB3E03"/>
<path opacity="0.2" d="M893.836 702.601C891.862 702.594 889.937 703.213 888.337 704.369C888.101 710.104 892.952 715.682 891.597 717.567C890.242 719.452 886.883 718.294 885.705 716.703C886.534 718.119 887.721 719.292 889.146 720.106C890.571 720.919 892.185 721.344 893.826 721.338C895.467 721.332 897.077 720.894 898.496 720.07C899.915 719.246 901.092 718.063 901.91 716.641C902.729 715.218 903.159 713.606 903.158 711.965C903.157 710.324 902.725 708.712 901.906 707.291C901.086 705.869 899.908 704.688 898.488 703.865C897.068 703.042 895.457 702.606 893.816 702.601H893.836Z" fill="black"/>
<path d="M905.561 719.079C915.074 719.079 922.785 711.368 922.785 701.855C922.785 692.342 915.074 684.631 905.561 684.631C896.048 684.631 888.337 692.342 888.337 701.855C888.337 711.368 896.048 719.079 905.561 719.079Z" fill="#BB3E03"/>
<path opacity="0.1" d="M922.314 705.803C921.656 708.583 920.317 711.156 918.416 713.289C916.515 715.421 914.113 717.047 911.427 718.02C908.74 718.992 905.854 719.28 903.028 718.858C900.203 718.435 897.527 717.316 895.242 715.601C892.957 713.885 891.136 711.628 889.942 709.032C888.748 706.437 888.219 703.585 888.403 700.734C888.587 697.883 889.478 695.122 890.996 692.702C892.513 690.282 894.61 688.277 897.096 686.87C895.641 687.728 894.318 688.793 893.168 690.032C892.319 693.709 892.704 697.564 894.261 701.002C895.819 704.44 898.465 707.27 901.789 709.057C905.114 710.843 908.935 711.487 912.661 710.888C916.388 710.289 919.814 708.482 922.412 705.744L922.314 705.803Z" fill="black"/>
<path d="M556.065 770.618L550.012 782.545L550.992 783.042L557.046 771.116L556.065 770.618Z" fill="#455A64"/>
<path d="M547.551 767.472L546.616 768.055L552.56 777.587L553.494 777.004L547.551 767.472Z" fill="#455A64"/>
<path d="M551.432 768.592V797.384C551.427 797.466 551.398 797.544 551.349 797.611C551.3 797.677 551.234 797.727 551.157 797.757C550.961 797.864 550.742 797.92 550.519 797.92C550.296 797.92 550.077 797.864 549.881 797.757C549.804 797.727 549.738 797.677 549.689 797.611C549.64 797.544 549.611 797.466 549.606 797.384V768.592H551.432Z" fill="#455A64"/>
<path d="M573.174 759.636C573.181 762.276 572.407 764.858 570.947 767.058C569.488 769.258 567.41 770.976 564.975 771.995C562.539 773.014 559.857 773.288 557.266 772.784C554.675 772.279 552.291 771.018 550.417 769.16C548.542 767.302 547.26 764.929 546.733 762.343C546.205 759.756 546.456 757.072 547.454 754.628C548.451 752.184 550.151 750.09 552.338 748.612C554.524 747.133 557.1 746.336 559.74 746.32C561.497 746.31 563.239 746.646 564.866 747.31C566.493 747.974 567.972 748.953 569.22 750.19C570.468 751.427 571.46 752.898 572.138 754.519C572.817 756.14 573.169 757.879 573.174 759.636Z" fill="#BB3E03"/>
<path opacity="0.2" d="M564.002 756.238C565.73 750.818 567.557 748.696 566.398 748.029C564.187 746.773 561.663 746.176 559.123 746.306C556.584 746.436 554.134 747.288 552.062 748.763C549.99 750.237 548.383 752.273 547.428 754.63C546.473 756.986 546.211 759.567 546.673 762.068C547.134 764.568 548.3 766.885 550.033 768.746C551.767 770.607 553.995 771.934 556.457 772.572C558.918 773.21 561.511 773.131 563.929 772.346C566.348 771.561 568.492 770.102 570.11 768.14C566.162 769.299 561.704 763.269 564.002 756.238Z" fill="black"/>
<path d="M548.172 763.426C548.172 765.283 547.621 767.098 546.59 768.642C545.558 770.186 544.092 771.389 542.377 772.1C540.661 772.81 538.774 772.996 536.953 772.634C535.132 772.272 533.459 771.378 532.146 770.065C530.833 768.752 529.939 767.079 529.577 765.258C529.214 763.437 529.4 761.549 530.111 759.834C530.821 758.118 532.025 756.652 533.569 755.621C535.112 754.589 536.927 754.039 538.784 754.039C541.274 754.039 543.662 755.028 545.422 756.788C547.183 758.549 548.172 760.937 548.172 763.426Z" fill="#BB3E03"/>
<path opacity="0.2" d="M538.784 754.039C536.818 754.041 534.902 754.659 533.305 755.806C533.049 761.541 537.92 767.138 536.545 769.004C535.171 770.87 531.832 769.731 530.653 768.14C531.48 769.565 532.668 770.747 534.096 771.567C535.525 772.387 537.144 772.818 538.791 772.814C540.438 772.811 542.056 772.374 543.481 771.548C544.906 770.722 546.088 769.535 546.91 768.107C547.731 766.679 548.162 765.061 548.16 763.413C548.158 761.766 547.722 760.148 546.897 758.723C546.071 757.297 544.885 756.114 543.458 755.292C542.031 754.469 540.412 754.037 538.765 754.039H538.784Z" fill="black"/>
<path d="M550.529 770.536C560.042 770.536 567.753 762.825 567.753 753.312C567.753 743.799 560.042 736.088 550.529 736.088C541.016 736.088 533.305 743.799 533.305 753.312C533.305 762.825 541.016 770.536 550.529 770.536Z" fill="#BB3E03"/>
<path opacity="0.1" d="M567.282 757.24C566.633 760.031 565.299 762.616 563.399 764.761C561.499 766.906 559.094 768.543 556.402 769.524C553.71 770.505 550.816 770.799 547.981 770.379C545.147 769.96 542.462 768.84 540.17 767.12C537.878 765.401 536.051 763.137 534.854 760.534C533.658 757.93 533.129 755.069 533.317 752.21C533.505 749.351 534.404 746.584 535.931 744.16C537.458 741.736 539.566 739.731 542.064 738.327C540.575 739.17 539.218 740.229 538.038 741.469C537.739 742.757 537.588 744.075 537.586 745.397C537.591 748.84 538.629 752.202 540.566 755.048C542.502 757.895 545.248 760.095 548.449 761.364C551.649 762.633 555.156 762.913 558.517 762.167C561.878 761.421 564.938 759.684 567.301 757.181L567.282 757.24Z" fill="black"/>
<path d="M51.4763 739.917V730.706L362.613 551L538.136 652.402V661.613L226.979 841.358L51.4763 739.917Z" fill="#BB3E03"/>
<path d="M51.4763 730.706L226.979 832.127L538.136 652.402L362.613 551L51.4763 730.706Z" fill="#BB3E03"/>
<path d="M426.423 633.979L354.62 675.439L426.502 716.899L498.227 675.164L426.423 633.979Z" fill="#F0F0F0"/>
<path opacity="0.15" d="M51.4763 730.706L226.979 832.127V841.358L51.4763 739.917V730.706Z" fill="black"/>
<path opacity="0.1" d="M226.979 832.127L538.136 652.402V661.613L226.979 841.358V832.127Z" fill="black"/>
<path d="M295.111 511.74L406.803 447.262L458.339 546.463L346.646 610.961L295.111 511.74Z" fill="#455A64"/>
<path opacity="0.5" d="M295.111 511.74L406.803 447.262L458.339 546.463L346.646 610.961L295.111 511.74Z" fill="#37474F"/>
<path d="M346.646 680.035L442.391 624.768V560.29L346.646 615.557V680.035Z" fill="#F0F0F0"/>
<path d="M354.62 675.439V620.172L426.424 578.712V633.979L354.62 675.439Z" fill="#455A64"/>
<path opacity="0.5" d="M354.62 675.439V620.172L426.424 578.712V633.979L354.62 675.439Z" fill="#37474F"/>
<path d="M426.424 578.712L425.677 579.144V633.547L426.424 633.96V578.712Z" fill="#263238"/>
<path d="M425.658 633.547L354.62 674.595V675.439L426.424 633.979L425.658 633.547Z" fill="#37474F"/>
<path d="M414.816 543.773V513.92L397.631 504.002L380.505 533.658V563.609L414.816 543.773Z" fill="#F0F0F0"/>
<path d="M397.631 504.002L418.843 516.237L421.553 514.686L397.631 500.859V504.002Z" fill="#263238"/>
<path d="M380.505 563.609L363.36 533.874L354.62 518.673L380.505 533.658V563.609Z" fill="#E0E0E0"/>
<path opacity="0.4" d="M418.843 516.237H414.816V513.92L418.843 516.237Z" fill="black"/>
<path d="M376.42 540.728L397.631 504.002V500.859L373.769 542.26L376.42 540.728Z" fill="#BB3E03"/>
<path d="M376.42 540.728L397.631 504.002V500.859L373.769 542.26L376.42 540.728Z" fill="#37474F"/>
<path d="M373.769 542.26L397.632 500.859L372.964 486.601L349.101 528.002L373.769 542.26Z" fill="#BB3E03"/>
<path d="M373.769 542.26L397.632 500.859L372.964 486.601L349.101 528.002L373.769 542.26Z" fill="#263238"/>
<path d="M389.088 528.866L406.234 518.948V538.745L389.088 548.663V528.866Z" fill="#455A64"/>
<path d="M404.486 537.724V519.969L389.088 528.866V546.62L404.486 537.724Z" fill="#E0E0E0"/>
<path d="M406.234 538.745L404.486 537.724L389.088 546.62V548.663L406.234 538.745Z" fill="#37474F"/>
<path d="M458.339 546.463L346.646 610.961V615.557L458.339 551.079V546.463Z" fill="#37474F"/>
<path d="M195.064 657.017L147.202 564.886L99.3391 601.75V730.706L195.064 785.973V657.017Z" fill="#F0F0F0"/>
<path d="M131.254 638.595L115.287 629.383V656.997L131.254 666.228V638.595Z" fill="#455A64"/>
<path d="M116.563 656.271V630.11L131.254 638.595V664.755L116.563 656.271Z" fill="#FAFAFA"/>
<path d="M116.563 630.11L131.254 638.654V641.384L116.563 632.899V630.11Z" fill="#E0E0E0"/>
<path d="M115.287 656.997L116.563 656.271L131.254 664.755V666.228L115.287 656.997Z" fill="#37474F"/>
<path d="M131.254 653.148L115.287 643.937V642.444L131.254 651.675V653.148Z" fill="#455A64"/>
<path d="M179.117 666.228L163.149 657.017V684.65L179.117 693.862V666.228Z" fill="#455A64"/>
<path d="M164.426 683.904V657.744L179.117 666.228V692.389L164.426 683.904Z" fill="#FAFAFA"/>
<path d="M164.426 657.744L179.117 666.228V668.958L164.426 660.532V657.744Z" fill="#E0E0E0"/>
<path d="M163.149 684.65L164.426 683.904L179.117 692.389V693.862L163.149 684.65Z" fill="#37474F"/>
<path d="M179.117 680.388L163.149 671.236V669.744L179.117 678.896V680.388Z" fill="#455A64"/>
<path d="M131.254 693.862L115.287 684.65V712.284L131.254 721.495V693.862Z" fill="#455A64"/>
<path d="M116.563 711.538V685.397L131.254 693.862V720.022L116.563 711.538Z" fill="#FAFAFA"/>
<path d="M116.563 685.397L131.254 693.92V696.67L116.563 688.186V685.397Z" fill="#E0E0E0"/>
<path d="M115.287 712.284L116.563 711.538L131.254 720.022V721.495L115.287 712.284Z" fill="#37474F"/>
<path d="M131.254 708.434L115.287 699.204V697.731L131.254 706.942V708.434Z" fill="#455A64"/>
<path d="M179.117 721.495L163.149 712.284V739.917L179.117 749.129V721.495Z" fill="#455A64"/>
<path d="M164.426 739.191V713.03L179.117 721.495V747.656L164.426 739.191Z" fill="#FAFAFA"/>
<path d="M164.426 713.03L179.117 721.495V724.225L164.426 715.819V713.03Z" fill="#E0E0E0"/>
<path d="M163.149 739.917L164.426 739.191L179.117 747.656V749.129L163.149 739.917Z" fill="#37474F"/>
<path d="M179.117 735.655L163.149 726.503V725.03L179.117 734.163V735.655Z" fill="#455A64"/>
<path d="M346.646 698.477L195.064 785.973V657.017L346.646 569.501V698.477Z" fill="#FAFAFA"/>
<path d="M261.546 742.942V696.866L285.467 683.06V729.115L261.546 742.942Z" fill="#37474F"/>
<path d="M284.721 728.546V683.492L261.546 696.867V741.921L284.721 728.546Z" fill="#455A64"/>
<path d="M285.467 683.06L284.721 683.492V728.546L285.467 729.115V683.06Z" fill="#263238"/>
<path d="M294.796 671.845L330.698 651.125V689.246L294.796 709.986V671.845Z" fill="#263238"/>
<path d="M328.479 687.97V652.402L294.796 671.845V707.433L328.479 687.97Z" fill="#E6E6E6"/>
<path d="M328.479 652.402V660.69L294.796 680.153V671.845L328.479 652.402Z" fill="#E0E0E0"/>
<path d="M330.698 689.246L328.479 687.97L294.796 707.433V709.986L330.698 689.246Z" fill="#37474F"/>
<path d="M330.698 670.195L328.479 668.899L294.796 688.362V690.916L330.698 670.195Z" fill="#37474F"/>
<path d="M313.494 699.184L311.274 700.461V662.32L313.494 661.043V699.184Z" fill="#37474F"/>
<path d="M211.032 720.199L246.914 699.479V737.619L211.032 758.34V720.199Z" fill="#263238"/>
<path d="M244.714 736.343V700.755L211.032 720.199V755.787L244.714 736.343Z" fill="#E6E6E6"/>
<path d="M244.714 700.755V709.043L211.032 728.507V720.199L244.714 700.755Z" fill="#E0E0E0"/>
<path d="M246.914 737.62L244.714 736.343L211.032 755.787V758.34L246.914 737.62Z" fill="#37474F"/>
<path d="M246.914 718.549L244.714 717.272L211.032 736.736V739.269L246.914 718.549Z" fill="#37474F"/>
<path d="M229.709 747.557L227.51 748.834V710.693L229.709 709.416V747.557Z" fill="#37474F"/>
<path d="M254.809 630.483L290.711 609.763V647.904L254.809 668.624V630.483Z" fill="#263238"/>
<path d="M288.512 646.627V611.04L254.809 630.483V666.071L288.512 646.627Z" fill="#E6E6E6"/>
<path d="M288.512 611.04V614.693L254.809 634.136V630.483L288.512 611.04Z" fill="#E0E0E0"/>
<path d="M290.711 647.904L288.512 646.627L254.809 666.071V668.624L290.711 647.904Z" fill="#37474F"/>
<path d="M290.711 628.834L288.512 627.557L254.809 647.02V649.554L290.711 628.834Z" fill="#37474F"/>
<path d="M273.507 657.842L271.307 659.118V620.978L273.507 619.701V657.842Z" fill="#37474F"/>
<path d="M219.006 664.127L234.011 655.524V677.619L219.006 686.222V664.127Z" fill="#455A64"/>
<path d="M232.734 676.893V656.251L219.006 664.127V684.749L232.734 676.893Z" fill="#E0E0E0"/>
<path d="M234.011 677.619L232.734 676.893L219.006 684.749V686.222L234.011 677.619Z" fill="#37474F"/>
<path d="M219.006 675.164L234.011 666.562V665.089L219.006 673.691V675.164Z" fill="#455A64"/>
<path d="M307.719 612.847L322.705 604.244V626.359L307.719 634.961V612.847Z" fill="#455A64"/>
<path d="M321.428 625.613V604.991L307.719 612.847V633.469L321.428 625.613Z" fill="#E0E0E0"/>
<path d="M322.705 626.359L321.428 625.613L307.719 633.469V634.961L322.705 626.359Z" fill="#37474F"/>
<path d="M307.719 623.904L322.705 615.302V613.809L307.719 622.411V623.904Z" fill="#455A64"/>
<path d="M139.228 575.02L190.901 674.143L354.62 579.635L303.085 480.414L139.228 575.02Z" fill="#455A64"/>
<path d="M139.228 569.501L190.901 668.624L354.62 574.097L303.085 474.895L139.228 569.501Z" fill="#455A64"/>
<path d="M139.228 569.501V575.02L190.901 674.143V668.624L139.228 569.501Z" fill="#263238"/>
<path d="M190.901 668.624L354.62 574.097V579.635L190.901 674.143V668.624Z" fill="#37474F"/>
<path d="M91.3652 611.884L139.228 575.02V569.501L91.3652 606.346V611.884Z" fill="#263238"/>
<path d="M139.228 575.02L91.3652 611.884L99.3391 606.974L139.228 576.277L139.699 575.923L139.228 575.02Z" fill="black"/>
<path d="M231.752 650.555L311.53 604.5L271.641 590.673L231.752 650.555Z" fill="#FAFAFA"/>
<path d="M231.752 645.017L207.83 548.29L271.641 585.154L231.752 645.017Z" fill="#263238"/>
<path d="M271.641 590.673V585.154L231.752 645.017V650.555L271.641 590.673Z" fill="#37474F"/>
<path d="M311.53 604.5V598.961L271.641 585.154V590.673L311.53 604.5Z" fill="#263238"/>
<path d="M311.53 598.961L207.83 548.29L271.641 585.154L311.53 598.961Z" fill="#37474F"/>
<path d="M195.064 781.377L226.979 799.8L378.561 712.284L346.646 693.862L195.064 781.377Z" fill="#E6E6E6"/>
<path d="M195.064 781.377V785.973L226.979 804.415V799.8L195.064 781.377Z" fill="#F0F0F0"/>
<path d="M378.561 712.284V716.899L226.979 804.415V799.8L378.561 712.284Z" fill="#FAFAFA"/>
<path d="M229.179 724.441V793.338C229.161 793.533 229.092 793.719 228.978 793.878C228.864 794.037 228.71 794.162 228.531 794.242C228.05 794.483 227.518 794.609 226.979 794.609C226.441 794.609 225.909 794.483 225.428 794.242C225.249 794.162 225.095 794.037 224.981 793.878C224.867 793.719 224.798 793.533 224.78 793.338V724.441H229.179Z" fill="#37474F"/>
<path d="M370.587 642.837V711.754C370.568 711.945 370.497 712.128 370.383 712.284C370.269 712.439 370.116 712.561 369.939 712.637C369.458 712.879 368.926 713.005 368.387 713.005C367.849 713.005 367.317 712.879 366.836 712.637C366.659 712.561 366.505 712.439 366.391 712.284C366.277 712.128 366.207 711.945 366.188 711.754V642.837H370.587Z" fill="#37474F"/>
<path d="M195.064 712.284L226.979 730.706L378.561 643.19L346.646 624.768L195.064 712.284Z" fill="#455A64"/>
<path d="M195.064 712.284V716.899L226.979 735.322V730.706L195.064 712.284Z" fill="#37474F"/>
<path d="M378.561 643.19V647.806L226.979 735.322V730.706L378.561 643.19Z" fill="#263238"/>
<path d="M518.964 620.45L512.911 632.376L513.892 632.874L519.945 620.947L518.964 620.45Z" fill="#455A64"/>
<path d="M507.781 619.502L506.846 620.081L512.749 629.616L513.684 629.037L507.781 619.502Z" fill="#455A64"/>
<path d="M514.332 618.424V647.177C514.324 647.258 514.295 647.336 514.246 647.402C514.198 647.468 514.132 647.519 514.057 647.55C513.858 647.657 513.635 647.713 513.409 647.713C513.183 647.713 512.96 647.657 512.761 647.55C512.688 647.518 512.626 647.466 512.581 647.4C512.535 647.334 512.51 647.257 512.506 647.177V618.424H514.332Z" fill="#455A64"/>
<path d="M536.172 609.488C536.172 612.13 535.389 614.712 533.921 616.908C532.454 619.104 530.368 620.816 527.927 621.827C525.487 622.838 522.802 623.102 520.211 622.587C517.62 622.071 515.241 620.799 513.373 618.932C511.505 617.064 510.233 614.684 509.718 612.094C509.203 609.503 509.467 606.818 510.478 604.377C511.489 601.937 513.201 599.851 515.397 598.384C517.593 596.916 520.175 596.133 522.817 596.133C526.359 596.133 529.756 597.54 532.26 600.045C534.765 602.549 536.172 605.946 536.172 609.488Z" fill="#BB3E03"/>
<path opacity="0.2" d="M526.902 606.071C528.63 600.65 530.457 598.529 529.298 597.861C527.086 596.606 524.562 596.008 522.023 596.138C519.483 596.268 517.033 597.121 514.962 598.595C512.89 600.07 511.282 602.105 510.328 604.462C509.373 606.819 509.111 609.399 509.572 611.9C510.034 614.401 511.2 616.718 512.933 618.579C514.666 620.439 516.895 621.767 519.356 622.404C521.818 623.042 524.41 622.964 526.829 622.179C529.248 621.394 531.392 619.935 533.01 617.973C529.062 619.131 524.663 613.102 526.902 606.071Z" fill="black"/>
<path d="M511.072 613.259C511.072 615.116 510.521 616.931 509.49 618.475C508.458 620.019 506.992 621.222 505.276 621.932C503.561 622.643 501.673 622.829 499.852 622.467C498.031 622.104 496.358 621.21 495.046 619.897C493.733 618.584 492.839 616.912 492.476 615.09C492.114 613.269 492.3 611.382 493.011 609.666C493.721 607.951 494.924 606.485 496.468 605.453C498.012 604.422 499.827 603.871 501.684 603.871C504.174 603.871 506.562 604.86 508.322 606.621C510.083 608.381 511.072 610.769 511.072 613.259Z" fill="#BB3E03"/>
<path opacity="0.2" d="M501.684 603.871C499.718 603.873 497.801 604.491 496.204 605.639C495.949 611.374 500.82 616.971 499.445 618.856C498.07 620.742 494.731 619.563 493.553 617.973C494.38 619.397 495.567 620.579 496.996 621.4C498.424 622.22 500.043 622.65 501.691 622.647C503.338 622.644 504.955 622.207 506.38 621.381C507.806 620.554 508.988 619.368 509.809 617.94C510.631 616.512 511.062 614.893 511.06 613.246C511.057 611.599 510.622 609.981 509.796 608.555C508.971 607.13 507.785 605.946 506.358 605.124C504.93 604.302 503.312 603.87 501.664 603.871H501.684Z" fill="black"/>
<path d="M513.409 620.369C522.922 620.369 530.633 612.657 530.633 603.144C530.633 593.632 522.922 585.92 513.409 585.92C503.896 585.92 496.185 593.632 496.185 603.144C496.185 612.657 503.896 620.369 513.409 620.369Z" fill="#BB3E03"/>
<path opacity="0.1" d="M530.28 607.072C529.629 609.861 528.294 612.444 526.394 614.587C524.495 616.73 522.091 618.365 519.4 619.345C516.709 620.325 513.817 620.619 510.984 620.199C508.151 619.78 505.468 618.661 503.176 616.944C500.885 615.227 499.057 612.965 497.86 610.364C496.662 607.763 496.132 604.904 496.317 602.046C496.503 599.189 497.397 596.422 498.921 593.998C500.444 591.573 502.548 589.566 505.042 588.159C503.548 589.003 502.19 590.069 501.016 591.321C500.16 595.003 500.54 598.864 502.098 602.308C503.656 605.753 506.305 608.588 509.635 610.376C512.966 612.164 516.792 612.806 520.524 612.201C524.255 611.597 527.684 609.781 530.28 607.033V607.072Z" fill="black"/>
<path d="M86.5431 697.503L80.4897 709.429L81.4705 709.927L87.5238 698L86.5431 697.503Z" fill="#455A64"/>
<path d="M77.8436 696.124L76.9087 696.707L82.8523 706.239L83.7872 705.657L77.8436 696.124Z" fill="#455A64"/>
<path d="M81.8789 695.472V724.225C81.871 724.306 81.8413 724.384 81.7929 724.45C81.7445 724.515 81.6792 724.567 81.6039 724.598C81.4045 724.705 81.1819 724.761 80.9558 724.761C80.7297 724.761 80.5071 724.705 80.3077 724.598C80.2324 724.567 80.1671 724.515 80.1187 724.45C80.0703 724.384 80.0406 724.306 80.0327 724.225V695.472H81.8789Z" fill="#455A64"/>
<path d="M103.601 686.536C103.601 689.177 102.818 691.759 101.35 693.956C99.8825 696.152 97.7967 697.864 95.3564 698.874C92.9161 699.885 90.2308 700.15 87.6401 699.634C85.0495 699.119 82.6698 697.847 80.802 695.979C78.9343 694.112 77.6623 691.732 77.147 689.141C76.6317 686.551 76.8962 683.865 77.907 681.425C78.9178 678.985 80.6296 676.899 82.8258 675.431C85.0221 673.964 87.6042 673.181 90.2456 673.181C93.7876 673.181 97.1846 674.588 99.6891 677.092C102.194 679.597 103.601 682.994 103.601 686.536Z" fill="#BB3E03"/>
<path opacity="0.2" d="M94.4486 683.119C96.1573 677.698 98.0034 675.577 96.825 674.909C95.0428 673.902 93.0529 673.318 91.0091 673.202C88.9653 673.087 86.9223 673.442 85.0378 674.242C83.1534 675.042 81.478 676.264 80.1411 677.814C78.8041 679.364 77.8414 681.201 77.3274 683.182C76.8133 685.164 76.7616 687.237 77.1763 689.242C77.591 691.246 78.461 693.129 79.719 694.744C80.9771 696.358 82.5895 697.663 84.4317 698.555C86.274 699.448 88.2968 699.905 90.3438 699.891C92.3134 699.89 94.2587 699.455 96.0409 698.617C97.8231 697.778 99.3985 696.557 100.655 695.04C96.5893 696.179 92.3078 690.15 94.4486 683.119Z" fill="black"/>
<path d="M78.5598 690.307C78.5598 692.163 78.0092 693.979 76.9776 695.522C75.9461 697.066 74.4799 698.269 72.7645 698.98C71.049 699.691 69.1614 699.876 67.3404 699.514C65.5193 699.152 63.8465 698.258 62.5336 696.945C61.2207 695.632 60.3266 693.959 59.9643 692.138C59.6021 690.317 59.788 688.43 60.4986 686.714C61.2091 684.999 62.4124 683.533 63.9562 682.501C65.5 681.469 67.3151 680.919 69.1719 680.919C71.6617 680.919 74.0495 681.908 75.8101 683.668C77.5707 685.429 78.5598 687.817 78.5598 690.307Z" fill="#BB3E03"/>
<path opacity="0.2" d="M69.2112 680.919C67.2418 680.921 65.3237 681.547 63.7316 682.706C63.4763 688.441 68.347 694.019 66.9919 695.904C65.6367 697.79 62.2783 696.631 61.0999 695.04C61.9301 696.462 63.1197 697.641 64.5494 698.458C65.9791 699.275 67.5986 699.701 69.2452 699.695C70.8919 699.688 72.5078 699.248 73.9308 698.42C75.3539 697.591 76.5339 696.403 77.3526 694.974C78.1713 693.545 78.5998 691.927 78.5951 690.28C78.5904 688.633 78.1526 687.017 77.3258 685.593C76.499 684.169 75.3121 682.987 73.8844 682.167C72.4566 681.346 70.8382 680.916 69.1915 680.919H69.2112Z" fill="black"/>
<path d="M80.956 697.416C90.4687 697.416 98.1803 689.705 98.1803 680.192C98.1803 670.679 90.4687 662.968 80.956 662.968C71.4433 662.968 63.7317 670.679 63.7317 680.192C63.7317 689.705 71.4433 697.416 80.956 697.416Z" fill="#BB3E03"/>
<path opacity="0.1" d="M97.7088 684.12C97.0602 686.911 95.7256 689.496 93.8259 691.641C91.9262 693.786 89.5214 695.423 86.8293 696.404C84.1372 697.385 81.2429 697.679 78.4085 697.26C75.5741 696.84 72.8892 695.72 70.597 694.001C68.3048 692.281 66.4776 690.018 65.2811 687.414C64.0845 684.811 63.5564 681.95 63.7444 679.091C63.9325 676.232 64.8308 673.465 66.3581 671.04C67.8854 668.616 69.9933 666.611 72.491 665.207C70.9947 666.057 69.6315 667.122 68.4452 668.369C67.589 672.051 67.9692 675.912 69.5271 679.356C71.0849 682.8 73.7337 685.636 77.0642 687.424C80.3946 689.212 84.2212 689.853 87.9527 689.249C91.6842 688.645 95.1128 686.829 97.7088 684.081V684.12Z" fill="black"/>
<path d="M447.006 625.279L450.424 623.315C451.358 617.798 451.491 612.175 450.816 606.621C449.108 595.76 441.723 592.009 439.032 593.089C436.342 594.169 435.713 597.39 440.564 603.655C444.962 609.992 447.219 617.568 447.006 625.279Z" fill="#BB3E03"/>
<g opacity="0.2">
<path d="M447.006 625.279L450.424 623.315C451.358 617.798 451.491 612.175 450.816 606.621C449.108 595.76 441.723 592.009 439.032 593.089C436.342 594.169 435.713 597.39 440.564 603.655C444.962 609.992 447.219 617.568 447.006 625.279Z" fill="black"/>
</g>
<path d="M448.243 620.978C448.212 620.973 448.182 620.962 448.156 620.945C448.129 620.929 448.105 620.907 448.087 620.881C448.069 620.856 448.056 620.827 448.049 620.796C448.042 620.765 448.041 620.734 448.047 620.703C449.441 610.529 445.356 599.393 440.761 594.915C440.722 594.864 440.702 594.802 440.702 594.738C440.702 594.675 440.722 594.613 440.761 594.562C440.808 594.516 440.871 594.491 440.937 594.491C441.003 594.491 441.067 594.516 441.114 594.562C445.788 599.138 449.952 610.45 448.518 620.761C448.516 620.794 448.507 620.826 448.492 620.856C448.476 620.885 448.455 620.91 448.429 620.931C448.403 620.951 448.373 620.966 448.341 620.974C448.309 620.982 448.276 620.983 448.243 620.978Z" fill="white"/>
<path d="M437.579 630.739C437.049 631.033 435.949 630.365 435.517 630.09C434.789 629.592 434.201 628.916 433.808 628.126C433.369 627.232 433.224 626.221 433.396 625.239C433.476 624.721 433.594 624.209 433.749 623.707L434.181 622.215C434.349 621.736 434.422 621.229 434.397 620.722C434.108 619.728 433.447 618.884 432.551 618.365C432.021 618.091 431.566 617.692 431.224 617.203C430.882 616.714 430.663 616.149 430.587 615.557C430.661 614.611 431.04 613.715 431.667 613.004C432.257 612.257 432.964 611.609 433.494 610.824C433.914 610.257 434.129 609.564 434.103 608.86C434.046 608.437 433.906 608.03 433.69 607.662C433.198 606.904 432.764 606.11 432.394 605.285C432.206 604.866 432.145 604.401 432.219 603.947C432.292 603.493 432.496 603.071 432.806 602.732C433.105 602.511 433.445 602.352 433.806 602.265C434.167 602.177 434.541 602.162 434.908 602.221C435.605 602.304 436.275 602.539 436.872 602.909C438.836 603.989 439.936 606.287 441.998 607.131C442.816 607.385 443.649 607.588 444.492 607.74C444.897 607.833 445.28 608.006 445.617 608.249C445.954 608.492 446.239 608.8 446.456 609.154C447.203 610.667 445.808 612.532 446.338 614.143C446.869 615.753 448.185 616.107 448.97 617.383C449.281 617.953 449.405 618.606 449.324 619.249C449.261 620.337 448.995 621.403 448.538 622.392C448.037 623.378 447.459 624.324 446.81 625.22C446.81 625.22 437.677 630.68 437.579 630.739Z" fill="#BB3E03"/>
<g opacity="0.1">
<path d="M437.579 630.739C437.049 631.033 435.949 630.365 435.517 630.09C434.789 629.592 434.201 628.916 433.808 628.126C433.369 627.232 433.224 626.221 433.396 625.239C433.476 624.721 433.594 624.209 433.749 623.707L434.181 622.215C434.349 621.736 434.422 621.229 434.397 620.722C434.108 619.728 433.447 618.884 432.551 618.365C432.021 618.091 431.566 617.692 431.224 617.203C430.882 616.714 430.663 616.149 430.587 615.557C430.661 614.611 431.04 613.715 431.667 613.004C432.257 612.257 432.964 611.609 433.494 610.824C433.914 610.257 434.129 609.564 434.103 608.86C434.046 608.437 433.906 608.03 433.69 607.662C433.198 606.904 432.764 606.11 432.394 605.285C432.206 604.866 432.145 604.401 432.219 603.947C432.292 603.493 432.496 603.071 432.806 602.732C433.105 602.511 433.445 602.352 433.806 602.265C434.167 602.177 434.541 602.162 434.908 602.221C435.605 602.304 436.275 602.539 436.872 602.909C438.836 603.989 439.936 606.287 441.998 607.131C442.816 607.385 443.649 607.588 444.492 607.74C444.897 607.833 445.28 608.006 445.617 608.249C445.954 608.492 446.239 608.8 446.456 609.154C447.203 610.667 445.808 612.532 446.338 614.143C446.869 615.753 448.185 616.107 448.97 617.383C449.281 617.953 449.405 618.606 449.324 619.249C449.261 620.337 448.995 621.403 448.538 622.392C448.037 623.378 447.459 624.324 446.81 625.22C446.81 625.22 437.677 630.68 437.579 630.739Z" fill="black"/>
</g>
<path d="M443.098 627.793C443.065 627.793 443.033 627.786 443.003 627.773C442.973 627.76 442.946 627.741 442.924 627.717C442.902 627.693 442.885 627.664 442.874 627.634C442.863 627.603 442.859 627.57 442.862 627.537C443.255 617.914 438.718 607.308 435.438 604.205C435.416 604.183 435.399 604.157 435.387 604.128C435.375 604.1 435.369 604.069 435.369 604.038C435.369 604.007 435.375 603.976 435.387 603.948C435.399 603.919 435.416 603.893 435.438 603.871C435.488 603.83 435.55 603.807 435.615 603.807C435.68 603.807 435.742 603.83 435.792 603.871C439.15 607.033 443.766 617.815 443.373 627.577C443.363 627.641 443.329 627.699 443.278 627.739C443.227 627.779 443.163 627.798 443.098 627.793Z" fill="white"/>
<path d="M441.664 616.421C439.386 615.798 437.05 615.416 434.692 615.282C434.661 615.282 434.63 615.276 434.602 615.264C434.573 615.252 434.547 615.235 434.525 615.213C434.503 615.191 434.486 615.165 434.474 615.136C434.462 615.108 434.456 615.077 434.456 615.046C434.453 615.013 434.457 614.979 434.469 614.947C434.481 614.915 434.5 614.887 434.525 614.864C434.549 614.841 434.579 614.824 434.612 614.815C434.644 614.806 434.678 614.804 434.712 614.811C437.109 614.934 439.486 615.316 441.802 615.95C441.867 615.968 441.922 616.011 441.955 616.07C441.988 616.129 441.997 616.199 441.978 616.264C441.956 616.325 441.911 616.376 441.853 616.405C441.794 616.434 441.727 616.44 441.664 616.421Z" fill="white"/>
<path d="M514.823 416.506V407.294L722.222 287.549L889.79 384.276V393.487L682.352 513.232L514.823 416.506Z" fill="#BB3E03"/>
<path d="M514.823 407.294L682.352 504.021L889.79 384.276L722.222 287.549L514.823 407.294Z" fill="#BB3E03"/>
<path opacity="0.15" d="M514.823 407.294L682.352 504.021V513.233L514.823 416.506V407.294Z" fill="black"/>
<path opacity="0.1" d="M682.353 504.021L889.79 384.276V393.487L682.353 513.233V504.021Z" fill="black"/>
<path d="M658.411 333.605L610.549 241.493L562.686 278.338L562.666 407.255L658.411 462.522V333.605Z" fill="#EBEBEB"/>
<path d="M594.581 315.183L578.634 305.972V333.605L594.581 342.816V315.183Z" fill="#455A64"/>
<path d="M579.91 332.859V306.698L594.581 315.183V341.343L579.91 332.859Z" fill="#FAFAFA"/>
<path d="M579.91 306.698L594.581 315.242V317.991L579.91 309.507V306.698Z" fill="#E0E0E0"/>
<path d="M578.634 333.605L579.91 332.859L594.581 341.343V342.816L578.634 333.605Z" fill="#37474F"/>
<path d="M594.581 329.756L578.634 320.525V319.032L594.581 328.263V329.756Z" fill="#455A64"/>
<path d="M642.463 342.816L626.496 333.605V361.239L642.463 370.45V342.816Z" fill="#455A64"/>
<path d="M627.773 360.512V334.351L642.464 342.816V368.977L627.773 360.512Z" fill="#FAFAFA"/>
<path d="M627.773 334.351L642.464 342.816V345.546L627.773 337.14V334.351Z" fill="#E0E0E0"/>
<path d="M626.496 361.239L627.773 360.512L642.463 368.977V370.45L626.496 361.239Z" fill="#37474F"/>
<path d="M642.463 356.977L626.496 347.824V346.332L642.463 355.484V356.977Z" fill="#455A64"/>
<path d="M594.581 370.469L578.634 361.239V388.872L594.581 398.083V370.469Z" fill="#455A64"/>
<path d="M579.91 388.126V361.985L594.581 370.469V396.61L579.91 388.126Z" fill="#FAFAFA"/>
<path d="M579.91 361.985L594.581 370.528V373.258L579.91 364.774V361.985Z" fill="#E0E0E0"/>
<path d="M578.634 388.872L579.91 388.126L594.581 396.61V398.083L578.634 388.872Z" fill="#37474F"/>
<path d="M594.581 385.023L578.634 375.792V374.319L594.581 383.53V385.023Z" fill="#455A64"/>
<path d="M642.463 398.083L626.496 388.872V416.506L642.463 425.717V398.083Z" fill="#455A64"/>
<path d="M627.773 415.779V389.618L642.464 398.083V424.244L627.773 415.779Z" fill="#FAFAFA"/>
<path d="M627.773 389.618L642.464 398.083V400.833L627.773 392.407V389.618Z" fill="#E0E0E0"/>
<path d="M626.496 416.506L627.773 415.779L642.463 424.244V425.717L626.496 416.506Z" fill="#37474F"/>
<path d="M642.463 412.244L626.496 403.091V401.618L642.463 410.771V412.244Z" fill="#455A64"/>
<path d="M809.993 375.006L658.411 462.522V333.605L809.993 246.089V375.006Z" fill="#FAFAFA"/>
<path d="M658.411 356.977L809.993 269.127V246.089L658.411 333.605V356.977Z" fill="#F0F0F0"/>
<path d="M678.346 402.325L714.248 381.586V411.87L678.346 432.591V402.325Z" fill="#263238"/>
<path d="M712.048 410.594V382.862L678.346 402.325V430.037L712.048 410.594Z" fill="#E6E6E6"/>
<path d="M712.048 382.862V389.442L678.346 408.885V402.325L712.048 382.862Z" fill="#E0E0E0"/>
<path d="M714.248 411.87L712.048 410.594L678.346 430.037V432.591L714.248 411.87Z" fill="#37474F"/>
<path d="M714.248 396.728L712.048 395.451L678.346 414.915V417.468L714.248 396.728Z" fill="#37474F"/>
<path d="M697.043 421.808L694.844 423.085V392.8L697.043 391.523V421.808Z" fill="#37474F"/>
<path d="M678.346 356.171L714.248 335.451V365.716L678.346 386.456V356.171Z" fill="#263238"/>
<path d="M712.048 364.44V336.728L678.346 356.171V383.903L712.048 364.44Z" fill="#E6E6E6"/>
<path d="M712.048 336.728V343.288L678.346 362.751V356.171L712.048 336.728Z" fill="#E0E0E0"/>
<path d="M714.248 365.716L712.048 364.44L678.346 383.903V386.456L714.248 365.716Z" fill="#37474F"/>
<path d="M714.248 350.594L712.048 349.317L678.346 368.761V371.314L714.248 350.594Z" fill="#37474F"/>
<path d="M697.043 375.654L694.844 376.931V346.646L697.043 345.389V375.654Z" fill="#37474F"/>
<path d="M602.575 251.608L654.248 350.751L817.967 256.223L766.431 157.002L602.575 251.608Z" fill="#455A64"/>
<path d="M602.575 246.089L654.248 345.232L817.967 250.705L766.431 151.483L602.575 246.089Z" fill="#455A64"/>
<path d="M602.575 246.089V251.608L654.248 350.751V345.232L602.575 246.089Z" fill="#263238"/>
<path d="M654.248 345.232L817.967 250.705V256.223L654.248 350.751V345.232Z" fill="#37474F"/>
<path d="M554.692 288.472L602.575 251.608V246.089L554.692 282.934V288.472Z" fill="#263238"/>
<path d="M602.575 251.608L554.692 288.472L562.666 283.562L602.575 252.865L603.026 252.512L602.575 251.608Z" fill="black"/>
<path d="M738.189 416.466L762.13 430.273V343.759L738.189 329.932V416.466Z" fill="#E0E0E0"/>
<path d="M762.13 430.273L841.908 384.217V294.954L762.13 341.009V430.273Z" fill="#FAFAFA"/>
<path d="M762.13 343.877L841.908 298.666L802.019 284.859L762.13 343.877Z" fill="#FAFAFA"/>
<path d="M802.019 284.859V279.32L759.027 342.954V348.453L802.019 284.859Z" fill="#263238"/>
<path d="M802.019 279.32L781.161 267.281L738.189 330.914L759.027 342.954L802.019 279.32Z" fill="#37474F"/>
<path d="M759.027 342.954L738.189 330.914V336.433L759.027 348.453V342.954Z" fill="#263238"/>
<path d="M849.882 301.435V295.896L802.019 279.32V284.859L849.882 301.435Z" fill="#37474F"/>
<path d="M849.882 295.896L815.06 279.242L781.161 267.281L802.019 279.32L849.882 295.896Z" fill="#37474F"/>
<path d="M849.882 295.896L815.06 279.242L781.161 267.281L802.019 279.32L849.882 295.896Z" fill="#263238"/>
<path d="M775.23 422.712V371.903L799.171 358.096V408.885L775.23 422.712Z" fill="#37474F"/>
<path d="M798.405 408.316V358.528L775.23 371.903V421.71L798.405 408.316Z" fill="#455A64"/>
<path d="M799.171 358.096L798.405 358.528V408.316L799.171 408.885V358.096Z" fill="#263238"/>
<path d="M816.081 353.088L831.066 344.486V366.6L816.081 375.203V353.088Z" fill="#455A64"/>
<path d="M829.79 365.854V345.232L816.081 353.088V373.73L829.79 365.854Z" fill="#E0E0E0"/>
<path d="M831.066 366.6L829.79 365.854L816.081 373.73V375.203L831.066 366.6Z" fill="#37474F"/>
<path d="M816.081 364.145L831.066 355.543V354.07L816.081 362.672V364.145Z" fill="#455A64"/>
<path d="M784.068 322.901L819.97 302.181V332.446L784.068 353.167V322.901Z" fill="#263238"/>
<path d="M817.75 331.17V303.438L784.068 322.901V350.633L817.75 331.17Z" fill="#E6E6E6"/>
<path d="M817.75 303.438V310.017L784.068 329.481V322.901L817.75 303.438Z" fill="#E0E0E0"/>
<path d="M819.97 332.446L817.75 331.17L784.068 350.633V353.167L819.97 332.446Z" fill="#37474F"/>
<path d="M819.97 317.304L817.75 316.027L784.068 335.491V338.044L819.97 317.304Z" fill="#37474F"/>
<path d="M802.765 342.384L800.546 343.661V313.376L802.765 312.099V342.384Z" fill="#37474F"/>
<path d="M775.171 422.672L799.112 408.866L823.152 422.672L799.112 436.558L775.171 422.672Z" fill="#F0F0F0"/>
<path d="M646.726 460.597L643.328 458.633C642.393 453.117 642.254 447.495 642.915 441.939C644.624 431.078 652.009 427.327 654.699 428.407C657.39 429.488 658.019 432.708 653.167 438.974C648.77 445.31 646.513 452.887 646.726 460.597Z" fill="#BB3E03"/>
<g opacity="0.2">
<path d="M646.726 460.597L643.328 458.633C642.393 453.117 642.254 447.495 642.915 441.939C644.624 431.078 652.009 427.327 654.699 428.407C657.39 429.488 658.019 432.708 653.167 438.974C648.77 445.31 646.513 452.887 646.726 460.597Z" fill="black"/>
</g>
<path d="M645.488 456.296C645.549 456.282 645.602 456.246 645.638 456.196C645.675 456.145 645.691 456.083 645.685 456.021C644.29 445.848 648.375 434.712 652.971 430.234C653.009 430.183 653.03 430.121 653.03 430.057C653.03 429.993 653.009 429.931 652.971 429.88C652.923 429.835 652.86 429.809 652.794 429.809C652.728 429.809 652.665 429.835 652.618 429.88C647.943 434.456 643.779 445.769 645.213 456.08C645.223 456.144 645.257 456.202 645.308 456.243C645.359 456.283 645.423 456.302 645.488 456.296Z" fill="white"/>
<path d="M656.153 466.057C656.683 466.352 657.783 465.684 658.215 465.389C658.949 464.898 659.539 464.22 659.924 463.425C660.359 462.53 660.51 461.522 660.356 460.538C660.262 460.021 660.137 459.509 659.983 459.006L659.55 457.514C659.383 457.15 659.292 456.755 659.285 456.354C659.278 455.954 659.355 455.556 659.51 455.186C659.665 454.817 659.896 454.484 660.187 454.208C660.478 453.933 660.823 453.721 661.2 453.586C661.705 453.294 662.135 452.887 662.455 452.4C662.776 451.912 662.978 451.357 663.046 450.777C662.977 449.831 662.597 448.933 661.966 448.224C661.377 447.478 660.67 446.81 660.14 446.044C659.719 445.478 659.505 444.785 659.531 444.08C659.588 443.657 659.728 443.25 659.943 442.882C660.44 442.12 660.874 441.319 661.239 440.486C661.425 440.069 661.485 439.608 661.412 439.157C661.339 438.707 661.136 438.288 660.827 437.952C660.528 437.732 660.189 437.573 659.828 437.485C659.467 437.397 659.092 437.383 658.726 437.442C658.029 437.525 657.358 437.76 656.762 438.129C654.798 439.209 653.717 441.507 651.636 442.352C650.85 442.666 649.966 442.725 649.141 442.961C648.735 443.049 648.35 443.221 648.013 443.464C647.675 443.707 647.391 444.017 647.177 444.375C646.431 445.887 647.825 447.753 647.295 449.344C646.765 450.934 645.449 451.308 644.663 452.604C644.348 453.172 644.224 453.826 644.31 454.47C644.372 455.557 644.639 456.623 645.095 457.612C645.596 458.599 646.174 459.544 646.824 460.44C646.824 460.44 656.074 465.998 656.153 466.057Z" fill="#BB3E03"/>
<g opacity="0.1">
<path d="M656.153 466.057C656.683 466.352 657.783 465.684 658.215 465.389C658.949 464.898 659.539 464.22 659.924 463.425C660.359 462.53 660.51 461.522 660.356 460.538C660.262 460.021 660.137 459.509 659.983 459.006L659.55 457.514C659.383 457.15 659.292 456.755 659.285 456.354C659.278 455.954 659.355 455.556 659.51 455.186C659.665 454.817 659.896 454.484 660.187 454.208C660.478 453.933 660.823 453.721 661.2 453.586C661.705 453.294 662.135 452.887 662.455 452.4C662.776 451.912 662.978 451.357 663.046 450.777C662.977 449.831 662.597 448.933 661.966 448.224C661.377 447.478 660.67 446.81 660.14 446.044C659.719 445.478 659.505 444.785 659.531 444.08C659.588 443.657 659.728 443.25 659.943 442.882C660.44 442.12 660.874 441.319 661.239 440.486C661.425 440.069 661.485 439.608 661.412 439.157C661.339 438.707 661.136 438.288 660.827 437.952C660.528 437.732 660.189 437.573 659.828 437.485C659.467 437.397 659.092 437.383 658.726 437.442C658.029 437.525 657.358 437.76 656.762 438.129C654.798 439.209 653.717 441.507 651.636 442.352C650.85 442.666 649.966 442.725 649.141 442.961C648.735 443.049 648.35 443.221 648.013 443.464C647.675 443.707 647.391 444.017 647.177 444.375C646.431 445.887 647.825 447.753 647.295 449.344C646.765 450.934 645.449 451.308 644.663 452.604C644.348 453.172 644.224 453.826 644.31 454.47C644.372 455.557 644.639 456.623 645.095 457.612C645.596 458.599 646.174 459.544 646.824 460.44C646.824 460.44 656.074 465.998 656.153 466.057Z" fill="black"/>
</g>
<path d="M650.634 463.111C650.667 463.111 650.699 463.105 650.729 463.092C650.759 463.079 650.786 463.059 650.808 463.035C650.83 463.011 650.847 462.983 650.858 462.952C650.868 462.921 650.872 462.888 650.87 462.856C650.477 453.232 655.014 442.607 658.293 439.524C658.315 439.502 658.333 439.476 658.345 439.447C658.357 439.418 658.363 439.388 658.363 439.357C658.363 439.326 658.357 439.295 658.345 439.266C658.333 439.238 658.315 439.212 658.293 439.19C658.272 439.168 658.246 439.15 658.217 439.138C658.188 439.127 658.158 439.12 658.127 439.12C658.096 439.12 658.065 439.127 658.036 439.138C658.008 439.15 657.982 439.168 657.96 439.19C654.582 442.352 649.966 453.134 650.359 462.895C650.369 462.959 650.402 463.018 650.454 463.058C650.505 463.098 650.569 463.117 650.634 463.111Z" fill="white"/>
<path d="M652.048 451.72C654.323 451.086 656.661 450.704 659.02 450.581C659.053 450.581 659.085 450.574 659.115 450.561C659.145 450.548 659.172 450.529 659.194 450.505C659.216 450.481 659.233 450.453 659.244 450.422C659.255 450.391 659.259 450.358 659.256 450.326C659.256 450.294 659.25 450.262 659.237 450.233C659.223 450.204 659.204 450.178 659.179 450.157C659.155 450.136 659.126 450.121 659.095 450.113C659.064 450.105 659.032 450.104 659.001 450.11C656.602 450.222 654.224 450.605 651.911 451.249C651.879 451.255 651.849 451.269 651.823 451.287C651.797 451.306 651.775 451.33 651.758 451.358C651.742 451.385 651.731 451.416 651.727 451.448C651.723 451.48 651.725 451.512 651.734 451.543C651.752 451.608 651.795 451.663 651.854 451.697C651.913 451.73 651.983 451.738 652.048 451.72Z" fill="white"/>
<path d="M880.814 357.706L874.761 369.632L875.742 370.13L881.795 358.203L880.814 357.706Z" fill="#455A64"/>
<path d="M870.711 353.464L869.776 354.047L875.72 363.579L876.655 362.996L870.711 353.464Z" fill="#455A64"/>
<path d="M876.219 355.68V384.433C876.209 384.511 876.181 384.586 876.137 384.651C876.092 384.716 876.033 384.769 875.964 384.807C875.761 384.904 875.54 384.955 875.315 384.955C875.091 384.955 874.869 384.904 874.667 384.807C874.595 384.77 874.533 384.718 874.485 384.653C874.437 384.588 874.405 384.513 874.392 384.433V355.68H876.219Z" fill="#455A64"/>
<path d="M897.96 346.725C897.96 349.366 897.177 351.948 895.71 354.144C894.242 356.341 892.156 358.052 889.716 359.063C887.276 360.074 884.59 360.338 882 359.823C879.409 359.308 877.029 358.036 875.162 356.168C873.294 354.3 872.022 351.921 871.507 349.33C870.991 346.739 871.256 344.054 872.267 341.614C873.277 339.173 874.989 337.088 877.185 335.62C879.382 334.153 881.964 333.369 884.605 333.369C888.147 333.369 891.544 334.776 894.049 337.281C896.553 339.786 897.96 343.183 897.96 346.725Z" fill="#BB3E03"/>
<path opacity="0.2" d="M888.788 343.307C890.517 337.887 892.343 335.765 891.185 335.098C888.972 333.848 886.448 333.256 883.91 333.39C881.372 333.524 878.926 334.38 876.857 335.857C874.789 337.333 873.185 339.37 872.233 341.726C871.282 344.083 871.022 346.662 871.485 349.161C871.949 351.659 873.115 353.974 874.848 355.833C876.581 357.692 878.808 359.018 881.269 359.655C883.729 360.292 886.32 360.214 888.737 359.43C891.155 358.646 893.298 357.189 894.916 355.229C890.949 356.368 886.569 350.338 888.788 343.307Z" fill="black"/>
<path d="M872.959 350.495C872.963 352.353 872.415 354.17 871.386 355.716C870.357 357.263 868.892 358.469 867.177 359.183C865.462 359.896 863.574 360.085 861.751 359.725C859.929 359.365 858.254 358.472 856.939 357.16C855.625 355.848 854.729 354.175 854.365 352.354C854.001 350.532 854.186 348.644 854.896 346.927C855.606 345.21 856.809 343.743 858.353 342.711C859.897 341.678 861.713 341.127 863.571 341.127C866.057 341.127 868.442 342.114 870.202 343.87C871.962 345.626 872.953 348.009 872.959 350.495Z" fill="#BB3E03"/>
<path opacity="0.2" d="M863.571 341.127C861.603 341.123 859.685 341.741 858.091 342.895C857.836 348.63 862.707 354.207 861.351 356.093C859.996 357.978 856.638 356.82 855.459 355.229C856.287 356.653 857.474 357.835 858.902 358.656C860.331 359.476 861.95 359.906 863.597 359.903C865.244 359.9 866.862 359.463 868.287 358.637C869.712 357.811 870.895 356.624 871.716 355.196C872.537 353.768 872.968 352.149 872.966 350.502C872.964 348.855 872.528 347.237 871.703 345.811C870.877 344.386 869.691 343.202 868.264 342.38C866.837 341.558 865.218 341.126 863.571 341.127Z" fill="black"/>
<path d="M875.316 357.605C884.828 357.605 892.54 349.894 892.54 340.381C892.54 330.868 884.828 323.157 875.316 323.157C865.803 323.157 858.091 330.868 858.091 340.381C858.091 349.894 865.803 357.605 875.316 357.605Z" fill="#BB3E03"/>
<path opacity="0.1" d="M892.068 344.329C891.415 347.115 890.077 349.695 888.175 351.835C886.274 353.975 883.87 355.607 881.179 356.584C878.489 357.561 875.597 357.852 872.766 357.431C869.935 357.01 867.253 355.89 864.963 354.172C862.673 352.455 860.848 350.193 859.652 347.593C858.455 344.993 857.926 342.135 858.111 339.279C858.297 336.422 859.191 333.657 860.714 331.233C862.236 328.809 864.338 326.803 866.831 325.396C865.341 326.246 863.984 327.311 862.805 328.558C861.966 332.235 862.357 336.086 863.919 339.52C865.481 342.954 868.126 345.78 871.45 347.564C874.773 349.348 878.59 349.992 882.315 349.397C886.04 348.802 889.467 347.001 892.068 344.27V344.329Z" fill="black"/>
<path d="M539.371 381.517L533.318 393.444L534.299 393.942L540.352 382.015L539.371 381.517Z" fill="#455A64"/>
<path d="M528.181 380.578L527.246 381.157L533.149 390.692L534.084 390.114L528.181 380.578Z" fill="#455A64"/>
<path d="M534.758 379.484V408.237C534.75 408.318 534.72 408.396 534.672 408.462C534.623 408.527 534.558 408.579 534.483 408.61C534.283 408.717 534.061 408.773 533.835 408.773C533.609 408.773 533.386 408.717 533.187 408.61C533.111 408.579 533.046 408.527 532.998 408.462C532.949 408.396 532.919 408.318 532.912 408.237V379.484H534.758Z" fill="#455A64"/>
<path d="M556.48 370.548C556.48 373.189 555.696 375.771 554.229 377.968C552.761 380.164 550.676 381.876 548.235 382.887C545.795 383.897 543.11 384.162 540.519 383.646C537.928 383.131 535.549 381.859 533.681 379.991C531.813 378.124 530.541 375.744 530.026 373.153C529.511 370.563 529.775 367.877 530.786 365.437C531.797 362.997 533.508 360.911 535.705 359.443C537.901 357.976 540.483 357.193 543.124 357.193C544.879 357.19 546.617 357.534 548.238 358.204C549.86 358.874 551.333 359.858 552.574 361.099C553.814 362.339 554.798 363.813 555.468 365.434C556.139 367.056 556.482 368.793 556.48 370.548Z" fill="#BB3E03"/>
<path opacity="0.2" d="M547.308 367.131C549.036 361.71 550.882 359.589 549.704 358.921C547.494 357.675 544.975 357.086 542.441 357.222C539.908 357.357 537.466 358.213 535.402 359.688C533.338 361.163 531.737 363.196 530.788 365.549C529.839 367.902 529.581 370.476 530.044 372.971C530.506 375.465 531.671 377.776 533.401 379.631C535.131 381.487 537.354 382.811 539.81 383.447C542.266 384.084 544.852 384.006 547.266 383.224C549.679 382.442 551.82 380.988 553.436 379.032C549.468 380.191 545.089 374.162 547.308 367.131Z" fill="black"/>
<path d="M531.478 374.319C531.478 376.176 530.927 377.991 529.896 379.534C528.864 381.078 527.398 382.282 525.683 382.992C523.967 383.703 522.08 383.889 520.259 383.526C518.437 383.164 516.765 382.27 515.452 380.957C514.139 379.644 513.245 377.971 512.883 376.15C512.52 374.329 512.706 372.442 513.417 370.726C514.127 369.011 515.331 367.545 516.874 366.513C518.418 365.481 520.233 364.931 522.09 364.931C524.58 364.931 526.968 365.92 528.728 367.68C530.489 369.441 531.478 371.829 531.478 374.319Z" fill="#BB3E03"/>
<path opacity="0.2" d="M522.09 364.931C520.124 364.936 518.209 365.553 516.611 366.698C516.355 372.433 521.226 378.031 519.871 379.897C518.516 381.762 515.157 380.623 513.979 379.032C514.806 380.457 515.993 381.639 517.422 382.459C518.85 383.28 520.469 383.71 522.116 383.707C523.764 383.703 525.381 383.267 526.806 382.44C528.231 381.614 529.414 380.428 530.235 379C531.057 377.572 531.488 375.953 531.485 374.306C531.483 372.658 531.047 371.041 530.222 369.615C529.397 368.189 528.211 367.006 526.783 366.184C525.356 365.362 523.737 364.93 522.09 364.931Z" fill="black"/>
<path d="M533.835 381.428C543.348 381.428 551.059 373.717 551.059 364.204C551.059 354.691 543.348 346.98 533.835 346.98C524.322 346.98 516.611 354.691 516.611 364.204C516.611 373.717 524.322 381.428 533.835 381.428Z" fill="#BB3E03"/>
<path opacity="0.1" d="M550.588 368.132C549.939 370.923 548.605 373.508 546.705 375.653C544.805 377.798 542.4 379.435 539.708 380.416C537.016 381.397 534.122 381.691 531.287 381.272C528.453 380.852 525.768 379.732 523.476 378.013C521.184 376.294 519.357 374.03 518.16 371.426C516.963 368.823 516.435 365.962 516.623 363.103C516.811 360.244 517.71 357.477 519.237 355.052C520.764 352.628 522.872 350.623 525.37 349.219C523.866 350.058 522.501 351.124 521.324 352.381C520.468 356.063 520.848 359.924 522.406 363.368C523.964 366.812 526.613 369.648 529.943 371.436C533.273 373.224 537.1 373.865 540.832 373.261C544.563 372.657 547.992 370.841 550.588 368.093V368.132Z" fill="black"/>
<path d="M104.681 345.134V335.923L312.08 216.177L479.648 312.885V322.096L272.211 441.861L104.681 345.134Z" fill="#BB3E03"/>
<path d="M104.681 335.923L272.211 432.65L479.648 312.885L312.08 216.177L104.681 335.923Z" fill="#BB3E03"/>
<path opacity="0.15" d="M104.681 335.923L272.211 432.65V441.861L104.681 345.134V335.923Z" fill="black"/>
<path opacity="0.1" d="M272.21 432.65L479.648 312.885V322.096L272.21 441.861V432.65Z" fill="black"/>
<path d="M276.197 342.816L304.126 358.941V211.562L208.4 156.275V303.674L276.197 342.816Z" fill="#EBEBEB"/>
<path d="M304.126 225.369L208.4 170.102V156.275L304.126 211.562V225.369Z" fill="#E0E0E0"/>
<path d="M243.497 204.177L224.348 193.12V209.716L243.497 220.773V204.177Z" fill="#455A64"/>
<path d="M225.625 208.97V193.866L243.497 204.177V219.281L225.625 208.97Z" fill="#FAFAFA"/>
<path d="M224.348 209.716L225.624 208.97L243.497 219.281V220.773L224.348 209.716Z" fill="#37474F"/>
<path d="M280.184 225.369L261.055 214.312V230.888L280.184 241.945V225.369Z" fill="#455A64"/>
<path d="M262.332 230.142V215.038L280.184 225.369V240.472L262.332 230.142Z" fill="#FAFAFA"/>
<path d="M261.055 230.888L262.332 230.142L280.184 240.472V241.945L261.055 230.888Z" fill="#37474F"/>
<path d="M296.152 210.521L415.818 226.43V221.834L296.152 205.906V210.521Z" fill="#37474F"/>
<path d="M200.426 150.619L296.152 205.906L415.818 221.834L320.093 166.528L200.426 150.619Z" fill="#455A64"/>
<path d="M200.426 150.619L296.152 205.906V210.521L200.426 155.215V150.619Z" fill="#263238"/>
<path d="M304.125 358.941L407.844 299.078V225.369L304.125 211.562V358.941Z" fill="#FAFAFA"/>
<path d="M320.093 349.729V303.674L344.014 289.847V335.923L320.093 349.729Z" fill="#37474F"/>
<path d="M343.268 335.353V290.299L320.093 303.674V348.728L343.268 335.353Z" fill="#455A64"/>
<path d="M344.014 289.847L343.268 290.299V335.353L344.014 335.923V289.847Z" fill="#263238"/>
<path d="M367.956 276.04L391.877 262.214V289.847L367.956 303.674V276.04Z" fill="#455A64"/>
<path d="M390.6 289.12V262.96L367.956 276.04V302.201L390.6 289.12Z" fill="#E0E0E0"/>
<path d="M391.877 289.847L390.6 289.12L367.956 302.201V303.674L391.877 289.847Z" fill="#37474F"/>
<path d="M380.564 268.754L379.288 269.5V297.134L380.564 296.407V268.754Z" fill="#455A64"/>
<path d="M379.288 269.5V297.134L378.011 296.407V270.227L379.288 269.5Z" fill="#37474F"/>
<path d="M351.988 266.829V228.02L320.073 223.778V285.251L351.988 266.829Z" fill="#E0E0E0"/>
<path d="M351.988 266.829V228.02L320.073 223.778V285.251L351.988 266.829Z" fill="#37474F"/>
<path d="M350.535 227.824L320.073 223.778V283.562L350.535 265.965V227.824Z" fill="#E0E0E0"/>
<path d="M350.535 227.824L351.988 228.02V266.829L350.535 265.965V227.824Z" fill="#455A64"/>
<path d="M337.494 275.196V226.096L336.041 225.899V276.04L337.494 275.196Z" fill="#455A64"/>
<path d="M336.041 225.899V276.04L334.568 275.196V225.703L336.041 225.899Z" fill="#37474F"/>
<path d="M367.956 257.618V230.142L391.877 233.323V243.791L367.956 257.618Z" fill="#455A64"/>
<path d="M390.6 243.065V233.166L367.956 230.142V256.145L390.6 243.065Z" fill="#E0E0E0"/>
<path d="M380.564 250.331L379.288 249.605V231.654L380.564 231.811V250.331Z" fill="#37474F"/>
<path d="M380.564 231.811V250.331L381.723 249.605V231.988L380.564 231.811Z" fill="#455A64"/>
<path d="M391.877 243.791L390.6 243.065L367.956 256.145V257.618L391.877 243.791Z" fill="#37474F"/>
<path d="M220.361 375.065L152.544 335.923V280.636L220.361 319.798V375.065Z" fill="#F0F0F0"/>
<path d="M220.361 319.798V333.605L152.544 294.463V280.636L220.361 319.798Z" fill="#E0E0E0"/>
<path d="M179.667 316.577L160.518 305.52V322.116L179.667 333.153V316.577Z" fill="#455A64"/>
<path d="M161.814 321.369V306.266L179.667 316.577V331.68L161.814 321.369Z" fill="#FAFAFA"/>
<path d="M161.814 306.325V310.96L179.667 321.271V316.656L161.814 306.325Z" fill="#E0E0E0"/>
<path d="M160.518 322.116L161.814 321.369L179.667 331.68V333.153L160.518 322.116Z" fill="#37474F"/>
<path d="M213.585 336.158L194.436 325.101V341.677L213.585 352.734V336.158Z" fill="#455A64"/>
<path d="M195.713 340.931V325.847L213.585 336.158V351.261L195.713 340.931Z" fill="#FAFAFA"/>
<path d="M195.713 325.847V330.463L213.585 340.774V336.158L195.713 325.847Z" fill="#E0E0E0"/>
<path d="M194.436 341.677L195.713 340.931L213.585 351.261V352.734L194.436 341.677Z" fill="#37474F"/>
<path d="M220.361 375.065L276.197 342.816V259.916L220.361 319.798V375.065Z" fill="#FAFAFA"/>
<path d="M228.335 370.469V338.22L268.224 315.183V347.432L228.335 370.469Z" fill="#455A64"/>
<path d="M268.224 315.183L267.477 315.615V347L268.224 347.412V315.183Z" fill="#263238"/>
<path d="M267.458 347L228.335 369.605V370.469L268.224 347.432L267.458 347Z" fill="#37474F"/>
<path d="M218.77 328.086L280.184 262.214V257.618L218.77 323.471V328.086Z" fill="#37474F"/>
<path d="M218.77 328.086L146.966 286.626V282.03L218.77 323.471V328.086Z" fill="#263238"/>
<path d="M208.4 216.158L280.184 257.618L218.77 323.471L146.966 282.03L208.4 216.158Z" fill="#455A64"/>
<path d="M344.014 335.923L391.877 363.556L367.955 377.363L320.093 349.729L344.014 335.923Z" fill="#F0F0F0"/>
<path d="M455.2 281.14L449.147 293.067L450.127 293.565L456.181 281.638L455.2 281.14Z" fill="#455A64"/>
<path d="M443.958 280.181L443.023 280.76L448.926 290.295L449.861 289.717L443.958 280.181Z" fill="#455A64"/>
<path d="M450.561 279.084V307.837C450.561 307.975 450.561 308.093 450.286 308.21C450.084 308.308 449.863 308.359 449.638 308.359C449.414 308.359 449.192 308.308 448.99 308.21C448.919 308.176 448.857 308.124 448.812 308.058C448.768 307.993 448.741 307.917 448.735 307.837V279.084H450.561Z" fill="#455A64"/>
<path d="M472.283 270.129C472.283 272.771 471.499 275.354 470.031 277.55C468.563 279.747 466.476 281.459 464.034 282.469C461.593 283.479 458.906 283.743 456.315 283.226C453.724 282.709 451.344 281.435 449.477 279.565C447.61 277.695 446.34 275.314 445.827 272.722C445.314 270.13 445.581 267.444 446.595 265.004C447.609 262.564 449.324 260.48 451.522 259.015C453.721 257.549 456.305 256.769 458.948 256.773C460.7 256.773 462.436 257.119 464.055 257.79C465.675 258.462 467.146 259.446 468.384 260.686C469.623 261.927 470.605 263.399 471.274 265.019C471.943 266.639 472.286 268.376 472.283 270.129Z" fill="#BB3E03"/>
<path opacity="0.2" d="M463.131 266.711C464.84 261.291 466.686 259.169 465.507 258.521C463.513 257.37 461.25 256.767 458.948 256.773C456.697 256.772 454.483 257.34 452.511 258.423C450.539 259.507 448.872 261.071 447.666 262.971C446.46 264.871 445.754 267.044 445.613 269.29C445.471 271.536 445.9 273.781 446.858 275.817C447.817 277.853 449.274 279.614 451.095 280.936C452.916 282.258 455.042 283.098 457.274 283.379C459.507 283.66 461.775 283.372 463.866 282.542C465.958 281.713 467.806 280.368 469.239 278.633C465.291 279.791 460.892 273.742 463.131 266.711Z" fill="black"/>
<path d="M447.281 273.919C447.281 275.777 446.73 277.592 445.698 279.137C444.666 280.681 443.198 281.884 441.482 282.594C439.765 283.304 437.876 283.489 436.055 283.125C434.233 282.761 432.56 281.865 431.248 280.55C429.936 279.235 429.044 277.561 428.684 275.738C428.324 273.916 428.512 272.028 429.226 270.313C429.939 268.598 431.146 267.133 432.692 266.104C434.239 265.075 436.056 264.527 437.913 264.531C440.4 264.536 442.782 265.528 444.539 267.288C446.295 269.048 447.281 271.433 447.281 273.919Z" fill="#BB3E03"/>
<path opacity="0.2" d="M437.972 264.531C435.998 264.524 434.073 265.143 432.473 266.299C432.217 272.034 437.088 277.611 435.733 279.497C434.378 281.382 431.019 280.224 429.841 278.633C430.67 280.049 431.857 281.222 433.282 282.036C434.707 282.849 436.321 283.274 437.962 283.268C439.603 283.261 441.213 282.824 442.632 282C444.051 281.175 445.228 279.993 446.046 278.57C446.865 277.148 447.295 275.536 447.294 273.895C447.293 272.254 446.861 270.642 446.042 269.22C445.222 267.799 444.044 266.617 442.624 265.794C441.204 264.971 439.593 264.536 437.952 264.531H437.972Z" fill="black"/>
<path d="M449.638 281.009C459.151 281.009 466.863 273.298 466.863 263.785C466.863 254.272 459.151 246.561 449.638 246.561C440.126 246.561 432.414 254.272 432.414 263.785C432.414 273.298 440.126 281.009 449.638 281.009Z" fill="#BB3E03"/>
<path opacity="0.1" d="M466.391 267.732C465.734 270.513 464.394 273.085 462.493 275.218C460.592 277.351 458.19 278.977 455.504 279.95C452.817 280.922 449.931 281.21 447.105 280.787C444.28 280.365 441.604 279.246 439.319 277.53C437.034 275.815 435.213 273.558 434.019 270.962C432.825 268.367 432.296 265.515 432.48 262.664C432.664 259.813 433.555 257.052 435.073 254.632C436.591 252.211 438.687 250.207 441.174 248.799C439.72 249.66 438.397 250.725 437.246 251.962C436.397 255.639 436.781 259.494 438.339 262.932C439.896 266.37 442.542 269.2 445.867 270.987C449.192 272.773 453.012 273.416 456.738 272.818C460.465 272.219 463.891 270.411 466.489 267.674L466.391 267.732Z" fill="black"/>
<path d="M130.739 308.397L124.685 320.324L125.666 320.822L131.719 308.895L130.739 308.397Z" fill="#455A64"/>
<path d="M119.514 307.445L118.579 308.024L124.482 317.56L125.417 316.981L119.514 307.445Z" fill="#455A64"/>
<path d="M126.089 306.384V335.117C126.081 335.199 126.051 335.276 126.003 335.342C125.955 335.408 125.889 335.459 125.814 335.49C125.615 335.597 125.392 335.653 125.166 335.653C124.94 335.653 124.717 335.597 124.518 335.49C124.445 335.458 124.382 335.406 124.337 335.34C124.292 335.274 124.266 335.197 124.262 335.117V306.384H126.089Z" fill="#455A64"/>
<path d="M147.811 297.389C147.811 300.031 147.027 302.614 145.559 304.811C144.09 307.007 142.003 308.719 139.562 309.729C137.12 310.74 134.434 311.003 131.843 310.486C129.252 309.969 126.872 308.695 125.005 306.825C123.138 304.956 121.868 302.574 121.355 299.982C120.841 297.39 121.109 294.704 122.123 292.264C123.136 289.824 124.851 287.74 127.05 286.275C129.249 284.81 131.833 284.03 134.475 284.034C138.014 284.039 141.406 285.448 143.906 287.952C146.406 290.456 147.811 293.85 147.811 297.389Z" fill="#BB3E03"/>
<path opacity="0.2" d="M138.658 293.971C140.367 288.551 142.213 286.43 141.035 285.762C138.822 284.512 136.298 283.92 133.761 284.054C131.223 284.189 128.776 285.045 126.708 286.521C124.639 287.998 123.035 290.034 122.083 292.39C121.132 294.747 120.873 297.326 121.336 299.825C121.799 302.324 122.966 304.639 124.698 306.497C126.431 308.356 128.659 309.682 131.119 310.319C133.579 310.957 136.17 310.879 138.588 310.094C141.005 309.31 143.149 307.853 144.766 305.893C140.819 307.032 136.419 301.003 138.658 293.971Z" fill="black"/>
<path d="M122.809 301.16C122.813 303.018 122.265 304.836 121.235 306.383C120.205 307.93 118.739 309.136 117.023 309.849C115.307 310.562 113.417 310.749 111.594 310.388C109.772 310.026 108.097 309.132 106.783 307.818C105.469 306.504 104.574 304.829 104.213 303.006C103.851 301.183 104.039 299.294 104.752 297.578C105.465 295.861 106.671 294.395 108.218 293.365C109.765 292.335 111.582 291.788 113.441 291.791C115.924 291.797 118.304 292.785 120.059 294.541C121.815 296.297 122.804 298.677 122.809 301.16Z" fill="#BB3E03"/>
<path opacity="0.2" d="M113.441 291.791C111.467 291.784 109.541 292.403 107.942 293.559C107.686 299.294 112.557 304.872 111.202 306.757C109.847 308.643 106.488 307.484 105.31 305.893C106.139 307.309 107.325 308.483 108.751 309.296C110.176 310.109 111.789 310.534 113.43 310.528C115.071 310.522 116.682 310.084 118.101 309.26C119.519 308.436 120.697 307.253 121.515 305.831C122.333 304.408 122.764 302.796 122.763 301.155C122.762 299.514 122.33 297.902 121.51 296.481C120.691 295.059 119.512 293.878 118.093 293.055C116.673 292.232 115.062 291.796 113.421 291.791H113.441Z" fill="black"/>
<path d="M125.166 308.269C134.679 308.269 142.39 300.558 142.39 291.045C142.39 281.532 134.679 273.821 125.166 273.821C115.653 273.821 107.942 281.532 107.942 291.045C107.942 300.558 115.653 308.269 125.166 308.269Z" fill="#BB3E03"/>
<path opacity="0.1" d="M141.919 294.973C141.265 297.756 139.928 300.331 138.028 302.467C136.129 304.603 133.728 306.232 131.041 307.207C128.354 308.183 125.467 308.473 122.64 308.053C119.813 307.632 117.135 306.514 114.848 304.799C112.562 303.084 110.738 300.826 109.543 298.23C108.348 295.634 107.818 292.781 108.002 289.928C108.186 287.076 109.077 284.314 110.596 281.893C112.115 279.472 114.213 277.467 116.701 276.06C115.208 276.905 113.85 277.971 112.675 279.222C111.809 282.904 112.181 286.769 113.735 290.218C115.289 293.666 117.938 296.506 121.27 298.296C124.602 300.086 128.431 300.727 132.165 300.119C135.898 299.511 139.327 297.689 141.919 294.934V294.973Z" fill="black"/>
<path d="M316.42 355.248L318.856 353.854C319.532 349.896 319.631 345.86 319.15 341.873C317.933 334.017 312.63 331.405 310.705 332.191C308.78 332.977 308.329 335.274 311.805 339.752C314.953 344.295 316.57 349.723 316.42 355.248Z" fill="#BB3E03"/>
<g opacity="0.2">
<path d="M316.42 355.248L318.856 353.854C319.532 349.896 319.631 345.86 319.15 341.873C317.933 334.017 312.63 331.405 310.705 332.191C308.78 332.977 308.329 335.274 311.805 339.752C314.953 344.295 316.57 349.723 316.42 355.248Z" fill="black"/>
</g>
<path d="M317.304 352.145C317.281 352.143 317.259 352.136 317.24 352.125C317.22 352.113 317.203 352.098 317.19 352.079C317.177 352.06 317.168 352.039 317.164 352.016C317.16 351.994 317.161 351.971 317.166 351.949C318.168 344.662 315.202 336.688 311.942 333.468C311.913 333.435 311.897 333.393 311.897 333.35C311.897 333.306 311.913 333.264 311.942 333.232C311.954 333.212 311.972 333.195 311.992 333.183C312.013 333.171 312.036 333.165 312.06 333.165C312.084 333.165 312.107 333.171 312.128 333.183C312.148 333.195 312.166 333.212 312.178 333.232C315.536 336.492 318.522 344.603 317.5 352.008C317.491 352.051 317.465 352.089 317.429 352.115C317.393 352.14 317.348 352.151 317.304 352.145Z" fill="white"/>
<path d="M309.664 359.137C309.291 359.373 308.486 358.882 308.191 358.685C307.666 358.332 307.245 357.843 306.973 357.271C306.674 356.663 306.564 355.979 306.659 355.307C306.723 354.936 306.809 354.569 306.914 354.207C307.032 353.854 307.13 353.5 307.229 353.147C307.348 352.8 307.401 352.433 307.386 352.067C307.175 351.352 306.697 350.747 306.05 350.378C305.695 350.173 305.391 349.89 305.163 349.549C304.935 349.209 304.788 348.82 304.734 348.414C304.779 347.731 305.048 347.082 305.5 346.567C305.932 346.037 306.423 345.566 306.797 345.016C307.097 344.621 307.256 344.137 307.248 343.641C307.201 343.344 307.101 343.059 306.954 342.797C306.594 342.253 306.279 341.682 306.011 341.088C305.884 340.786 305.845 340.455 305.897 340.132C305.949 339.81 306.091 339.508 306.306 339.261C306.519 339.099 306.763 338.983 307.023 338.918C307.283 338.854 307.554 338.844 307.818 338.888C308.318 338.954 308.799 339.121 309.232 339.379C310.626 340.165 311.412 341.815 312.905 342.404C313.49 342.587 314.087 342.731 314.692 342.836C314.995 342.894 315.282 343.015 315.536 343.191C315.79 343.367 316.004 343.594 316.165 343.857C316.715 344.937 315.693 346.273 316.165 347.432C316.636 348.59 317.481 348.846 318.129 349.749C318.35 350.157 318.44 350.624 318.384 351.085C318.347 351.868 318.153 352.636 317.815 353.343C317.449 354.026 317.035 354.682 316.577 355.307L309.664 359.137Z" fill="#BB3E03"/>
<g opacity="0.1">
<path d="M309.664 359.137C309.291 359.373 308.486 358.882 308.191 358.685C307.666 358.332 307.245 357.843 306.973 357.271C306.674 356.663 306.564 355.979 306.659 355.307C306.723 354.936 306.809 354.569 306.914 354.207C307.032 353.854 307.13 353.5 307.229 353.147C307.348 352.8 307.401 352.433 307.386 352.067C307.175 351.352 306.697 350.747 306.05 350.378C305.695 350.173 305.391 349.89 305.163 349.549C304.935 349.209 304.788 348.82 304.734 348.414C304.779 347.731 305.048 347.082 305.5 346.567C305.932 346.037 306.423 345.566 306.797 345.016C307.097 344.621 307.256 344.137 307.248 343.641C307.201 343.344 307.101 343.059 306.954 342.797C306.594 342.253 306.279 341.682 306.011 341.088C305.884 340.786 305.845 340.455 305.897 340.132C305.949 339.81 306.091 339.508 306.306 339.261C306.519 339.099 306.763 338.983 307.023 338.918C307.283 338.854 307.554 338.844 307.818 338.888C308.318 338.954 308.799 339.121 309.232 339.379C310.626 340.165 311.412 341.815 312.905 342.404C313.49 342.587 314.087 342.731 314.692 342.836C314.995 342.894 315.282 343.015 315.536 343.191C315.79 343.367 316.004 343.594 316.165 343.857C316.715 344.937 315.693 346.273 316.165 347.432C316.636 348.59 317.481 348.846 318.129 349.749C318.35 350.157 318.44 350.624 318.384 351.085C318.347 351.868 318.153 352.636 317.815 353.343C317.449 354.026 317.035 354.682 316.577 355.307L309.664 359.137Z" fill="black"/>
</g>
<path d="M313.631 357.036C313.609 357.036 313.587 357.031 313.566 357.022C313.546 357.013 313.527 357 313.513 356.983C313.498 356.966 313.487 356.946 313.48 356.925C313.473 356.904 313.471 356.881 313.474 356.859C313.749 349.965 310.508 342.345 308.152 340.145C308.13 340.131 308.111 340.113 308.097 340.091C308.083 340.069 308.074 340.045 308.07 340.019C308.067 339.993 308.069 339.967 308.077 339.942C308.085 339.917 308.098 339.895 308.116 339.876C308.133 339.856 308.155 339.841 308.179 339.832C308.203 339.822 308.229 339.818 308.255 339.819C308.281 339.82 308.306 339.827 308.329 339.84C308.352 339.852 308.372 339.869 308.387 339.89C310.803 342.148 314.103 349.887 313.808 356.878C313.803 356.922 313.782 356.962 313.75 356.991C313.717 357.02 313.675 357.036 313.631 357.036Z" fill="white"/>
<path d="M312.59 348.885C310.962 348.433 309.289 348.163 307.602 348.08C307.555 348.08 307.51 348.061 307.477 348.028C307.444 347.995 307.425 347.95 307.425 347.903C307.425 347.856 307.444 347.811 307.477 347.778C307.51 347.745 307.555 347.726 307.602 347.726C309.329 347.809 311.042 348.086 312.708 348.551C312.73 348.557 312.75 348.568 312.767 348.583C312.784 348.598 312.797 348.616 312.807 348.637C312.816 348.657 312.821 348.679 312.821 348.702C312.821 348.724 312.816 348.747 312.806 348.767C312.802 348.79 312.793 348.813 312.779 348.832C312.766 348.851 312.748 348.867 312.727 348.878C312.706 348.89 312.683 348.896 312.659 348.897C312.636 348.898 312.612 348.894 312.59 348.885Z" fill="white"/>
<path d="M548.427 105.722L534.778 113.578C534.855 112.979 534.895 112.375 534.896 111.771V107.843C534.896 100.812 529.946 98.0232 523.858 101.48C521.239 103.095 518.996 105.251 517.278 107.804C516.277 98.9463 509.422 95.6664 500.899 100.518C491.786 105.801 484.381 118.606 484.381 129.133V135.025C484.321 137.388 484.805 139.733 485.796 141.879L474.444 148.419C472.663 149.584 471.182 151.151 470.117 152.993C469.053 154.835 468.436 156.901 468.316 159.025C468.316 162.953 471.066 164.524 474.444 162.56L548.427 119.804C550.211 118.643 551.695 117.077 552.76 115.234C553.825 113.391 554.44 111.324 554.555 109.198C554.555 105.369 551.884 103.778 548.427 105.722Z" fill="#EBEBEB"/>
<path d="M606.876 145.513L596.585 151.405C596.585 150.933 596.585 150.482 596.585 150.03V147.104C596.585 141.801 592.853 139.64 588.257 142.311C586.279 143.522 584.59 145.151 583.308 147.084C582.562 140.406 577.416 137.912 570.954 141.585C567.32 143.948 564.295 147.137 562.128 150.891C559.96 154.646 558.712 158.86 558.483 163.189V167.647C558.444 169.433 558.807 171.205 559.544 172.832L550.981 177.762C549.636 178.641 548.518 179.825 547.716 181.217C546.914 182.609 546.451 184.171 546.365 185.775C546.365 188.721 548.427 189.919 550.981 188.446L606.876 156.177C608.223 155.303 609.344 154.124 610.149 152.735C610.955 151.346 611.421 149.787 611.511 148.184C611.491 145.336 609.41 144.04 606.876 145.513Z" fill="#EBEBEB"/>
<path d="M867.244 511.622L856.952 517.514C856.952 517.062 856.952 516.611 856.952 516.159V513.174C856.952 507.851 853.221 505.71 848.625 508.362C846.648 509.581 844.954 511.208 843.656 513.134C842.91 506.457 837.666 503.962 831.302 507.635C827.668 509.998 824.643 513.187 822.476 516.941C820.308 520.696 819.059 524.91 818.831 529.239V533.697C818.79 535.477 819.152 537.243 819.892 538.863L811.329 543.812C809.985 544.687 808.866 545.867 808.064 547.256C807.262 548.645 806.799 550.204 806.713 551.805C806.713 554.751 808.677 555.949 811.329 554.476L867.165 522.247C868.512 521.369 869.633 520.186 870.438 518.794C871.244 517.402 871.71 515.84 871.8 514.234C871.879 511.327 869.797 510.129 867.244 511.622Z" fill="#EBEBEB"/>
</svg>
